<svg width="26" height="16" viewBox="0 0 26 16" fill="none" xmlns="http://www.w3.org/2000/svg">
<path fill-rule="evenodd" clip-rule="evenodd" d="M19.3513 15.7069L19.1616 16L18.8676 15.8203L16.3545 14.2884L16.0463 14.0993L16.2407 13.7967L17.0231 12.5674C17.6868 11.5509 18.4458 10.5994 19.2897 9.72577H0.830078V6.23168H19.1521C18.3294 5.35069 17.6044 4.3837 16.9899 3.34752L16.2549 2.08983L16.0748 1.77778L16.3877 1.60284L18.9577 0.170213L19.2612 0L19.4366 0.3026L20.1716 1.55556C20.9984 2.90949 22.0374 4.12264 23.249 5.14894C23.7516 5.58392 24.1973 5.92435 24.515 6.1513C24.6715 6.26478 24.7995 6.34515 24.8802 6.40189L24.9655 6.45863L24.9845 6.47281C25.2358 6.6287 25.4445 6.84421 25.5919 7.10011C25.7393 7.35601 25.8209 7.64433 25.8293 7.93932C25.8378 8.23432 25.7729 8.52681 25.6403 8.79068C25.5078 9.05455 25.3118 9.2816 25.0698 9.45154L25.0461 9.46572L24.9513 9.53664L24.5719 9.82033C24.2495 10.0756 23.7896 10.4492 23.2727 10.9173C22.2295 11.8582 21.0014 13.1158 20.1337 14.4823L19.3513 15.7069Z" fill="#934D28"/>
</svg>
