<svg width="365" height="209" viewBox="0 0 365 209" fill="none" xmlns="http://www.w3.org/2000/svg">
<path d="M314.675 23.7803C312.395 24.3248 311.707 27.3546 313.538 28.8297L324.185 37.4416L321.575 46.3803C321.117 47.9465 322.011 49.5793 323.574 50.0373C324.413 50.2827 325.316 50.1433 326.042 49.6512L333.278 44.7906L342.682 52.3905C344.117 53.5522 346.323 53.0334 347.101 51.3638L363.146 16.986C363.616 15.9871 363.466 14.7973 362.768 13.9448C362.07 13.0921 360.944 12.7062 359.864 12.9634L314.675 23.7803ZM318.534 27.3051L352.979 19.0632L327.798 34.7419L327.876 34.8587L318.534 27.3051ZM343.966 47.872L331.323 37.6429L355.875 22.353L343.966 47.872Z" fill="#E3DFD6"/>
<path d="M2.56152 185.919C35.0902 205.722 61.3263 210.275 98.6142 202.588C162.277 189.463 156.474 134.036 197.228 83.3427C218.36 57.0575 255.5 48.7231 295.202 45.5176" stroke="#A0A0A0" stroke-width="3" stroke-linecap="round" stroke-linejoin="round" stroke-dasharray="12 12"/>
</svg>
