<svg width="32" height="32" viewBox="0 0 32 32" fill="none" xmlns="http://www.w3.org/2000/svg">
<g clip-path="url(#clip0_1_3511)">
<path fill-rule="evenodd" clip-rule="evenodd" d="M16.2666 0.458984C7.62647 0.458984 0.622192 7.46326 0.622192 16.1034C0.622192 24.7436 7.62647 31.7479 16.2666 31.7479C24.9068 31.7479 31.9111 24.7436 31.9111 16.1034C31.9111 7.46326 24.9068 0.458984 16.2666 0.458984ZM12.827 7.81011C13.717 7.76963 14.0014 7.75972 16.2674 7.75972H16.2648C18.5316 7.75972 18.8149 7.76963 19.7049 7.81011C20.5932 7.85079 21.1998 7.99146 21.7318 8.19777C22.281 8.41073 22.7451 8.69578 23.2092 9.1599C23.6734 9.6237 23.9585 10.0892 24.1723 10.638C24.3774 11.1685 24.5182 11.7748 24.5599 12.6631C24.5999 13.5531 24.6103 13.8375 24.6103 16.1035C24.6103 18.3695 24.5999 18.6532 24.5599 19.5433C24.5182 20.4311 24.3774 21.0376 24.1723 21.5684C23.9585 22.117 23.6734 22.5824 23.2092 23.0462C22.7457 23.5104 22.2809 23.7961 21.7323 24.0093C21.2014 24.2156 20.5943 24.3562 19.7061 24.3969C18.8161 24.4374 18.5326 24.4473 16.2664 24.4473C14.0005 24.4473 13.7163 24.4374 12.8263 24.3969C11.9382 24.3562 11.3317 24.2156 10.8009 24.0093C10.2524 23.7961 9.7869 23.5104 9.32331 23.0462C8.85932 22.5824 8.57426 22.117 8.36098 21.5682C8.1548 21.0376 8.01419 20.4313 7.97332 19.5431C7.93304 18.6531 7.92293 18.3695 7.92293 16.1035C7.92293 13.8375 7.93336 13.5529 7.97319 12.6629C8.01315 11.775 8.15395 11.1685 8.36078 10.6378C8.57459 10.0892 8.85971 9.6237 9.32383 9.1599C9.78762 8.69598 10.2531 8.41086 10.8019 8.19777C11.3324 7.99146 11.9387 7.85079 12.827 7.81011Z" fill="#0E0E0E"/>
<path fill-rule="evenodd" clip-rule="evenodd" d="M15.5225 9.25795C15.6678 9.25775 15.8241 9.25782 15.9928 9.25788L16.271 9.25795C18.4988 9.25795 18.7628 9.26596 19.6426 9.30592C20.4561 9.34314 20.8976 9.47905 21.1917 9.59326C21.5811 9.74449 21.8587 9.92531 22.1506 10.2173C22.4426 10.5094 22.6234 10.7875 22.775 11.1769C22.8892 11.4707 23.0253 11.9122 23.0623 12.7257C23.1023 13.6053 23.1109 13.8695 23.1109 16.0962C23.1109 18.323 23.1023 18.5872 23.0623 19.4668C23.0251 20.2803 22.8892 20.7218 22.775 21.0156C22.6237 21.4049 22.4426 21.6822 22.1506 21.9741C21.8585 22.2661 21.5812 22.4469 21.1917 22.5982C20.898 22.7129 20.4561 22.8485 19.6426 22.8856C18.763 22.9256 18.4988 22.9343 16.271 22.9343C14.043 22.9343 13.779 22.9256 12.8994 22.8856C12.0858 22.8481 11.6443 22.7122 11.35 22.598C10.9607 22.4467 10.6825 22.2659 10.3905 21.9739C10.0985 21.6818 9.91772 21.4044 9.7661 21.0149C9.65189 20.7212 9.51579 20.2796 9.47876 19.4661C9.4388 18.5865 9.43079 18.3223 9.43079 16.0941C9.43079 13.866 9.4388 13.6032 9.47876 12.7236C9.51598 11.9101 9.65189 11.4686 9.7661 11.1745C9.91733 10.785 10.0985 10.507 10.3905 10.2149C10.6825 9.9229 10.9607 9.74208 11.35 9.59052C11.6441 9.47579 12.0858 9.34021 12.8994 9.30279C13.6691 9.26805 13.9674 9.25762 15.5225 9.25586V9.25795ZM20.7248 10.6434C20.1721 10.6434 19.7235 11.0913 19.7235 11.6443C19.7235 12.1971 20.1721 12.6456 20.7248 12.6456C21.2776 12.6456 21.7261 12.1971 21.7261 11.6443C21.7261 11.0915 21.2776 10.6434 20.7248 10.6434ZM11.9861 16.0982C11.9861 13.7319 13.9045 11.8133 16.2708 11.8133C18.6372 11.8133 20.5552 13.7318 20.5552 16.0982C20.5552 18.4645 18.6373 20.3822 16.271 20.3822C13.9046 20.3822 11.9861 18.4645 11.9861 16.0982Z" fill="#0E0E0E"/>
<path d="M16.2667 13.3262C17.8027 13.3262 19.048 14.5713 19.048 16.1074C19.048 17.6434 17.8027 18.8887 16.2667 18.8887C14.7306 18.8887 13.4855 17.6434 13.4855 16.1074C13.4855 14.5713 14.7306 13.3262 16.2667 13.3262Z" fill="#0E0E0E"/>
</g>
<defs>
<clipPath id="clip0_1_3511">
<rect width="31.2889" height="31.2889" fill="white" transform="translate(0.622192 0.458984)"/>
</clipPath>
</defs>
</svg>
