<svg width="32" height="32" viewBox="0 0 32 32" fill="none" xmlns="http://www.w3.org/2000/svg">
<g clip-path="url(#clip0_1_3508)">
<path d="M0 16.1034C0 7.46326 7.00428 0.458984 15.6444 0.458984C24.2846 0.458984 31.2889 7.46326 31.2889 16.1034C31.2889 24.7436 24.2846 31.7479 15.6444 31.7479C7.00428 31.7479 0 24.7436 0 16.1034Z" fill="#0E0E0E"/>
<path d="M17.2732 25.304V16.7926H19.6227L19.9341 13.8595H17.2732L17.2772 12.3915C17.2772 11.6265 17.3499 11.2166 18.4487 11.2166H19.9175V8.2832H17.5676C14.745 8.2832 13.7516 9.70607 13.7516 12.0989V13.8599H11.9922V16.7929H13.7516V25.304H17.2732Z" fill="#007664"/>
</g>
<defs>
<clipPath id="clip0_1_3508">
<rect width="31.2889" height="31.2889" fill="white" transform="translate(0 0.458984)"/>
</clipPath>
</defs>
</svg>
