<svg width="1920" height="526" viewBox="0 0 1920 526" fill="none" xmlns="http://www.w3.org/2000/svg">
<path d="M1971.61 284.437C1944.09 273.345 1928.82 258.746 1912.04 244.462C1895.78 230.628 1878 217.111 1859.32 203.902C1845.3 193.993 1821.02 189.577 1799.25 183.863C1779.29 178.626 1759.15 173.283 1741.27 166.785C1728.42 162.111 1718.31 155.734 1708.48 149.633C1687.72 136.752 1670.2 122.676 1647.03 110.773C1629.54 101.791 1605.35 95.4248 1584.14 87.8944C1582.5 88.1982 1580.86 88.5019 1579.22 88.8057C1579.22 92.2004 1576.77 96.0955 1579.64 98.9038C1592.55 111.548 1592.58 124.437 1590.81 138.065C1588.09 159.006 1590.07 180.07 1590.05 201.081C1590.05 202.892 1590.05 204.702 1587.69 206.587C1584.22 193.8 1580.46 181.028 1577.35 168.224C1570.96 141.936 1565.96 115.57 1558.29 89.3581C1554.57 76.6222 1548.37 63.8169 1539.02 51.7031C1533.22 44.1926 1519.4 37.9209 1506.37 29.2107C1477.15 55.9908 1449.82 81.0308 1422.5 106.071C1421.44 105.927 1420.39 105.783 1419.33 105.639C1422.5 97.4914 1425.67 89.3437 1428.84 81.1961C1427.6 80.9959 1426.36 80.7957 1425.13 80.5955C1390.91 112.573 1356.7 144.551 1322.48 176.529C1321.04 176.271 1319.6 176.014 1318.16 175.756C1323.7 168.895 1329.41 162.061 1334.76 155.169C1350.15 135.345 1365.69 115.542 1380.46 95.6255C1383.64 91.3307 1383.84 86.5937 1385.61 81.4122C1385.8 80.764 1385.91 80.3964 1385.91 80.3964L1385.28 80.9292C1363.88 91.7992 1342.35 102.615 1321.16 113.563C1311.39 118.613 1302.32 123.935 1292.88 129.113C1274.21 139.343 1262.25 151.166 1256.2 163.873C1243.51 190.507 1211.22 210.493 1159.43 224.48C1149.28 227.219 1140.24 230.845 1129.75 233.244C1099.56 240.151 1089.07 251.581 1087.43 266.002C1086.31 275.84 1082.55 285.675 1078.34 295.37C1073.81 305.776 1062.63 314.815 1045.22 322.208C1039.24 324.748 1033.6 327.462 1028.06 330.2C1009.51 339.369 1003.15 349.829 1008.51 362.171C1016.07 379.565 1021.96 397.106 1028.4 414.596C1028.85 415.816 1028 417.131 1027.49 419.794C1005.95 410.939 987.108 402.53 966.724 394.951C926.373 379.947 885.564 365.173 843.967 350.872C836.179 348.195 823.875 347.185 813.576 347.089C749.997 346.492 687.108 349.542 624.959 355.549C618.961 356.128 612.059 356.668 607.728 358.341C603.639 359.921 599.776 363.103 600.34 365.353C602.859 375.404 607.086 385.369 610.512 395.378C612.067 399.918 608.556 401.755 597.374 403.202C543.409 410.187 489.769 417.717 436.431 425.617C389.458 432.573 343.5 440.949 296.231 447.442C254.266 453.205 228.067 466.274 208.99 482.443C192.93 496.054 181.198 510.687 167.334 525.383C84.8849 498.816 14.0848 466.543 -48.7851 430.677C-56.4035 426.331 -63.6596 421.858 -70 416.936C-53.7265 415.318 -38.5822 413.428 -23.3379 413.249C17.7688 412.769 58.9193 412.918 100.05 413.009C133.698 413.083 168.448 418.713 200.62 411.781C224.961 406.537 247.302 399.222 269.325 392.084C308.228 379.473 347.89 367.567 392.649 359.428C453.562 348.35 518.108 343.548 581.792 337.168C605.188 334.824 627.839 330.991 650.83 327.837C667.855 325.689 684.88 323.542 703.828 320.991C718.771 317.428 733.77 315.246 744.439 310.925C775.149 298.485 804.11 285.182 834.615 271.976C840.015 269.108 844.559 266.481 850.01 263.63C858.642 258.569 866.366 253.734 874.09 248.899C892.527 238.708 911.162 228.588 929.363 218.313C973.747 193.259 1027.39 174.777 1098.23 166.515C1156.93 159.669 1202.16 142.996 1242.35 123.034C1268.77 109.914 1298.9 98.3022 1326.04 85.4538C1350.75 73.7513 1374.34 61.5349 1397.21 49.1002C1422.07 35.5893 1444.49 21.1645 1469.94 7.89524C1489.3 -2.19583 1497.1 -2.11203 1517.34 7.8938C1571.58 34.7094 1625.44 61.6898 1678.19 89.0896C1726.92 114.396 1774.35 140.207 1821.58 166.079C1833.15 172.422 1844.31 176.03 1864.24 177.169C1911.48 179.869 1943.09 193.433 1961.68 212.558C1973.75 224.975 1982.78 237.983 1994 251.038C1987.41 262.282 1979.98 273.215 1971.61 284.437Z" fill="#A7DBD3"/>
</svg>
