<svg width="671" height="212" viewBox="0 0 671 212" fill="none" xmlns="http://www.w3.org/2000/svg">
<path d="M-27.3245 153.047C-24.347 159.58 -21.3695 166.113 -18.0772 172.559C-17.1394 171.792 -16.6327 171 -15.8765 170.448C-0.694275 159.376 10.7739 145.561 23.8023 132.892C34.2032 122.779 42.2996 110.902 56.13 103.351C61.8588 100.224 67.0437 96.3957 72.5713 92.7191C72.922 92.439 73.1775 92.3262 73.5121 92.0384C73.8396 91.7366 74.0877 91.6098 74.3619 91.3829C74.4511 91.3029 74.5143 91.323 74.5774 91.3431C74.4827 91.3778 74.3879 91.4124 74.2082 91.6167C73.9548 92.0034 73.7205 92.1422 73.3534 92.3786C73.131 92.7784 72.9046 92.9261 72.5626 93.2506C65.7385 100.632 58.9722 107.769 52.1763 114.886C44.3269 123.106 37.0508 131.468 34.616 142.255C32.9813 149.498 30.2057 156.57 27.7309 163.666C24.7529 172.206 18.3283 177.997 7.98849 180.619C1.69159 182.216 -4.52411 184.038 -10.7762 185.759C-4.66568 194.768 1.44492 203.776 8.06882 212.894C13.1868 208.221 17.7159 203.386 22.4171 198.672C27.3831 193.692 31.709 187.939 37.7418 184.101C49.661 176.518 62.524 169.971 75.0796 163.101C80.5987 160.082 86.3203 157.322 92.0089 154.34C92.1642 154.211 92.2604 154.186 92.3568 154.162C92.2576 154.287 92.1584 154.412 92.0269 154.792C81.437 165.094 70.7619 175.058 60.4081 185.251C57.94 187.681 56.1513 190.748 54.7589 193.753C53.1327 197.264 52.9712 201.324 50.9489 204.616C47.0984 210.885 45.6509 217.554 44.1035 224.334C42.4624 231.525 40.0604 238.593 37.9907 245.715C55.9117 263.084 76.5306 277.905 99.1074 290.815C134.133 310.845 172.409 324.729 213.788 332.392C252.222 339.51 291.005 340.955 330.079 336.544C388.037 330 440.275 311.862 487.12 281.977C483.337 273.912 479.989 266.085 475.406 258.805C469.962 250.156 462.486 243.166 450.51 240.083C437.021 236.61 423.906 232.13 410.501 228.409C395.28 224.183 379.972 220.156 364.572 216.419C361.381 215.645 360.379 214.663 360.823 212.234C361.801 206.88 363.007 201.55 363.726 196.174C363.887 194.97 362.784 193.268 361.617 192.423C360.382 191.528 358.412 191.24 356.7 190.93C338.965 187.717 321.018 186.085 302.874 186.404C299.935 186.456 296.424 186.996 294.202 188.428C282.331 196.078 270.685 203.98 259.17 212.006C253.353 216.06 247.976 220.557 241.829 225.294C241.683 223.87 241.441 223.166 241.569 222.514C243.408 213.158 245.088 203.776 247.245 194.472C248.775 187.87 246.961 182.275 241.666 177.371C240.085 175.906 238.477 174.455 236.769 173.096C231.8 169.141 228.61 164.306 227.319 158.74C226.116 153.555 225.045 148.294 224.725 143.031C224.257 135.318 221.262 129.204 212.647 125.51C209.654 124.226 207.072 122.287 204.177 120.822C189.396 113.34 180.182 102.65 176.562 88.4035C174.835 81.6065 171.421 75.2822 166.095 69.8102C163.4 67.0408 160.812 64.1943 158.023 61.4931C151.976 55.6367 145.832 49.8515 139.738 44.0258C139.748 44.0144 139.775 43.9961 139.73 44.3192C140.135 47.0671 140.194 49.6009 141.103 51.8982C145.317 62.5515 149.751 73.144 154.142 83.7479C155.669 87.4339 157.299 91.0899 158.881 94.7596C158.469 94.8974 158.058 95.0351 157.646 95.1729C147.882 78.0682 138.118 60.9635 128.355 43.8588C128.001 43.9658 127.648 44.0729 127.294 44.18C128.199 48.5381 129.104 52.8963 130.008 57.2544C129.707 57.3314 129.406 57.4084 129.105 57.4853C121.307 44.0916 113.51 30.6978 105.171 16.3733C101.451 21.0323 97.508 24.387 95.8535 28.4044C93.1849 34.884 91.4161 41.7334 90.3533 48.5458C88.1659 62.5663 86.7369 76.6694 84.9136 90.7309C84.0255 97.5795 82.9525 104.411 81.9632 111.251C81.2894 110.243 81.2898 109.274 81.2894 108.306C81.2848 97.0668 81.849 85.8003 81.0724 74.5991C80.5669 67.3091 80.5758 60.4151 84.2616 53.6517C85.0801 52.1496 84.3816 50.0661 84.3816 48.2503C83.9131 48.0878 83.4446 47.9254 82.9761 47.7629C76.9241 51.7908 70.0196 55.1963 65.0305 60.0004C58.4185 66.3671 53.4188 73.8965 47.4947 80.7863C44.6885 84.0499 41.8029 87.4609 38.1348 89.9608C33.0342 93.437 27.2868 96.2947 21.5915 99.0957C15.3769 102.152 8.44904 104.514 4.44904 109.814C-0.883453 116.88 -5.95667 124.11 -10.5962 131.51C-15.3864 139.15 -19.7429 146.959 -27.3245 153.047ZM407.973 267.167C407.285 266.682 406.596 266.197 405.337 265.752C404.75 265.49 404.164 265.227 403.578 264.964C403.745 264.765 403.912 264.567 404.079 264.369C404.69 264.815 405.302 265.261 406.471 265.761C407.16 266.243 407.848 266.725 408.768 267.269C408.707 267.235 408.645 267.202 407.973 267.167ZM398.5 262.454C399.253 262.533 400.007 262.612 401.263 262.789C401.448 263.149 401.634 263.508 401.819 263.867C400.814 263.494 399.809 263.122 398.5 262.454ZM404.254 301.6C404.254 301.6 409.958 298.336 410.444 298.634C411.533 299.685 413.046 302.9 414.134 303.951C414.434 302.066 423.025 296.865 422.824 295.298C422.655 293.979 413.228 289.377 413.228 288.042C413.749 288.051 414.27 288.061 414.791 288.07C415.487 292.256 416.182 296.443 416.878 300.629C416.342 300.822 415.806 301.015 415.27 301.209C413.349 299.193 411.427 297.178 408.698 295.155C408.871 297.931 409.044 300.706 409.217 303.482C408.76 303.638 408.303 303.795 407.846 303.951C404.614 300.668 401.383 297.385 398.152 294.101C398.569 293.783 406.127 304.797 399.833 297.152C401.159 299.376 407.228 305.8 410.002 308.273C409.871 305.776 408.981 296.442 408.676 294.556C408.882 293.71 410.444 293.815 407.791 293.074C408.968 293.969 403.274 300.532 404.254 301.6ZM444.858 280.467C444.678 280.607 444.498 280.746 444.501 281.414C445.214 283.529 445.927 285.644 446.639 287.759C446.13 288.006 445.62 288.252 445.11 288.499C441.349 285.575 437.589 282.651 433.828 279.727C434.154 279.386 434.48 279.045 434.806 278.703C417.439 281.414 438.991 290.459 441.401 292.043C441.576 289.927 463.428 284.758 463.058 283.106C462.876 282.292 445.739 276.133 445.815 275.279C446.666 275.615 443.203 276.08 443.933 276.549C445.733 277.704 447.431 278.972 449.17 280.195C449.388 279.958 449.607 279.721 449.825 279.483C449.025 277.098 448.226 274.712 447.427 272.326C448.031 272.194 444.506 288.632 445.11 288.499C446.57 292.566 452.159 280.062 453.619 284.13C453.139 284.364 452.659 284.599 452.179 284.834C449.91 283.232 447.642 281.629 444.858 280.467ZM248.747 279.046C226.452 271.972 204.116 264.986 181.882 257.779C173.386 255.025 164.736 252.244 158.576 246.183C145.718 233.531 136.117 219.066 129.667 203.58C123.387 188.5 119.661 172.666 114.988 157.125C112.956 150.367 111.362 143.515 109.569 136.706C111.333 137.429 112.285 138.461 113.162 139.535C119.225 146.971 125.302 154.398 131.318 161.86C144.506 178.219 157.72 194.563 170.806 210.98C179.324 221.666 187.789 232.475 199.763 240.647C207.715 246.073 216.612 250.562 225.31 255.174C236.38 261.045 244.24 269.059 249.604 279.126C249.537 279.1 249.469 279.074 248.747 279.046ZM161.126 132.406C169.526 135.733 176.925 139.929 181.381 147.166C185.025 153.085 189.159 158.792 193.064 164.598C197.65 171.418 202.222 178.243 206.801 185.066C206.527 185.286 206.254 185.507 205.98 185.728C205.025 185.055 203.913 184.489 203.138 183.692C193.007 173.276 183.076 162.72 172.772 152.425C166.647 146.306 158.844 142.289 149.151 141.151C145.232 140.691 141.384 139.812 137.489 139.188C129.808 137.956 125.523 135.204 123.759 127.721C121.251 117.081 115.654 106.958 111.453 96.5927C108.871 90.2227 106.43 83.8125 103.926 77.4203C105.382 77.4479 105.947 77.8035 106.271 78.275C115.319 91.4074 124.323 104.561 133.385 117.686C135.371 120.562 137.351 123.471 139.735 126.109C140.764 127.248 142.708 128.023 144.42 128.468C149.728 129.849 155.124 130.993 161.126 132.406ZM363.091 240.448C374.466 247.027 385.842 253.607 397.217 260.186C396.956 260.544 396.695 260.901 396.434 261.258C392.144 259.321 387.801 257.461 383.574 255.433C366.847 247.408 350.059 239.466 333.499 231.205C326.698 227.812 319.918 227.63 312.337 228.533C299.668 230.043 288.266 233.695 277.983 240.024C275.589 241.498 272.885 242.618 270.323 243.901C270.002 243.673 269.681 243.445 269.36 243.216C270.406 241.401 271.105 239.354 272.561 237.81C278.203 231.829 284.159 226.056 289.847 220.105C292.357 217.479 295.614 216.386 299.379 216.166C305.681 215.799 311.992 215.413 318.303 215.367C320.53 215.35 323.173 215.831 324.935 216.892C337.593 224.512 350.072 232.34 363.091 240.448ZM435.033 289.657C435.033 290.844 435.033 292.031 435.033 294.245C431.865 291.678 429.609 289.849 427.353 288.021C427.105 288.185 426.857 288.35 426.609 288.514C427.201 291.027 427.792 293.54 428.384 296.052C427.894 296.289 428.873 294.094 428.384 294.331C424.833 291.188 419.814 290.475 416.263 287.333C416.655 286.982 404.033 297.274 417.518 287.883C419.804 289.689 425.068 300.843 427.353 302.649C427.603 302.472 424.796 291.344 425.046 291.166C424.474 288.679 428.701 294.078 428.13 291.591C428.59 291.391 433.417 291.419 433.877 291.22C436.072 293.111 429.1 286.888 431.295 288.779C367.557 279.357 443.647 298.424 443.933 298.264C443.431 295.726 431.148 283.224 430.645 280.686C431.15 280.61 431.654 280.534 432.158 280.459C433.056 283.336 433.955 286.213 435.033 289.657ZM368.275 308.273C369.365 313.124 367.027 316.109 361.582 316.718C355.749 317.371 359.489 314.699 357.83 312.351C359.819 312.004 357.388 314.946 360.697 310.105C348.987 316.8 360.728 316.04 360.231 318.065C365.153 317.366 372.053 311.764 371.536 308.273C370.648 302.269 361.582 302.08 360.925 305.308C366.249 301.774 364.618 303.383 368.275 308.273ZM380.82 300.663C381.604 303.275 382.757 305.856 383.071 308.507C383.413 311.395 379.929 313.442 376.553 312.747C372.799 311.975 369.23 304.733 371.425 300.967C372.525 303.823 369.69 298.497 371.094 300.663C371.86 301.846 364.904 305.678 366.673 306.165C367.306 304.734 378.291 319.296 378.168 317.912C377.988 315.884 387.653 306.953 387.011 304.937C386.99 304.872 379.896 300.398 380.82 300.663ZM389.26 306.165C391.563 306.424 393.867 306.684 395.902 306.913C394.099 309.022 398.014 308.527 395.902 306.805C393.203 304.604 394.61 305.886 396.738 303.951C397.595 303.172 394.021 297.832 394.527 296.781C393.089 296.745 389.334 293.445 387.895 293.444C387.385 293.444 385.372 299.049 384.182 299.231C386.332 296.29 389.06 295.996 391.507 297.274C394.214 298.687 393.483 300.782 391.616 302.649C390.707 303.559 389.993 304.606 389.26 306.165Z" fill="#FEFEFE"/>
<path d="M-26.3577 152.879C-16.9672 146.946 -11.7574 139.138 -6.02899 131.499C-0.480774 124.099 5.586 116.87 11.9629 109.805C16.7463 104.505 25.0311 102.143 32.4628 99.087C39.2737 96.2863 46.1467 93.4288 52.2463 89.9529C56.6328 87.4533 60.0836 84.0426 63.4393 80.7793C70.5237 73.8901 76.5027 66.3614 84.4097 59.9952C90.3759 55.1916 98.6327 51.7864 105.87 47.7589C106.43 47.9213 106.99 48.0838 107.551 48.2463C107.551 50.0619 108.386 52.1451 107.407 53.6472C103 60.41 102.989 67.3032 103.593 74.5926C104.522 85.7928 103.847 97.0584 103.853 108.296C103.853 109.265 103.853 110.233 104.659 111.241C105.842 104.402 107.125 97.571 108.187 90.723C110.367 76.6627 112.076 62.561 114.692 48.5417C115.963 41.7299 118.078 34.8811 121.27 28.4021C123.248 24.3851 127.963 21.0307 132.411 16.3721C142.384 30.6954 151.708 44.0879 161.033 57.4804C161.393 57.4035 161.753 57.3265 162.113 57.2495C161.032 52.8918 159.95 48.534 158.868 44.1763C159.291 44.0692 159.714 43.9621 160.136 43.8551C171.812 60.9582 183.488 78.0614 195.164 95.1646C195.657 95.0268 196.149 94.8891 196.642 94.7513C194.749 91.0819 192.8 87.4263 190.975 83.7406C185.723 73.1377 180.421 62.5462 175.381 51.8938C174.294 49.5967 174.224 47.0631 173.622 44.2919C173.559 43.9452 173.52 43.7486 173.52 43.7486L173.736 44.0335C181.036 49.8473 188.384 55.632 195.615 61.4878C198.95 64.1887 202.045 67.035 205.269 69.8042C211.638 75.2757 215.72 81.5993 217.785 88.3958C222.114 102.641 233.133 113.33 250.809 120.811C254.271 122.276 257.359 124.215 260.938 125.499C271.241 129.193 274.822 135.306 275.382 143.019C275.764 148.281 277.045 153.541 278.483 158.726C280.027 164.292 283.842 169.126 289.785 173.08C291.827 174.439 293.749 175.891 295.64 177.355C301.973 182.259 304.142 187.853 302.312 194.454C299.733 203.758 297.724 213.139 295.525 222.494C295.371 223.146 295.661 223.85 295.836 225.274C303.186 220.538 309.616 216.04 316.573 211.987C330.343 203.962 344.27 196.06 358.465 188.412C361.123 186.98 365.322 186.44 368.837 186.388C390.534 186.069 411.996 187.7 433.205 190.913C435.252 191.223 437.607 191.511 439.085 192.406C440.481 193.251 441.799 194.953 441.607 196.156C440.747 201.532 439.304 206.862 438.135 212.215C437.605 214.644 438.803 215.626 442.619 216.4C461.035 220.136 479.34 224.163 497.543 228.388C513.573 232.109 529.257 236.589 545.388 240.061C559.709 243.144 568.65 250.134 575.16 258.781C580.641 266.061 584.645 273.888 589.376 281.748C617.513 267.539 641.675 250.277 663.13 231.095C665.73 228.77 668.206 226.378 670.37 223.745C664.816 222.88 659.648 221.869 654.446 221.774C640.417 221.517 626.374 221.596 612.338 221.645C600.855 221.685 588.996 224.696 578.017 220.988C569.71 218.183 562.086 214.271 554.57 210.453C541.294 203.709 527.759 197.341 512.484 192.987C491.697 187.063 469.669 184.494 447.936 181.082C439.952 179.828 432.222 177.778 424.376 176.091C418.566 174.943 412.756 173.794 406.29 172.43C401.19 170.524 396.072 169.357 392.431 167.046C381.95 160.393 372.067 153.277 361.657 146.214C359.814 144.68 358.263 143.275 356.403 141.75C353.457 139.044 350.821 136.458 348.186 133.871C341.893 128.421 335.534 123.008 329.323 117.513C314.176 104.113 295.87 94.2278 271.696 89.8088C251.663 86.1469 236.227 77.2297 222.51 66.5529C213.494 59.5358 203.213 53.3254 193.953 46.4535C185.518 40.1945 177.469 33.6606 169.662 27.0099C161.18 19.7837 153.529 12.0686 144.843 4.97161C138.237 -0.425556 135.575 -0.380736 128.668 4.97084C110.159 19.3131 91.777 33.7434 73.7739 48.3981C57.1463 61.9332 40.9593 75.7381 24.8425 89.5755C20.8911 92.968 17.0822 94.898 10.2827 95.507C-5.84009 96.9511 -16.6266 104.206 -22.9701 114.435C-27.0887 121.076 -30.1705 128.033 -34.0001 135.015C-31.7494 141.029 -29.2156 146.877 -26.3577 152.879Z" fill="white"/>
<path d="M91.9499 154.445C86.3202 157.323 80.5987 160.082 75.0796 163.102C62.524 169.971 49.661 176.518 37.7418 184.101C31.709 187.939 27.383 193.693 22.4171 198.672C17.7159 203.387 13.1868 208.221 8.29162 213.068C17.8159 223.932 27.6306 234.731 37.718 245.623C40.0604 238.594 42.4624 231.525 44.1035 224.335C45.6509 217.554 47.0984 210.885 50.9489 204.617C52.9712 201.324 53.1327 197.264 54.7589 193.754C56.1513 190.749 57.94 187.681 60.4081 185.251C70.7619 175.058 81.437 165.095 91.9984 154.77C92.0025 154.493 91.9499 154.445 91.9499 154.445Z" fill="#A7DBD3"/>
<path d="M72.4759 92.8862C67.0436 96.3957 61.8587 100.224 56.1298 103.351C42.2995 110.902 34.2031 122.779 23.8022 132.892C10.7738 145.561 -0.694397 159.376 -15.8766 170.448C-16.6328 171 -17.1395 171.792 -17.8366 172.766C-15.6985 177.194 -13.4862 181.328 -11.0251 185.61C-4.52422 184.038 1.69142 182.216 7.98833 180.619C18.3282 177.997 24.7528 172.206 27.7308 163.666C30.2056 156.569 32.9812 149.498 34.6159 142.255C37.0506 131.468 44.3267 123.106 52.1761 114.886C58.9721 107.769 65.7384 100.632 72.5283 93.2239C72.539 92.9439 72.4759 92.8862 72.4759 92.8862Z" fill="#A8DBD4"/>
<path d="M249.388 279.06C244.239 269.059 236.38 261.045 225.31 255.175C216.612 250.563 207.714 246.074 199.763 240.647C187.788 232.476 179.324 221.666 170.806 210.98C157.72 194.564 144.505 178.22 131.318 161.861C125.302 154.399 119.224 146.971 113.161 139.536C112.285 138.461 111.333 137.43 109.569 136.707C111.362 143.516 112.956 150.367 114.988 157.126C119.66 172.666 123.387 188.501 129.667 203.58C136.117 219.066 145.718 233.531 158.576 246.183C164.736 252.245 173.386 255.026 181.882 257.78C204.116 264.986 226.451 271.973 249.071 279.051C249.395 279.055 249.388 279.06 249.388 279.06Z" fill="#A7DBD4"/>
<path d="M160.806 132.318C155.124 130.993 149.728 129.849 144.42 128.468C142.708 128.023 140.764 127.248 139.735 126.109C137.351 123.471 135.37 120.562 133.385 117.686C124.323 104.561 115.319 91.4075 106.271 78.2751C105.947 77.8036 105.382 77.448 103.926 77.4204C106.43 83.8126 108.871 90.2228 111.453 96.5928C115.654 106.958 121.25 117.082 123.759 127.721C125.523 135.204 129.808 137.956 137.489 139.188C141.384 139.812 145.232 140.691 149.151 141.151C158.844 142.289 166.647 146.306 172.772 152.425C183.076 162.72 193.007 173.276 203.138 183.692C203.912 184.489 205.025 185.055 205.98 185.728C206.254 185.507 206.527 185.286 206.801 185.066C202.222 178.243 197.65 171.418 193.064 164.599C189.159 158.792 185.025 153.085 181.381 147.166C176.925 139.929 169.526 135.733 160.806 132.318Z" fill="#A9DCD4"/>
</svg>
