<svg width="606" height="912" viewBox="0 0 606 912" fill="none" xmlns="http://www.w3.org/2000/svg">
<g clip-path="url(#clip0_1_3211)">
<path d="M0 303.949C0 136.607 135.658 0.949219 303 0.949219C470.342 0.949219 606 136.607 606 303.949V865.188C606 890.543 585.446 911.097 560.091 911.097H45.909C20.5542 911.097 0 890.543 0 865.188V303.949Z" fill="#FFFEF6"/>
<path d="M108.15 247.578C108.884 244.521 110.21 239.011 110.637 236.42C110.735 235.807 110.419 235.29 109.806 235.191C107.896 234.781 102.423 233.71 100.387 233.415C99.1032 233.254 98.71 234.482 99.571 235.179C102.308 237.65 103.009 239.826 102.051 243.809C101.305 246.911 99.3369 248.985 96.0954 248.205L94.8452 247.905C92.2058 247.27 91.5879 245.358 92.1207 242.939C92.5086 241.122 93.3819 239.324 94.8497 238.11C95.6538 237.617 95.6117 236.774 94.5929 236.53L90.6568 235.583C90.0086 235.427 89.3656 235.86 89.3135 236.484C89.0755 238.288 88.7356 240.313 88.3125 242.073C87.6778 244.711 86.3249 245.856 84.6117 245.445L84.2412 245.355C82.25 244.876 81.5267 242.792 82.1836 240.06C83.0299 236.54 84.6518 234.482 87.0901 233.304C88.2408 232.798 88.1152 231.689 86.9928 231.469C85.361 231.125 80.7433 230.161 79.0429 229.9C78.3835 229.79 77.9127 230.118 77.7105 230.756C77.0371 232.945 76.1686 236.556 75.4447 239.566C74.8323 242.112 73.663 246.974 73.4233 248.582C73.3249 249.196 73.5728 249.794 74.1637 249.985C81.4502 252.277 93.9211 255.618 104.179 258.182C104.873 258.35 105.413 257.941 105.615 257.303C106.221 255.393 107.515 250.217 108.15 247.578Z" fill="white" stroke="#4B3420" stroke-width="2.88642"/>
<path d="M114.708 223.762C115.063 222.929 115.673 221.377 115.971 220.314C116.101 219.644 115.957 219.012 115.343 218.751C111.063 216.769 103.4 211.792 104.11 210.128C104.82 208.462 113.51 210.667 118.109 212.268C118.722 212.529 119.278 212.197 119.672 211.64C120.251 210.644 120.987 209.042 121.304 208.298C121.603 207.596 122.064 206.395 122.325 205.418C122.474 204.705 122.242 204.037 121.522 203.782C112.498 200.295 106.596 201.142 102.87 205.144C102.57 205.483 102.132 205.296 102.169 204.845C102.148 199.918 99.1085 195.877 92.9562 192.942C92.2928 192.555 91.6426 192.744 91.2123 193.389C90.7071 194.209 90.1213 195.46 89.8223 196.162C89.542 196.818 88.9691 198.283 88.7642 199.127C88.634 199.797 88.8349 200.296 89.4669 200.514C93.1594 202.297 98.6686 205.89 98.0209 207.53C97.3733 209.169 91.0734 207.673 87.0375 206.209C86.4241 205.948 85.9054 206.192 85.5311 206.706C85.1072 207.458 84.4589 208.733 84.1599 209.435C83.8608 210.136 83.3254 211.512 83.1017 212.401C82.9593 213.22 83.2478 213.757 83.9674 214.013C90.3437 216.423 95.327 215.908 98.9108 212.362C99.229 211.979 99.6923 212.229 99.6555 212.679C99.189 218.021 102.8 223.03 111.58 227.087C112.262 227.43 112.869 227.222 113.318 226.534C113.86 225.626 114.39 224.506 114.708 223.762Z" fill="white" stroke="#4B3420" stroke-width="2.88642"/>
<path d="M129.787 193.67C130.335 192.833 131.182 191.452 131.584 190.577C131.87 189.967 131.678 189.216 131.068 188.93C128.72 187.735 125.411 186.878 122.183 184.765C121.161 184.153 120.905 183.587 121.19 182.977C125.464 175.926 125.066 167.925 118.85 163.856C114.187 160.804 109.319 163.025 105.302 169.161C103.554 171.831 101.366 175.522 100.234 177.513C99.9343 178.057 100.098 178.676 100.55 179.029C105.376 182.7 117.335 191.041 126.115 196.845C126.633 197.184 127.213 196.994 127.672 196.555C128.169 195.969 129.213 194.547 129.787 193.67ZM117.453 179.904C117.129 180.66 116.589 180.875 115.925 180.498C113.894 179.339 111.504 177.774 110.068 176.664C109.576 176.285 109.426 175.731 109.777 175.108C110.05 174.603 110.337 174.165 110.702 173.607C112.58 170.738 114.477 170.101 116.35 171.327C118.621 172.814 119.573 176.055 117.453 179.904Z" fill="white" stroke="#4B3420" stroke-width="2.88642"/>
<path d="M148.475 166.801C150.539 164.431 154.198 160.228 155.775 158.128C156.146 157.629 156.073 157.061 155.606 156.654C154.102 155.408 149.388 151.682 147.719 150.481C146.686 149.709 145.734 150.585 146.212 151.632C147.533 155.119 147.113 157.342 144.486 160.359C142.109 163.089 139.538 163.503 136.669 161.068C131.281 156.377 127.448 151.713 123.247 146.602C122.874 146.088 122.103 146.175 121.594 146.615C120.896 147.271 120.173 148.03 119.578 148.713C118.702 149.718 117.983 150.544 117.215 151.644C116.881 152.173 116.788 152.788 117.224 153.23C122.626 158.629 132.141 167.356 140.053 174.371C140.591 174.84 141.259 174.726 141.733 174.255C143.154 172.84 146.693 168.848 148.475 166.801Z" fill="white" stroke="#4B3420" stroke-width="2.88642"/>
<path d="M170.541 143.992C176.553 138.713 177.917 132.255 170.281 123.558C162.582 114.791 154.151 113.13 148.103 118.441C142.123 123.756 142.649 132.295 150.348 141.062C157.984 149.759 164.565 149.241 170.541 143.992ZM165.513 138.267C163.259 140.246 160.261 140.153 156.176 135.501C152.059 130.813 150.77 126.241 153.132 124.167C155.493 122.093 159.896 123.931 164.013 128.619C168.067 133.235 167.803 136.255 165.513 138.267Z" fill="white" stroke="#4B3420" stroke-width="2.88642"/>
<path d="M188.316 128.877C189.244 128.295 190.43 127.497 191.242 126.819C191.757 126.385 191.963 125.638 191.529 125.123C189.487 122.58 186.915 119.639 184.923 116.279C184.24 115.189 184.346 114.28 185.148 113.946C188.247 112.793 193.475 116.655 196.68 121.953C197.059 122.559 197.746 122.578 198.387 122.346C199.245 121.921 200.789 121.066 201.475 120.637C202.121 120.232 203.388 119.383 204.159 118.731C204.648 118.256 204.931 117.63 204.486 117.009C199.623 109.603 194.911 107.552 189.607 109.131C188.834 109.334 188.506 108.809 189.01 108.269C192.384 104.414 192.875 99.7236 190.701 96.2523C188.022 91.9736 183.11 92.2959 176.934 96.1631C173.866 98.0841 169.936 100.602 168.518 101.658C168.059 102.002 167.868 102.683 168.131 103.193C171.074 108.431 179.674 123.331 183.895 130.072C184.223 130.597 184.87 130.642 185.51 130.409C186.192 130.151 187.428 129.433 188.316 128.877ZM182.883 109.97C182.293 110.733 181.627 110.926 180.99 110.088C179.934 108.67 178.902 106.844 178.149 105.461C177.81 104.83 177.895 104.159 178.475 103.739C178.934 103.396 179.379 103.118 179.944 102.764C182.648 101.07 184.486 101.043 185.572 102.779C186.634 104.475 185.738 107.171 182.883 109.97Z" fill="white" stroke="#4B3420" stroke-width="2.88642"/>
<path d="M223.112 110.15C226.002 108.914 231.213 106.684 233.545 105.478C234.097 105.191 234.322 104.628 234.035 104.077C233.222 102.301 230.81 97.272 229.83 95.4642C229.193 94.3382 227.973 94.7566 227.928 95.8634C227.583 99.5341 226.256 101.397 222.49 103.009C219.558 104.264 216.717 103.925 215.407 100.86L214.9 99.6778C213.832 97.1822 214.996 95.5443 217.254 94.5261C218.943 93.7515 220.907 93.3772 222.757 93.8285C223.633 94.179 224.284 93.6416 223.871 92.6784L222.278 88.9566C222.017 88.3437 221.285 88.0869 220.753 88.418C219.164 89.3053 217.338 90.2424 215.674 90.9545C213.179 92.0226 211.453 91.6215 210.758 90.0015L210.61 89.6512C209.803 87.7684 211.043 85.9431 213.626 84.8374C216.954 83.4133 219.574 83.4834 221.975 84.7354C223.069 85.355 223.882 84.5925 223.388 83.5603C222.688 82.0467 220.702 77.7681 219.897 76.2482C219.589 75.654 219.047 75.4723 218.415 75.6908C216.257 76.459 212.841 77.9205 209.995 79.1386C207.588 80.1692 202.99 82.1369 201.557 82.9052C201.007 83.1927 200.675 83.7491 200.875 84.3371C203.392 91.5486 208.164 103.545 212.236 113.303C212.516 113.96 213.167 114.148 213.799 113.929C215.694 113.274 220.617 111.219 223.112 110.15Z" fill="white" stroke="#4B3420" stroke-width="2.88642"/>
<path d="M267.991 100.817C275.911 99.6773 280.58 95.0119 278.932 83.5567C277.271 72.0072 271.116 66.0123 263.148 67.1586C255.236 68.3452 251.013 75.7853 252.674 87.3347C254.324 98.7899 260.118 101.95 267.991 100.817ZM266.906 93.2744C263.936 93.7017 261.476 91.9867 260.595 85.8584C259.706 79.6831 261.123 75.1488 264.233 74.7011C267.345 74.2534 270.029 78.1976 270.918 84.3729C271.793 90.4542 269.924 92.8403 266.906 93.2744Z" fill="white" stroke="#4B3420" stroke-width="2.88642"/>
<path d="M301.475 98.9317C309.424 99.1735 313.827 95.4002 314.047 86.6396C314.231 80.5464 314.018 71.9156 313.65 66.7584C313.576 66.089 313.158 65.7428 312.59 65.5826C311.785 65.4152 310.455 65.327 309.645 65.3025C308.835 65.2778 307.311 65.2791 306.45 65.3959C305.875 65.4737 305.289 65.9325 305.411 66.6507C305.956 72.1945 306.262 79.3986 306.048 84.8241C305.877 88.9166 304.563 91.3543 301.707 91.2674C298.851 91.1806 297.639 88.7613 297.718 84.5707C297.837 79.1425 298.534 71.8734 299.46 66.4698C299.623 65.8078 299.068 65.2667 298.451 65.1527C297.695 64.9867 296.125 64.8913 295.363 64.8681C294.507 64.8421 293.124 64.8477 292.358 64.9674C291.784 65.0928 291.345 65.4129 291.277 66.0779C290.596 71.2032 289.811 79.8036 289.578 85.8955C289.311 94.6546 293.477 98.6884 301.475 98.9317Z" fill="white" stroke="#4B3420" stroke-width="2.88642"/>
<path d="M327.877 101.135C328.952 101.347 330.362 101.577 331.419 101.639C332.091 101.675 332.754 101.271 332.788 100.599C333.041 97.3474 333.179 93.4428 334.028 89.6296C334.276 88.3681 334.976 87.7777 335.789 88.0836C338.837 89.364 340.004 95.7588 338.714 101.815C338.576 102.516 339.062 103 339.69 103.269C340.605 103.547 342.315 103.981 343.11 104.138C343.858 104.285 345.362 104.533 346.37 104.586C347.053 104.575 347.687 104.312 347.788 103.555C349.315 94.8267 347.283 90.1063 342.335 87.6263C341.634 87.2453 341.754 86.6378 342.491 86.589C347.59 86.0891 351.158 83.0061 351.95 78.9876C352.927 74.0346 349.125 70.9068 341.976 69.4978C338.426 68.7979 333.836 67.9422 332.08 67.7416C331.51 67.6778 330.904 68.0438 330.746 68.5952C329.306 74.4275 325.375 91.1763 323.836 98.9797C323.716 99.5872 324.157 100.062 324.783 100.331C325.457 100.61 326.85 100.933 327.877 101.135ZM336.86 83.6346C335.907 83.7868 335.291 83.4708 335.399 82.4245C335.6 80.668 336.099 78.6303 336.496 77.1069C336.681 76.4151 337.203 75.984 337.913 76.0754C338.483 76.1392 338.997 76.2405 339.651 76.3694C342.781 76.9865 344.139 78.2249 343.744 80.2341C343.357 82.1968 340.857 83.5488 336.86 83.6346Z" fill="white" stroke="#4B3420" stroke-width="2.88642"/>
<path d="M371.583 112.043C372.62 112.524 373.807 113.023 374.774 113.315C375.419 113.509 376.071 113.234 376.266 112.59C376.884 110.356 377.34 106.997 378.825 103.801C380.069 101.123 381.785 100.029 384.289 101.193C385.974 101.975 387.826 103.413 388.751 105.155C389.031 106.021 389.911 106.272 390.394 105.236L392.47 100.424C392.708 99.7992 392.454 99.1034 391.809 98.9089C390.09 98.4258 388.216 97.7129 386.575 96.9506C384.113 95.807 383.378 93.9958 384.16 92.3111L384.361 91.8792C385.224 90.0219 387.41 89.7243 389.959 90.908C393.328 92.4728 395.026 94.4693 395.536 97.3312C395.739 98.4759 396.936 98.6119 397.395 97.5119C398.354 95.3322 399.946 91.4508 400.58 89.7491C400.816 89.1244 400.588 88.5983 400.004 88.2742C397.817 87.1014 394.276 85.4564 391.857 84.333C389.525 83.2496 385.012 81.2065 383.374 80.5507C382.792 80.333 382.157 80.4579 381.853 80.9994C378.125 87.6697 372.449 99.212 367.89 108.804C367.588 109.452 367.882 110.062 368.467 110.386C369.617 111.077 370.546 111.562 371.583 112.043Z" fill="white" stroke="#4B3420" stroke-width="2.88642"/>
<path d="M401.606 128.908C404.285 130.552 409.034 133.466 411.367 134.673C411.919 134.956 412.468 134.79 412.793 134.263C413.773 132.573 416.668 127.309 417.575 125.464C418.167 124.318 417.145 123.524 416.191 124.168C412.972 126.047 410.709 126 407.3 123.908C404.214 122.015 403.381 119.548 405.308 116.316C409.045 110.227 413.01 105.676 417.356 100.688C417.802 100.235 417.588 99.4893 417.07 99.0594C416.308 98.4801 415.439 97.8915 414.669 97.4183C413.531 96.721 412.598 96.148 411.387 95.5724C410.81 95.3298 410.189 95.3399 409.824 95.8428C405.392 102.064 398.359 112.89 392.748 121.852C392.374 122.461 392.596 123.101 393.14 123.49C394.77 124.658 399.291 127.488 401.606 128.908Z" fill="white" stroke="#4B3420" stroke-width="2.88642"/>
<path d="M416.664 139.588C417.44 140.218 418.833 141.224 419.559 141.689C420.062 141.975 420.673 141.979 421.025 141.468C422.083 139.935 423.574 138.323 424.845 137.208C425.884 136.456 427.222 136.621 428.509 137.603L430.323 139.072C431.514 140.099 432.055 141.397 431.505 142.606C430.648 144.118 429.372 145.843 428.092 147.196C427.665 147.647 427.795 148.243 428.143 148.646C428.785 149.29 430.058 150.444 430.65 150.923C431.204 151.373 432.64 152.476 433.359 152.874C433.944 153.287 434.607 153.15 434.878 152.512C440.774 142.516 446.033 130.656 448.297 123.172C448.449 122.682 448.333 122.22 447.985 121.817C447.187 120.986 445.738 119.749 444.961 119.12C444.147 118.46 442.674 117.328 441.734 116.749C441.266 116.493 440.79 116.475 440.342 116.725C433.527 120.52 423.006 128.055 414.448 135.893C413.851 136.328 413.882 136.967 414.415 137.521C414.948 138.075 415.961 139.019 416.664 139.588ZM431.487 134.989C430.303 134.029 430.264 133.018 431.236 132.272C433.227 130.269 435.5 128.372 437.975 126.454C439.424 125.422 439.942 125.842 439.27 127.504C437.906 130.321 436.521 132.938 434.974 135.301C434.513 136.399 433.41 136.548 432.263 135.619C432.048 135.506 431.641 135.176 431.487 134.989Z" fill="white" stroke="#4B3420" stroke-width="2.88642"/>
<path d="M445.008 167.165C445.701 167.951 446.995 169.349 447.858 170.112C448.277 170.442 448.779 170.507 449.293 170.371C456.668 167.934 468.102 162.108 477.764 155.495C478.359 155.162 478.5 154.529 478.065 153.962C477.632 153.327 476.44 151.903 476.03 151.438C475.59 150.938 474.357 149.612 473.718 149.032C473.337 148.67 472.767 148.601 472.342 148.911C465.311 154.475 457.653 159.256 453.469 160.849C451.944 161.495 451.567 161.066 452.368 159.598C454.5 155.751 460.241 148.723 466.61 142.409C467.04 142.031 467.005 141.489 466.663 141.029C466.168 140.323 465.074 138.938 464.477 138.259C463.941 137.652 462.924 136.643 462.35 136.134C461.805 135.661 461.165 135.655 460.759 136.203C452.986 144.959 445.771 155.572 442.427 162.582C442.192 163.108 442.198 163.547 442.505 164.038C443.122 164.954 444.345 166.415 445.008 167.165Z" fill="white" stroke="#4B3420" stroke-width="2.88642"/>
<path d="M461.9 191.247C466.097 198.059 472.235 200.486 482.088 194.415C492.023 188.294 495.072 180.262 490.849 173.409C486.612 166.622 478.106 165.71 468.172 171.83C458.32 177.902 457.728 184.476 461.9 191.247ZM468.387 187.25C466.813 184.695 467.407 181.756 472.678 178.508C477.991 175.235 482.714 174.73 484.362 177.406C486.012 180.082 483.462 184.115 478.149 187.388C472.919 190.611 469.986 189.845 468.387 187.25Z" fill="white" stroke="#4B3420" stroke-width="2.88642"/>
<path d="M476.466 212.727C476.883 213.739 477.472 215.042 478.003 215.955C478.347 216.536 479.048 216.865 479.628 216.523C482.477 214.937 485.808 212.893 489.455 211.493C490.643 211.002 491.522 211.259 491.717 212.105C492.334 215.354 487.65 219.861 481.89 222.132C481.229 222.405 481.095 223.079 481.217 223.75C481.491 224.667 482.076 226.332 482.385 227.08C482.675 227.785 483.3 229.175 483.814 230.046C484.199 230.608 484.769 230.991 485.456 230.656C493.573 227.104 496.384 222.802 495.716 217.308C495.645 216.513 496.218 216.277 496.667 216.865C499.901 220.836 504.443 222.106 508.23 220.546C512.897 218.621 513.402 213.726 510.624 206.989C509.244 203.642 507.422 199.346 506.618 197.771C506.357 197.26 505.716 196.957 505.17 197.132C499.513 199.155 483.382 205.136 476.029 208.168C475.456 208.403 475.304 209.032 475.426 209.704C475.566 210.419 476.066 211.757 476.466 212.727ZM496.016 210.539C495.362 209.829 495.284 209.141 496.217 208.653C497.791 207.849 499.765 207.139 501.255 206.628C501.933 206.399 502.581 206.596 502.897 207.238C503.16 207.748 503.359 208.233 503.613 208.849C504.83 211.799 504.548 213.615 502.655 214.395C500.804 215.159 498.298 213.822 496.016 210.539Z" fill="white" stroke="#4B3420" stroke-width="2.88642"/>
<path d="M488.12 250.418C489.867 257.689 494.236 261.389 499.942 260.066C509.203 257.839 505.861 242.919 510.862 241.717C512.713 241.271 514.185 243.317 514.763 245.922C515.308 248.191 515.03 250.903 513.716 253.179C513.003 254.084 513.572 255.025 514.868 254.713L520.798 253.092C521.308 252.97 521.692 252.534 521.859 252.004C522.251 249.361 522.006 245.895 521.315 243.023C519.711 236.355 515.727 232.415 510.124 233.763C500.909 235.979 504.686 250.255 499.211 251.523C497.219 252.003 495.604 250.578 494.913 247.708C494.145 244.512 494.452 241.108 496.477 238.122C497.202 237.262 496.702 236.207 495.36 236.53C493.138 237.064 490.821 237.621 488.61 238.201C487.962 238.357 487.565 238.747 487.434 239.219C487.001 242.508 487.373 247.316 488.12 250.418Z" fill="white" stroke="#4B3420" stroke-width="2.88642"/>
</g>
<path d="M1.14773 303.949C1.14773 137.241 136.292 2.09695 303 2.09695C469.708 2.09695 604.852 137.241 604.852 303.949V865.188C604.852 889.909 584.812 909.949 560.091 909.949H45.909C21.188 909.949 1.14773 889.909 1.14773 865.188V303.949Z" stroke="black" stroke-width="2.29545"/>
<defs>
<clipPath id="clip0_1_3211">
<path d="M0 303.949C0 136.607 135.658 0.949219 303 0.949219C470.342 0.949219 606 136.607 606 303.949V865.188C606 890.543 585.446 911.097 560.091 911.097H45.909C20.5542 911.097 0 890.543 0 865.188V303.949Z" fill="white"/>
</clipPath>
</defs>
</svg>
