<svg width="263" height="67" viewBox="0 0 263 67" fill="none" xmlns="http://www.w3.org/2000/svg">
<path d="M191.296 18.8943C193.575 19.5181 195.707 20.0032 197.736 20.763C199.871 21.5628 200.769 23.3836 200.983 25.5785C201.364 29.504 200.169 33.0662 198.467 36.5118C198.174 37.1058 197.869 37.6938 197.351 38.7156C202.273 37.2989 205.692 34.6756 207.761 30.4838C210.278 25.3832 213.526 21.1718 219.481 20.0119C220.874 19.7406 222.358 19.6962 223.773 19.83C226.547 20.0922 227.483 20.9775 229.076 24.529C229.517 22.8217 229.88 21.4137 230.326 19.6835C231.456 19.8476 232.728 19.8912 233.912 20.2342C236.297 20.9243 237.137 22.7128 236.196 25.2615C235.095 28.2443 233.723 31.1275 232.627 34.1122C231.745 36.5169 230.924 38.9742 230.433 41.4783C230.24 42.4629 230.741 44.2701 231.426 44.5732C232.37 44.991 234.235 44.7731 234.921 44.0661C237.377 41.5345 240.328 39.0177 241.601 35.8888C245.764 25.6584 249.299 15.1705 252.998 4.75436C253.493 3.35942 253.549 1.80817 253.823 0.242277C253.93 0.207966 254.133 0.0899819 254.339 0.0842146C261.257 -0.109562 262.672 1.31517 260.495 7.89425C257.86 15.8593 254.52 23.5926 251.437 31.4073C250.187 34.5749 248.811 37.6926 247.533 40.7355C248.638 42.8261 250.058 42.3876 251.571 41.5218C255.317 39.3791 257.714 35.9539 260.135 32.5502C260.443 32.1178 260.623 31.5112 261.031 31.2546C261.582 30.9085 262.297 30.8236 262.942 30.6266C262.926 31.2183 263.126 31.9374 262.863 32.3823C259.723 37.6872 255.892 42.3109 249.909 44.8964C250.902 49.2217 250.482 53.4549 248.827 57.5413C247.67 60.3969 245.939 62.7423 242.64 63.3048C239.567 63.8288 237.048 62.3242 236.994 59.2517C236.927 55.441 237.606 51.6115 238.053 47.8007C238.2 46.5513 238.63 45.3352 239.079 43.4957C236.087 45.7122 233.695 47.9309 230.226 47.5983C226.683 47.2586 224.387 45.3433 223.297 42.219C221.319 43.648 219.518 45.3606 217.39 46.4084C210.824 49.6419 205.33 45.9002 205.685 38.6153C205.71 38.0928 205.737 37.5703 205.775 36.8266C203.822 37.9822 202.144 39.4825 200.202 40.0137C196.585 41.0028 193.772 43.0396 190.962 45.3462C188.662 47.2339 185.823 47.8554 182.818 47.5071C179.508 47.1236 177.728 45.7913 175.912 42.1924C174.75 43.2469 173.726 44.4659 172.441 45.266C170.93 46.2073 169.252 47.2014 167.542 47.4463C161.269 48.3449 157.552 44.1064 159.369 37.9506C160.953 32.5829 163.026 27.3564 164.96 22.096C167.647 14.7875 170.407 7.50567 173.216 0C173.932 0.0667878 174.92 0.0671146 175.867 0.263518C179.332 0.982254 180.419 2.87263 179.155 6.19356C175.868 14.8295 172.437 23.4113 169.22 32.0726C168.037 35.2547 167.191 38.5756 166.416 41.8858C166.213 42.7519 166.579 44.3628 167.167 44.6537C167.972 45.0518 169.495 44.8697 170.262 44.3159C172.962 42.3663 175.349 40.1738 176.089 36.5724C177.328 30.5423 180.289 25.3881 184.936 21.2915C186.672 19.7607 188.626 18.6033 191.296 18.8943ZM214.768 33.3438C214.128 36.1274 213.177 38.8844 212.935 41.7021C212.69 44.5666 214.842 45.7732 217.482 44.5592C218.356 44.1571 219.159 43.5322 219.886 42.8876C224.509 38.7917 226.031 33.1381 227.327 27.4603C227.765 25.5425 227.84 23.2592 225.683 21.9914C224.155 21.0931 221.749 21.8638 220.036 24.2697C218.082 27.013 216.595 30.0886 214.768 33.3438ZM191.715 37.5729C192.22 37.5995 193.097 37.7983 193.176 37.6275C195.123 33.4276 196.647 29.0976 196.288 24.3693C196.239 23.7338 195.68 22.7969 195.16 22.635C194.656 22.4782 193.748 22.9933 193.274 23.4686C190.352 26.3997 189.467 33.4732 191.715 37.5729ZM246.208 56.9526C246.539 55.9513 247.038 54.971 247.165 53.9445C247.451 51.6365 247.634 49.3069 247.671 46.9831C247.68 46.4145 246.965 45.8343 246.583 45.2594C246.145 45.7604 245.514 46.1916 245.304 46.7746C244.511 48.9754 243.794 51.2084 243.169 53.4625C242.666 55.2746 242.236 57.121 241.98 58.9806C241.882 59.6901 242.361 60.4787 242.576 61.2312C243.299 60.7874 244.181 60.4786 244.705 59.8648C245.323 59.1402 245.633 58.152 246.208 56.9526ZM188.023 39.3389C187.05 37.9345 186.077 36.5302 184.738 34.5974C184.25 37.483 183.543 40.0801 183.452 42.6986C183.374 44.9491 185.207 45.9536 187.214 44.8636C188.713 44.0497 189.928 42.7123 191.415 41.4882C190.054 40.6469 189.167 40.099 188.023 39.3389Z" fill="#1E1E1E"/>
<path d="M81.5399 41.7165C77.3658 46.2529 71.055 45.8646 67.6561 40.734C65.2867 43.6348 63.0114 46.6543 59.0648 47.4434C55.2948 48.1971 51.9806 46.6021 49.7868 43.1029C48.1145 44.319 46.5429 45.7338 44.7349 46.7115C42.1715 48.0979 39.4652 47.8682 36.8836 46.5269C34.3431 45.2069 32.9834 42.6504 33.7782 39.8943C34.7618 36.4836 36.0876 33.1711 37.278 29.8205C38.4384 26.5545 39.6144 23.294 40.9255 19.6352C42.0861 19.879 43.5923 20.0045 44.9461 20.5259C46.8528 21.2602 47.3853 22.9608 46.4144 25.5739C45.1758 28.9077 43.5565 32.1017 42.354 35.4468C41.5456 37.6957 40.8769 40.0785 40.6911 42.4443C40.4977 44.9073 42.5116 46.1498 44.4058 44.6358C46.5834 42.8952 48.7373 40.6728 49.888 38.19C52.6156 32.3046 54.7442 26.1415 57.2573 19.7272C57.8576 19.8139 58.9806 19.872 60.0459 20.1506C62.6647 20.8353 63.6201 22.3721 62.6893 24.9068C61.1768 29.0256 59.3349 33.0233 57.8185 37.1409C57.2021 38.815 56.8097 40.6656 56.7873 42.4419C56.7554 44.9733 58.4581 45.9979 60.5695 44.6207C63.9596 42.4095 66.7721 39.653 67.6683 35.3694C68.8312 29.8117 71.1178 24.8515 76.1099 21.6017C78.5664 20.0026 81.3396 19.2854 84.1427 19.8771C85.8693 20.2416 87.4024 21.5224 89.0233 22.3923C89.1019 21.9887 89.3066 20.9377 89.5098 19.894C95.752 19.3404 97.022 20.747 95.1451 26.5238C93.3712 31.9838 91.3524 37.3644 89.2972 43.1884C90.1378 42.7661 90.8101 42.5395 91.3527 42.1378C94.6657 39.6843 97.572 37.0485 98.8014 32.7623C100.142 28.0885 102.788 24.1024 107.152 21.5243C109.808 19.9553 112.685 19.4593 115.692 19.826C118.243 20.137 120.115 21.3787 120.915 24.2304C121.327 22.7871 121.74 21.3438 122.209 19.7023C123.129 19.809 124.105 19.8297 125.036 20.0469C128.058 20.7525 129.065 22.5037 127.99 25.4307C126.973 28.2014 125.666 30.8658 124.654 33.6385C123.725 36.1857 122.856 38.7805 122.3 41.4257C122.092 42.4176 122.602 44.3587 123.203 44.5491C124.3 44.8967 126.212 44.7158 126.896 43.9559C129.446 41.1215 132.264 38.2491 133.81 34.8569C135.98 30.0946 137.104 24.8557 138.718 19.6867C144.971 19.2168 146.539 21.6576 144.341 29.0425C144.899 28.6488 145.512 28.3145 146.003 27.8511C148.259 25.7235 150.439 23.5137 152.74 21.4366C153.446 20.7989 154.425 20.1656 155.32 20.1033C156.728 20.0052 158.416 20.0115 159.503 20.7173C160.152 21.1388 160.201 23.0484 159.958 24.1674C159.398 26.7491 158.446 29.2432 157.754 31.8002C157.443 32.9526 157.373 34.1703 157.166 35.5371C157.005 35.5662 156.659 35.6682 156.308 35.6862C150.725 35.9736 149.382 34.2926 150.923 28.944C151.225 27.895 151.56 26.8554 151.59 25.6666C145.293 31.9253 140.184 38.9276 137.173 47.3342C133.749 47.7063 132.19 46.3857 131.646 42.4337C129.076 44.9145 126.66 47.4935 122.876 47.6078C119.241 47.7176 116.615 45.8452 114.504 41.4792C114.037 42.2558 113.75 43.2965 113.07 43.7588C111.151 45.0636 109.191 46.4934 107.028 47.216C102.59 48.6983 98.6203 46.0937 97.7068 41.4796C97.6106 40.9935 97.5761 40.4953 97.5561 40.339C94.4652 42.1785 91.3586 43.9825 88.3125 45.8835C87.7957 46.206 87.4951 46.9202 87.1692 47.4956C85.0434 51.2495 83.1854 55.188 80.7257 58.7067C79.4207 60.5734 77.2593 62.0878 75.1632 63.0877C72.9429 64.1469 70.4709 63.6565 68.7572 61.5932C67.0114 59.4914 67.0542 57.1067 68.2519 54.7705C70.059 51.2454 73.2699 49.2283 76.7826 47.9908C79.8941 46.8947 81.455 44.9676 81.7777 41.9532C81.7368 41.9964 81.8788 41.9849 82.0208 41.9735C81.8605 41.8878 81.7002 41.8022 81.5399 41.7165ZM118.713 23.1384C117.046 21.2644 115.261 21.0325 113.245 22.9637C107.918 28.064 105.302 34.5201 104.798 41.7779C104.604 44.5752 106.699 45.8353 109.209 44.5733C110.655 43.8462 111.943 42.6729 113.079 41.4858C116.57 37.8352 117.757 33.0607 118.976 28.3839C119.374 26.8555 118.928 25.1074 118.713 23.1384ZM84.9032 21.5064C82.1794 21.0558 80.4252 22.7606 79.4282 24.7428C77.4753 28.6253 75.841 32.69 74.3787 36.7877C73.6838 38.7349 73.2267 41.2821 75.5933 42.4668C77.9064 43.6249 79.5183 41.6414 81.0572 40.2113C84.9216 36.62 86.0513 31.6572 87.4059 26.891C87.9702 24.9052 87.3529 22.8078 84.9032 21.5064ZM74.8393 58.6659C76.3038 55.6008 77.7683 52.5356 79.2329 49.4705C78.9536 49.2405 78.6743 49.0105 78.395 48.7805C76.0962 50.544 73.5298 52.0629 71.605 54.1684C70.5511 55.3212 70.2517 57.4579 70.2155 59.1638C70.1796 60.852 71.5828 61.2042 72.9981 60.4511C73.6358 60.1118 74.1062 59.4579 74.8393 58.6659Z" fill="#1E1E1E"/>
<path d="M21.7212 2.01748C23.2583 1.84177 24.6162 1.5637 25.9648 1.60284C27.9787 1.66128 29.9921 2.49266 31.7062 0.422651C32.1186 -0.0754105 33.8655 0.263845 34.8317 0.643207C35.1524 0.769105 35.1213 2.26182 34.9552 3.06874C34.4519 5.51367 33.8447 7.94003 33.1844 10.348C33.0097 10.9851 32.4975 11.5296 32.1403 12.1167C31.4662 11.7041 30.3705 11.4229 30.1937 10.8554C29.5559 8.80826 29.2275 6.66472 28.7461 4.38664C24.6195 3.62929 21.9081 6.56231 23.2337 11.4398C23.9076 13.9191 25.4937 16.1789 26.8334 18.4396C27.8726 20.1933 29.1942 21.7773 30.3472 23.4663C38.367 35.2147 29.7225 47.5419 18.0261 48.3625C11.4133 48.8265 5.45722 47.2644 1.53101 41.3503C-1.05862 37.4496 -0.258123 31.1285 3.14018 26.8974C6.45574 22.7693 12.0395 20.9827 16.5794 22.5972C19.9462 23.7945 21.9833 27.1182 21.3916 30.4485C20.8477 33.5094 19.0179 35.0135 15.9585 35.1108C16.3131 33.2233 16.9616 31.2907 16.9707 29.3551C16.9833 26.688 15.2445 24.6573 13.2137 24.2861C10.7771 23.8408 8.54597 25.0404 7.37742 27.6197C5.5855 31.575 5.2404 35.6265 6.87814 39.7472C8.33711 43.4182 11.0216 45.4667 14.9571 45.7306C19.163 46.0125 22.3187 44.2202 24.2661 40.502C26.688 35.8777 26.5905 31.3273 23.4621 27.0166C21.2829 24.0138 18.778 21.2089 16.9253 18.0211C15.6822 15.8824 14.8562 13.2624 14.6773 10.7973C14.3683 6.54103 16.6693 3.97294 21.7212 2.01748Z" fill="#1E1E1E"/>
<path d="M153.482 55.5678C153.745 54.9339 154.008 54.4946 154.272 54.0552C154.489 54.4762 154.886 54.8941 154.894 55.3188C154.945 58.2765 154.951 61.2366 154.879 64.1936C154.867 64.6969 154.416 65.1896 154.167 65.6872C153.709 65.3784 153.141 65.1581 152.811 64.7464C150.746 62.1627 148.734 59.5364 146.139 57.0523C146.139 59.4097 146.178 61.7682 146.11 64.1237C146.094 64.6941 145.724 65.2544 145.517 65.8194C145.237 65.2536 144.737 64.6957 144.716 64.1208C144.625 61.5445 144.612 58.9613 144.705 56.3854C144.731 55.6748 145.219 54.9809 145.495 54.2793C146.083 54.649 146.813 54.9007 147.234 55.4085C149.209 57.7897 151.099 60.2413 153.483 63.2536C153.483 60.2972 153.483 58.0298 153.482 55.5678Z" fill="#1E1E1E"/>
<path d="M207.373 58.6687C208.33 55.4371 209.917 53.9776 212.509 53.7755C214.929 53.5868 217.056 54.8064 218.045 56.9488C219.171 59.3889 218.787 62.6569 217.08 64.4101C215.547 65.986 213.655 66.6862 211.499 66.0391C209.202 65.3499 207.799 63.7303 207.404 61.3503C207.269 60.5396 207.361 59.6911 207.373 58.6687ZM211.945 64.8276C213.768 65.2014 215.261 64.6929 216.251 63.0837C217.42 61.1855 217.533 59.0678 216.363 57.2764C215.674 56.2224 214.152 55.0644 213.047 55.1045C211.82 55.1491 210.22 56.239 209.525 57.3418C207.886 59.9385 208.911 62.9849 211.945 64.8276Z" fill="#1E1E1E"/>
<path d="M167.806 55.2843C167.111 55.4139 166.587 55.4987 166.087 55.6597C163.472 56.5021 162.249 57.9509 162.293 60.1177C162.336 62.2873 163.833 63.8617 166.49 64.4857C167.14 64.6384 167.814 64.6922 168.736 64.8303C168.736 63.3831 168.674 62.1087 168.775 60.8475C168.804 60.4842 169.306 60.1589 169.591 59.8162C169.802 60.1527 170.183 60.4823 170.197 60.827C170.263 62.4091 170.226 63.9955 170.226 65.5462C167.18 66.52 163.322 65.4501 161.746 63.2546C160.366 61.3317 160.49 58.2123 162.015 56.4811C163.346 54.9704 168.034 53.3342 169.274 53.9848C169.482 54.0941 169.569 54.4358 169.712 54.6701C169.137 54.8717 168.563 55.0732 167.806 55.2843Z" fill="#1E1E1E"/>
<path d="M128.064 61.2547C129.29 62.5934 130.405 63.8127 131.543 65.0574C130.099 65.8854 128.7 64.713 126.229 61.0804C126.943 59.3611 128.036 57.9541 127.849 56.7462C127.725 55.9521 125.754 55.4453 124.276 54.6248C123.686 58.8127 124.483 62.4488 123.768 65.8794C123.422 65.8414 123.077 65.8033 122.732 65.7652C122.732 61.9474 122.732 58.1296 122.732 53.9641C124.138 54.0602 125.567 53.9991 126.923 54.2833C129.845 54.8955 130.588 57.4838 128.623 59.7573C128.301 60.1307 128.172 60.6717 128.064 61.2547Z" fill="#1E1E1E"/>
<path d="M178.25 58.4177C179.306 59.039 180.28 59.4852 181.121 60.1098C183.069 61.5559 182.819 64.175 180.679 65.3253C178.865 66.3007 176.862 66.3036 175.043 64.9877C176.42 64.876 177.441 64.9775 178.319 64.6712C179.228 64.354 179.999 63.6411 180.831 63.1014C180.257 62.31 179.706 61.5006 179.095 60.7389C178.922 60.5229 178.575 60.4476 178.308 60.3052C175.979 59.0593 175.241 57.5381 176.142 55.839C176.956 54.3016 180.139 53.3046 181.762 54.1224C181.951 54.2176 181.985 54.6222 182.096 54.8995C176.799 56.0903 176.693 56.1826 178.25 58.4177Z" fill="#1E1E1E"/>
<path d="M109.849 56.266C109.88 55.4608 109.913 54.8724 109.944 54.3115C113.85 53.5557 116.628 54.6994 117.136 57.2066C117.71 60.0385 116.042 61.5562 111.328 62.3453C111.328 62.9735 111.43 63.6579 111.296 64.293C111.185 64.8256 110.799 65.3007 110.534 65.8012C110.305 65.2621 109.892 64.7279 109.877 64.1831C109.808 61.618 109.849 59.0499 109.849 56.266ZM115.637 57.8558C114.8 55.4795 114.024 55.0482 111.403 55.5385C111.403 57.3233 111.403 59.1156 111.403 60.9946C113.504 60.944 115.323 60.7074 115.637 57.8558Z" fill="#1E1E1E"/>
<path d="M102.143 61.7305C101.128 61.0568 100.045 60.6768 99.361 59.9312C98.57 59.069 97.5808 57.8214 97.6922 56.8586C97.8032 55.8992 99.0145 54.7503 100.022 54.2792C101.964 53.3707 103.082 53.788 103.599 55.2713C102.633 55.2713 101.686 55.0791 100.876 55.33C100.183 55.5443 99.3706 56.1665 99.1408 56.8003C98.9883 57.2209 99.6481 58.125 100.161 58.5529C100.904 59.1726 101.9 59.48 102.688 60.0575C104.762 61.5779 104.478 64.2407 102.166 65.3891C100.117 66.4074 98.1731 66.3036 97.0288 64.9103C98.2599 64.82 99.3739 64.8734 100.418 64.6283C101.789 64.3063 103.195 63.8083 102.143 61.7305Z" fill="#1E1E1E"/>
<path d="M196.022 60.576C196.983 64.2504 199.958 64.4989 203.021 65.3441C202.604 65.5784 202.186 66.0182 201.77 66.0148C198.248 65.986 195.325 64.1042 194.606 61.4955C193.927 59.0304 195.034 56.4834 197.369 55.1388C199.422 53.9569 201.768 53.7729 202.969 54.895C199.787 55.7359 196.004 55.8115 196.022 60.576Z" fill="#1E1E1E"/>
<path d="M138.058 61.1558C138.066 62.5086 138.139 63.6462 138.045 64.7697C138.014 65.1365 137.549 65.4669 137.283 65.8139C137.061 65.4992 136.65 65.1872 136.645 64.8694C136.599 61.6248 136.595 58.3789 136.656 55.1347C136.663 54.7707 137.149 54.4158 137.413 54.0566C137.638 54.4626 138.042 54.8627 138.055 55.2755C138.116 57.1601 138.067 59.0482 138.058 61.1558Z" fill="#1E1E1E"/>
</svg>
