<svg width="553" height="212" viewBox="0 0 553 212" fill="none" xmlns="http://www.w3.org/2000/svg">
<path d="M637.897 140.011C635.174 145.984 632.452 151.957 629.442 157.85C628.584 157.149 628.121 156.425 627.43 155.92C613.549 145.797 603.064 133.166 591.152 121.583C581.642 112.336 574.24 101.477 561.595 94.5742C556.357 91.7147 551.616 88.2147 546.563 84.8532C546.242 84.5971 546.008 84.4939 545.702 84.2308C545.403 83.9549 545.176 83.8389 544.926 83.6315C544.844 83.5583 544.786 83.5767 544.729 83.5952C544.815 83.6268 544.902 83.6585 545.066 83.8453C545.298 84.1988 545.512 84.3257 545.848 84.5418C546.051 84.9074 546.258 85.0425 546.571 85.3392C552.81 92.0879 558.996 98.6131 565.21 105.12C572.386 112.636 579.039 120.281 581.265 130.144C582.76 136.766 585.297 143.231 587.56 149.72C590.283 157.527 596.157 162.822 605.61 165.219C611.367 166.679 617.05 168.345 622.767 169.919C617.18 178.155 611.593 186.392 605.537 194.728C600.857 190.456 596.716 186.035 592.418 181.725C587.878 177.172 583.923 171.912 578.407 168.403C567.509 161.47 555.749 155.484 544.269 149.203C539.223 146.442 533.992 143.919 528.791 141.193C528.649 141.075 528.561 141.052 528.473 141.03C528.564 141.144 528.654 141.258 528.775 141.606C538.457 151.025 548.217 160.135 557.683 169.454C559.94 171.676 561.575 174.481 562.848 177.228C564.335 180.437 564.483 184.15 566.332 187.16C569.852 192.891 571.176 198.989 572.591 205.188C574.091 211.762 576.287 218.225 578.179 224.736C561.794 240.616 542.943 254.167 522.301 265.971C490.278 284.284 455.282 296.978 417.449 303.984C382.309 310.492 346.851 311.813 311.125 307.78C258.135 301.798 210.374 285.214 167.544 257.89C171.002 250.517 174.063 243.361 178.253 236.704C183.231 228.797 190.067 222.405 201.016 219.587C213.349 216.412 225.34 212.315 237.596 208.913C251.513 205.05 265.508 201.367 279.588 197.951C282.506 197.243 283.422 196.345 283.016 194.125C282.122 189.23 281.019 184.357 280.362 179.441C280.215 178.341 281.223 176.785 282.29 176.012C283.42 175.194 285.221 174.93 286.786 174.646C303.001 171.709 319.41 170.217 335.998 170.509C338.686 170.556 341.896 171.05 343.928 172.359C354.781 179.353 365.429 186.579 375.957 193.916C381.275 197.623 386.192 201.735 391.811 206.065C391.945 204.763 392.166 204.12 392.049 203.523C390.368 194.97 388.832 186.392 386.86 177.885C385.461 171.849 387.119 166.734 391.961 162.249C393.406 160.911 394.876 159.583 396.438 158.341C400.981 154.726 403.898 150.305 405.078 145.216C406.178 140.475 407.157 135.665 407.449 130.853C407.878 123.801 410.615 118.211 418.492 114.833C421.229 113.66 423.589 111.887 426.236 110.547C439.75 103.707 448.175 93.9327 451.485 80.9075C453.064 74.693 456.185 68.9107 461.054 63.9078C463.519 61.3757 465.885 58.7731 468.435 56.3035C473.963 50.9491 479.581 45.6597 485.153 40.3333C485.143 40.3228 485.118 40.3061 485.16 40.6015C484.789 43.1139 484.736 45.4305 483.905 47.5309C480.052 57.2712 475.998 66.9558 471.983 76.6509C470.587 80.021 469.097 83.3636 467.65 86.7188C468.027 86.8448 468.403 86.9707 468.78 87.0967C477.707 71.458 486.633 55.8193 495.56 40.1805C495.883 40.2784 496.207 40.3763 496.53 40.4742C495.703 44.4588 494.876 48.4435 494.049 52.4281C494.324 52.4985 494.599 52.5688 494.875 52.6392C502.004 40.3934 509.133 28.1476 516.757 15.0508C520.158 19.3105 523.763 22.3777 525.276 26.0507C527.716 31.9749 529.333 38.2374 530.305 44.4659C532.305 57.2848 533.611 70.179 535.278 83.0354C536.09 89.297 537.071 95.5432 537.976 101.796C538.592 100.875 538.591 99.9895 538.592 99.1039C538.596 88.8283 538.08 78.5273 538.79 68.2862C539.252 61.621 539.244 55.3179 535.874 49.1342C535.126 47.7608 535.765 45.8559 535.765 44.1957C536.193 44.0472 536.621 43.8986 537.05 43.7501C542.583 47.4328 548.896 50.5464 553.457 54.9387C559.502 60.7598 564.074 67.6438 569.49 73.9431C572.056 76.927 574.694 80.0457 578.048 82.3313C582.711 85.5096 587.966 88.1224 593.173 90.6833C598.855 93.4777 605.189 95.6373 608.846 100.483C613.722 106.944 618.36 113.554 622.602 120.32C626.982 127.305 630.965 134.444 637.897 140.011ZM239.907 244.349C240.537 243.906 241.166 243.463 242.318 243.056C242.854 242.816 243.39 242.575 243.926 242.335C243.773 242.154 243.62 241.972 243.467 241.791C242.909 242.199 242.35 242.607 241.28 243.064C240.651 243.505 240.021 243.946 239.18 244.443C239.237 244.412 239.293 244.381 239.907 244.349ZM248.568 240.04C247.88 240.113 247.191 240.185 246.043 240.347C245.873 240.676 245.703 241.004 245.534 241.333C246.453 240.992 247.371 240.651 248.568 240.04ZM243.307 275.832C243.307 275.832 238.093 272.847 237.648 273.12C236.653 274.081 235.27 277.02 234.274 277.981C234 276.257 226.146 271.502 226.329 270.069C226.484 268.863 235.102 264.656 235.102 263.436C234.626 263.444 234.15 263.453 233.674 263.461C233.038 267.289 232.402 271.116 231.765 274.943C232.256 275.12 232.746 275.297 233.236 275.474C234.993 273.631 236.749 271.788 239.245 269.939C239.087 272.477 238.929 275.014 238.77 277.552C239.188 277.695 239.606 277.838 240.024 277.981C242.978 274.979 245.933 271.977 248.887 268.975C248.505 268.685 241.595 278.755 247.35 271.764C246.137 273.798 240.589 279.671 238.052 281.933C238.172 279.65 238.985 271.116 239.265 269.392C239.076 268.618 237.648 268.714 240.073 268.036C238.998 268.854 244.204 274.855 243.307 275.832ZM206.183 256.51C206.348 256.637 206.513 256.765 206.51 257.375C205.858 259.309 205.207 261.243 204.555 263.176C205.021 263.402 205.487 263.628 205.953 263.854C209.392 261.18 212.83 258.507 216.268 255.833C215.97 255.521 215.672 255.209 215.374 254.897C231.253 257.375 211.548 265.645 209.345 267.093C209.184 265.159 189.205 260.433 189.543 258.922C189.71 258.178 205.378 252.547 205.309 251.766C204.531 252.073 207.697 252.499 207.029 252.927C205.384 253.984 203.831 255.143 202.241 256.261C202.042 256.044 201.842 255.827 201.643 255.61C202.373 253.429 203.104 251.248 203.835 249.067C203.283 248.946 206.506 263.975 205.953 263.854C204.619 267.572 199.509 256.14 198.174 259.858C198.613 260.073 199.051 260.288 199.49 260.503C201.564 259.037 203.639 257.572 206.183 256.51ZM385.487 255.211C405.871 248.743 426.292 242.355 446.621 235.766C454.389 233.249 462.297 230.706 467.929 225.164C479.685 213.596 488.464 200.371 494.36 186.212C500.102 172.425 503.509 157.948 507.781 143.739C509.639 137.56 511.097 131.296 512.736 125.07C511.123 125.732 510.252 126.674 509.451 127.657C503.908 134.455 498.351 141.246 492.851 148.068C480.794 163.025 468.712 177.969 456.748 192.978C448.959 202.748 441.22 212.631 430.272 220.102C423.002 225.064 414.867 229.168 406.915 233.385C396.793 238.752 389.608 246.079 384.703 255.284C384.764 255.26 384.826 255.236 385.487 255.211ZM465.598 121.139C457.918 124.18 451.153 128.017 447.079 134.634C443.747 140.045 439.967 145.263 436.397 150.572C432.204 156.807 428.024 163.047 423.838 169.285C424.088 169.487 424.338 169.688 424.588 169.89C425.461 169.275 426.478 168.758 427.187 168.029C436.449 158.505 445.529 148.854 454.95 139.442C460.55 133.847 467.684 130.174 476.546 129.134C480.13 128.713 483.648 127.91 487.209 127.339C494.231 126.213 498.149 123.697 499.762 116.855C502.056 107.127 507.172 97.8719 511.013 88.3948C513.374 82.5707 515.606 76.7099 517.895 70.8656C516.564 70.8909 516.048 71.2159 515.751 71.647C507.479 83.6539 499.247 95.6802 490.961 107.681C489.146 110.31 487.335 112.969 485.155 115.382C484.215 116.422 482.437 117.131 480.872 117.538C476.019 118.801 471.085 119.847 465.598 121.139ZM280.943 219.92C270.542 225.936 260.142 231.952 249.742 237.967C249.98 238.294 250.219 238.62 250.458 238.947C254.38 237.176 258.35 235.476 262.215 233.621C277.509 226.284 292.858 219.023 307.999 211.469C314.216 208.368 320.415 208.201 327.346 209.027C338.929 210.408 349.354 213.747 358.756 219.533C360.945 220.88 363.418 221.905 365.76 223.078C366.053 222.869 366.347 222.661 366.64 222.452C365.684 220.792 365.045 218.92 363.714 217.509C358.555 212.04 353.11 206.763 347.909 201.321C345.614 198.92 342.636 197.921 339.194 197.72C333.432 197.384 327.662 197.032 321.892 196.989C319.856 196.974 317.439 197.414 315.828 198.384C304.256 205.351 292.846 212.508 280.943 219.92ZM215.167 264.912C215.167 265.998 215.167 267.083 215.167 269.107C218.063 266.76 220.125 265.088 222.188 263.416C222.415 263.566 222.642 263.717 222.868 263.867C222.328 266.165 221.787 268.462 221.246 270.759C221.693 270.975 220.798 268.969 221.246 269.185C224.492 266.312 229.081 265.66 232.328 262.787C231.969 262.466 243.51 271.876 231.18 263.29C229.09 264.942 224.278 275.139 222.188 276.79C221.96 276.628 224.526 266.454 224.298 266.292C224.821 264.018 220.956 268.954 221.478 266.68C221.058 266.498 216.644 266.523 216.223 266.341C214.217 268.07 220.591 262.38 218.584 264.11C276.859 255.494 207.291 272.927 207.029 272.781C207.489 270.461 218.719 259.03 219.178 256.71C218.717 256.641 218.256 256.571 217.796 256.502C216.974 259.133 216.152 261.763 215.167 264.912ZM276.203 281.933C275.207 286.368 277.344 289.097 282.322 289.654C287.656 290.251 284.236 287.808 285.753 285.661C283.935 285.344 286.157 288.034 283.132 283.607C293.837 289.729 283.103 289.034 283.558 290.885C279.058 290.246 272.749 285.124 273.221 281.933C274.033 276.443 282.322 276.27 282.923 279.221C278.056 275.991 279.546 277.462 276.203 281.933ZM264.733 274.975C264.017 277.363 262.962 279.723 262.675 282.147C262.362 284.787 265.548 286.658 268.635 286.023C272.066 285.318 275.329 278.696 273.323 275.252C272.317 277.864 274.909 272.994 273.625 274.975C272.925 276.056 279.285 279.56 277.668 280.005C277.089 278.697 267.045 292.011 267.158 290.746C267.322 288.891 258.485 280.725 259.073 278.882C259.092 278.823 265.578 274.732 264.733 274.975ZM257.017 280.005C254.91 280.242 252.804 280.479 250.943 280.689C252.592 282.617 249.013 282.164 250.943 280.591C253.412 278.578 252.125 279.75 250.179 277.981C249.395 277.268 252.664 272.386 252.201 271.425C253.516 271.392 256.949 268.375 258.264 268.375C258.731 268.375 260.571 273.499 261.659 273.665C259.694 270.976 257.199 270.708 254.962 271.876C252.487 273.168 253.156 275.084 254.862 276.79C255.694 277.622 256.346 278.58 257.017 280.005Z" fill="#FEFEFE"/>
<path d="M637.013 139.857C628.427 134.432 623.664 127.293 618.426 120.309C613.354 113.544 607.807 106.934 601.976 100.474C597.603 95.6287 590.028 93.4693 583.233 90.6751C577.006 88.1145 570.722 85.5019 565.146 82.3239C561.135 80.0385 557.98 76.9201 554.912 73.9365C548.435 67.6377 542.968 60.7543 535.739 54.9338C530.284 50.5419 522.735 47.4286 516.118 43.7462C515.606 43.8947 515.093 44.0432 514.581 44.1918C514.581 45.8518 513.817 47.7565 514.712 49.1298C518.742 55.313 518.752 61.6155 518.199 68.2801C517.35 78.5203 517.967 88.8203 517.962 99.095C517.962 99.9805 517.962 100.866 517.225 101.787C516.144 95.5347 514.97 89.289 513.999 83.0279C512.006 70.1727 510.444 57.2796 508.052 44.4619C506.89 38.234 504.956 31.9721 502.038 26.0484C500.229 22.3757 495.918 19.3088 491.851 15.0495C482.733 28.1451 474.208 40.3898 465.683 52.6345C465.353 52.5642 465.024 52.4938 464.695 52.4234C465.684 48.4391 466.673 44.4549 467.662 40.4706C467.275 40.3727 466.889 40.2749 466.502 40.177C455.827 55.8143 445.152 71.4516 434.477 87.0889C434.027 86.9629 433.576 86.837 433.126 86.711C434.856 83.3561 436.638 80.0138 438.307 76.644C443.108 66.9499 447.957 57.2661 452.564 47.5267C453.558 45.4265 453.622 43.1101 454.172 40.5763C454.231 40.2593 454.266 40.0796 454.266 40.0796L454.068 40.3401C447.394 45.6556 440.676 50.9445 434.065 56.2984C431.016 58.7679 428.186 61.3702 425.238 63.9021C419.415 68.9046 415.683 74.6863 413.794 80.9003C409.837 93.9242 399.762 103.698 383.601 110.537C380.436 111.877 377.613 113.65 374.34 114.823C364.921 118.2 361.647 123.79 361.135 130.842C360.785 135.652 359.614 140.462 358.299 145.203C356.888 150.291 353.399 154.712 347.966 158.327C346.099 159.569 344.341 160.896 342.613 162.235C336.822 166.719 334.839 171.834 336.513 177.869C338.871 186.375 340.707 194.952 342.718 203.505C342.858 204.102 342.594 204.745 342.434 206.047C335.713 201.717 329.834 197.605 323.474 193.898C310.884 186.562 298.151 179.337 285.172 172.344C282.742 171.035 278.903 170.541 275.689 170.494C255.852 170.202 236.23 171.693 216.838 174.631C214.966 174.914 212.813 175.178 211.462 175.996C210.186 176.769 208.98 178.325 209.156 179.425C209.942 184.34 211.261 189.213 212.33 194.107C212.815 196.328 211.72 197.226 208.231 197.933C191.393 201.349 174.657 205.031 158.014 208.894C143.358 212.296 129.018 216.392 114.27 219.567C101.176 222.385 93.0016 228.776 87.0491 236.683C82.0382 243.339 78.3776 250.494 74.0519 257.681C48.3265 244.689 26.2358 228.907 6.61938 211.369C4.24231 209.244 1.9783 207.056 0 204.649C5.07759 203.858 9.80284 202.934 14.5593 202.847C27.3852 202.612 40.2248 202.684 53.0583 202.729C63.5569 202.765 74.3994 205.519 84.4377 202.129C92.0324 199.564 99.003 195.987 105.875 192.496C118.013 186.33 130.388 180.508 144.354 176.528C163.359 171.11 183.499 168.762 203.369 165.642C210.669 164.496 217.737 162.622 224.91 161.079C230.222 160.029 235.534 158.979 241.446 157.732C246.109 155.99 250.789 154.923 254.118 152.809C263.7 146.726 272.736 140.221 282.254 133.763C283.939 132.361 285.356 131.076 287.057 129.682C289.751 127.207 292.161 124.843 294.571 122.478C300.323 117.495 306.138 112.546 311.817 107.522C325.665 95.2699 342.402 86.2323 364.505 82.1921C382.821 78.8441 396.933 70.6911 409.475 60.9294C417.718 54.5137 427.117 48.8356 435.585 42.5527C443.297 36.8301 450.656 30.8562 457.793 24.7756C465.549 18.1687 472.543 11.1149 480.485 4.62611C486.525 -0.308481 488.959 -0.267502 495.274 4.6254C512.197 17.7384 529.003 30.932 545.463 44.3306C560.666 56.7057 575.465 69.3274 590.201 81.9788C593.813 85.0806 597.296 86.8451 603.513 87.402C618.254 88.7223 628.116 95.3553 633.915 104.707C637.681 110.779 640.499 117.14 644 123.524C641.942 129.023 639.626 134.369 637.013 139.857Z" fill="white"/>
<path d="M528.845 141.289C533.992 143.92 539.223 146.442 544.269 149.203C555.749 155.484 567.509 161.47 578.407 168.403C583.923 171.912 587.878 177.172 592.418 181.725C596.717 186.035 600.857 190.456 605.333 194.887C596.625 204.82 587.652 214.693 578.429 224.652C576.287 218.225 574.091 211.762 572.591 205.188C571.176 198.989 569.852 192.891 566.332 187.16C564.483 184.15 564.335 180.438 562.848 177.228C561.575 174.481 559.94 171.676 557.683 169.454C548.217 160.135 538.457 151.025 528.801 141.586C528.797 141.332 528.845 141.289 528.845 141.289Z" fill="#A7DBD3"/>
<path d="M546.65 85.0059C551.617 88.2146 556.357 91.7145 561.595 94.574C574.24 101.477 581.642 112.336 591.152 121.583C603.064 133.166 613.549 145.797 627.43 155.92C628.121 156.424 628.585 157.149 629.222 158.04C627.267 162.088 625.244 165.867 622.994 169.783C617.051 168.345 611.368 166.679 605.61 165.219C596.157 162.822 590.283 157.527 587.56 149.719C585.297 143.231 582.76 136.765 581.265 130.144C579.039 120.281 572.386 112.636 565.21 105.12C558.996 98.6129 552.81 92.0878 546.602 85.3146C546.592 85.0586 546.65 85.0059 546.65 85.0059Z" fill="#A8DBD4"/>
<path d="M384.9 255.223C389.608 246.079 396.794 238.752 406.915 233.385C414.867 229.168 423.002 225.064 430.273 220.103C441.22 212.631 448.959 202.748 456.748 192.978C468.712 177.969 480.794 163.025 492.851 148.069C498.351 141.246 503.908 134.455 509.451 127.657C510.253 126.675 511.123 125.732 512.736 125.07C511.097 131.296 509.639 137.56 507.781 143.74C503.509 157.948 500.102 172.425 494.36 186.212C488.464 200.371 479.685 213.596 467.929 225.164C462.297 230.706 454.389 233.249 446.621 235.767C426.292 242.356 405.871 248.743 385.19 255.215C384.894 255.219 384.9 255.223 384.9 255.223Z" fill="#A7DBD4"/>
<path d="M465.891 121.058C471.085 119.847 476.019 118.801 480.872 117.538C482.437 117.131 484.215 116.422 485.155 115.381C487.335 112.969 489.146 110.31 490.961 107.68C499.247 95.6801 507.479 83.6538 515.751 71.6469C516.048 71.2158 516.564 70.8907 517.895 70.8655C515.606 76.7098 513.374 82.5706 511.013 88.3947C507.172 97.8717 502.056 107.127 499.762 116.855C498.149 123.697 494.232 126.213 487.209 127.339C483.648 127.91 480.13 128.713 476.546 129.134C467.684 130.174 460.55 133.847 454.95 139.442C445.529 148.854 436.449 158.505 427.187 168.029C426.478 168.757 425.461 169.275 424.588 169.89C424.338 169.688 424.088 169.487 423.838 169.285C428.024 163.047 432.205 156.807 436.397 150.572C439.967 145.263 443.747 140.045 447.079 134.633C451.153 128.017 457.918 124.18 465.891 121.058Z" fill="#A9DCD4"/>
<path d="M281.163 219.762C292.846 212.508 304.256 205.35 315.828 198.383C317.439 197.414 319.856 196.974 321.892 196.989C327.662 197.032 333.432 197.384 339.194 197.72C342.636 197.921 345.614 198.92 347.909 201.321C353.11 206.762 358.555 212.04 363.714 217.509C365.045 218.92 365.683 220.792 366.64 222.452C366.347 222.66 366.053 222.869 365.76 223.078C363.417 221.905 360.945 220.88 358.756 219.533C349.354 213.747 338.929 210.408 327.346 209.027C320.415 208.201 314.216 208.368 307.999 211.469C292.858 219.023 277.509 226.284 262.215 233.621C258.35 235.476 254.38 237.176 250.458 238.947C250.219 238.62 249.98 238.294 249.741 237.967C260.142 231.952 270.542 225.936 281.163 219.762Z" fill="#A9DBD4"/>
</svg>
