<svg width="113" height="23" viewBox="0 0 113 23" fill="none" xmlns="http://www.w3.org/2000/svg">
<path d="M9.48719 5.96482C10.0859 4.1222 12.6927 4.1222 13.2914 5.96482L13.4973 6.59857C13.7651 7.42262 14.533 7.98054 15.3995 7.98054H16.0658C18.0033 7.98054 18.8088 10.4598 17.2414 11.5986L16.7023 11.9902C16.0013 12.4995 15.708 13.4023 15.9757 14.2263L16.1817 14.8601C16.7804 16.7027 14.6714 18.2349 13.104 17.0961L12.5649 16.7045C11.8639 16.1952 10.9147 16.1952 10.2137 16.7045L9.67464 17.0961C8.10721 18.2349 5.99825 16.7027 6.59695 14.8601L6.80287 14.2263C7.07062 13.4023 6.7773 12.4995 6.07633 11.9902L5.53723 11.5986C3.9698 10.4598 4.77535 7.98054 6.7128 7.98054H7.37916C8.24562 7.98054 9.01353 7.42262 9.28128 6.59857L9.48719 5.96482Z" fill="#FFC226"/>
<path d="M32.0388 6.093C32.6304 4.23573 35.2584 4.23573 35.8501 6.093L36.0076 6.58758C36.2719 7.41721 37.0426 7.98054 37.9133 7.98054H38.506C40.4339 7.98054 41.2457 10.4396 39.6968 11.5874L39.1496 11.993C38.4625 12.5022 38.1752 13.3919 38.4347 14.2069L38.6276 14.8123C39.2168 16.662 37.0908 18.182 35.5312 17.0262L35.1352 16.7328C34.4279 16.2086 33.461 16.2086 32.7536 16.7328L32.3577 17.0262C30.7981 18.182 28.6721 16.662 29.2612 14.8123L29.4541 14.2069C29.7137 13.3919 29.4264 12.5022 28.7393 11.993L28.192 11.5874C26.6431 10.4396 27.455 7.98054 29.3828 7.98054H29.9756C30.8463 7.98054 31.617 7.41721 31.8812 6.58758L32.0388 6.093Z" fill="#FFC226"/>
<path d="M54.5978 5.96482C55.1965 4.1222 57.8033 4.1222 58.402 5.96482L58.6079 6.59857C58.8757 7.42262 59.6436 7.98054 60.51 7.98054H61.1764C63.1139 7.98054 63.9194 10.4598 62.352 11.5986L61.8129 11.9902C61.1119 12.4995 60.8186 13.4023 61.0863 14.2263L61.2923 14.8601C61.891 16.7027 59.782 18.2349 58.2146 17.0961L57.6755 16.7045C56.9745 16.1952 56.0253 16.1952 55.3243 16.7045L54.7852 17.0961C53.2178 18.2349 51.1088 16.7027 51.7075 14.8601L51.9135 14.2263C52.1812 13.4023 51.8879 12.4995 51.1869 11.9902L50.6478 11.5986C49.0804 10.4598 49.8859 7.98054 51.8234 7.98054H52.4898C53.3562 7.98054 54.1241 7.42262 54.3919 6.59857L54.5978 5.96482Z" fill="#FFC226"/>
<path d="M77.1496 6.093C77.7412 4.23573 80.3692 4.23573 80.9609 6.093L81.1184 6.58758C81.3827 7.41721 82.1533 7.98054 83.0241 7.98054H83.6168C85.5447 7.98054 86.3565 10.4396 84.8076 11.5874L84.2604 11.993C83.5732 12.5022 83.2859 13.3919 83.5455 14.2069L83.7384 14.8123C84.3276 16.662 82.2016 18.182 80.6419 17.0262L80.246 16.7328C79.5387 16.2086 78.5717 16.2086 77.8644 16.7328L77.4685 17.0262C75.9089 18.182 73.7828 16.662 74.372 14.8123L74.5649 14.2069C74.8245 13.3919 74.5372 12.5022 73.8501 11.993L73.3028 11.5874C71.7539 10.4396 72.5658 7.98054 74.4936 7.98054H75.0864C75.9571 7.98054 76.7277 7.41721 76.992 6.58758L77.1496 6.093Z" fill="#FFC226"/>
<path d="M100.184 6.11933C100.633 4.73736 102.588 4.73736 103.037 6.11933L103.243 6.75308C103.578 7.78313 104.538 8.48054 105.621 8.48054H106.287C107.74 8.48054 108.344 10.34 107.169 11.1941L106.63 11.5857C105.754 12.2224 105.387 13.3508 105.722 14.3808L105.928 15.0146C106.377 16.3965 104.795 17.5457 103.619 16.6916L103.08 16.2999C102.204 15.6633 101.017 15.6633 100.141 16.2999L99.6022 16.6916C98.4266 17.5457 96.8449 16.3965 97.2939 15.0146L97.4998 14.3808C97.8345 13.3508 97.4679 12.2224 96.5917 11.5857L96.0526 11.1941C94.877 10.34 95.4812 8.48054 96.9342 8.48054H97.6006C98.6837 8.48054 99.6436 7.78314 99.9782 6.75308L100.184 6.11933Z" stroke="#FFC226"/>
<mask id="mask0_2180_134" style="mask-type:alpha" maskUnits="userSpaceOnUse" x="94" y="4" width="15" height="14">
<path d="M99.7086 5.96482C100.307 4.1222 102.914 4.1222 103.513 5.96482L103.719 6.59857C103.987 7.42262 104.754 7.98054 105.621 7.98054H106.287C108.225 7.98054 109.03 10.4598 107.463 11.5986L106.924 11.9902C106.223 12.4995 105.929 13.4023 106.197 14.2263L106.403 14.8601C107.002 16.7027 104.893 18.2349 103.325 17.0961L102.786 16.7045C102.085 16.1952 101.136 16.1952 100.435 16.7045L99.8961 17.0961C98.3286 18.2349 96.2197 16.7027 96.8184 14.8601L97.0243 14.2263C97.2921 13.4023 96.9987 12.4995 96.2978 11.9902L95.7587 11.5986C94.1912 10.4598 94.9968 7.98054 96.9342 7.98054H97.6006C98.4671 7.98054 99.235 7.42262 99.5027 6.59857L99.7086 5.96482Z" fill="#FFC226"/>
</mask>
<g mask="url(#mask0_2180_134)">
<rect x="91.8631" y="0.923584" width="9.75538" height="20.3237" fill="#FFC226"/>
</g>
</svg>
