<svg width="26" height="17" viewBox="0 0 26 17" fill="none" xmlns="http://www.w3.org/2000/svg">
<path fill-rule="evenodd" clip-rule="evenodd" d="M18.8513 16.6561L18.6616 16.9492L18.3676 16.7696L15.8545 15.2376L15.5463 15.0485L15.7407 14.7459L16.5231 13.5166C17.1868 12.5001 17.9458 11.5486 18.7897 10.675H0.330078V7.1809H18.6521C17.8294 6.29991 17.1044 5.33292 16.4899 4.29674L15.7549 3.03905L15.5748 2.727L15.8877 2.55206L18.4577 1.11943L18.7612 0.949219L18.9366 1.25182L19.6716 2.50477C20.4984 3.85871 21.5374 5.07186 22.749 6.09815C23.2516 6.53314 23.6973 6.87357 24.015 7.10052C24.1715 7.21399 24.2995 7.29437 24.3802 7.35111L24.4655 7.40785L24.4845 7.42203C24.7358 7.57792 24.9445 7.79343 25.0919 8.04933C25.2393 8.30523 25.3209 8.59354 25.3293 8.88854C25.3378 9.18353 25.2729 9.47603 25.1403 9.7399C25.0078 10.0038 24.8118 10.2308 24.5698 10.4008L24.5461 10.4149L24.4513 10.4859L24.0719 10.7695C23.7495 11.0249 23.2896 11.3984 22.7727 11.8665C21.7295 12.8074 20.5014 14.0651 19.6337 15.4315L18.8513 16.6561Z" fill="white"/>
</svg>
