<?xml version="1.0" standalone="no"?>
<!DOCTYPE svg PUBLIC "-//W3C//DTD SVG 1.1//EN" "http://www.w3.org/Graphics/SVG/1.1/DTD/svg11.dtd">
<svg xmlns="http://www.w3.org/2000/svg">
<metadata>Generated by Fontastic.me</metadata>
<defs>
<font id="teacher-tutors" horiz-adv-x="512">
<font-face font-family="teacher-tutors" units-per-em="512" ascent="480" descent="-32"/>
<missing-glyph horiz-adv-x="512" />

<glyph glyph-name="logo" unicode="&#97;" d="M290 236l-14 11c-1 1-3 6-2 8 1 0 2 1 3 1 13 2 25 3 38 5 2 0 5 0 7-1 9-6 18-13 26-20 3-2 5-5 4-9 0-2-1-3-3-3-4 0-7-1-11-1-1 0-2-2-2-2-1-5-2-10-2-16 0 0 0-1 1-2 5-12 5-25-2-37-12-19-38-22-53-5-4 5-7 10-8 16-3 14 0 27 10 37 1 1 1 2 1 3-1 2 0 4 1 6 2 3 4 6 6 9z m35-28c-1-4-3-8-4-11 3 2 4 6 5 10 0 0-1 0-1 1 0 1 1 3 1 5l0 0c-3-5-5-9-8-13l1-1z m-4-16c-5-9-11-18-16-20 0 1 1 2 2 3 3 4 5 8 8 12 0 1 0 2 0 2-1 0-2 0-2 0-1-2-2-4-3-5-1-2-2-4-3-6l0 1 4 12c-7-7-12-15-15-24 1 11 4 22 14 30l-1 0-7-2c0 0 0 0 0 0 6 2 10 6 15 10 5 4 7 10 11 14 0 0 0 1 0 1 0 3 1 7 1 10 0 1-1 2-1 2-3 4-6 7-9 10-2 1-2 2-2 4 1 1 1 2 0 3-1 1-2 2-3 2-1 0-2 0-3-1 0-1-1-2-1-3 0-2 2-4 4-4 1 0 2 0 2 0 4-4 7-8 11-12-5-1-10-2-15-2-3-1-6 0-8 2-5 4-10 8-15 12-4 3-8 6-12 9l-1-1c0-1 1-2 2-3 9-7 18-15 27-22 1 0 3-1 4-1 5 1 10 1 15 2 1 0 2 0 3 0 0-6-3-13-9-18-5-6-10-6-17-3-3 2-5 3-8 5-1 1-2 1-3 2-1-1-1-2-2-3-5-13-5-26 0-38 3-7 8-12 16-12 8 1 14 5 17 12 3 7 4 14 3 22 0 0 0 0-1 1 1 0 1 1 1 2l-8-6 1-1z m29 42c-6-1-12-2-18-3-2 0-3-1-2-3 6 0 12 1 18 2 3 0 3 1 2 4z m-50-54c5 7 10 13 15 18-7-4-12-9-15-18z m14 2c2 2 4 4 4 7l-1 1c-1-3-2-5-3-8z m-3 17c0 0 0-1 1-1l8 7-1 1z m0-10l1 0c2 2 4 5 6 7l-1 1c-2-3-4-5-6-8z m-280 162c-4 0-8 0-12-1-2 0-3-1-4-2-3-4-6-8-8-13-1-3-3-3-5-3-3 1-2 3-2 4 0 7 0 13 0 19 0 2 1 3 2 3 25 0 50 0 74 0 1 0 1 0 1 0 0-8 0-16 0-24 0-1-1-2-2-2-1 1-3-1-4 2-2 4-5 9-7 13-2 3-5 4-8 4-2 0-5 0-7 0-2 0-3-1-3-3 0-9 0-18 0-28 0-12 0-24 0-36 0-4 1-6 6-7 2 0 5-1 8-1l0-6c-1 0-2 0-3 0-12 0-24 0-37 0-1 0-3 0-3 2 0 2 0 4 3 4 3 0 5 0 7 1 3 1 4 2 4 5 0 23 0 45 0 68 0 0 0 1 0 1z m18-130c2 4 5 8 8 12 1 1 2 2 4 2 3 1 6 0 9 1 2 0 3-1 3-3 0-6 0-12 0-18 0-15 0-31 0-47 0-5-2-6-6-7-2 0-4 0-6 0-3-1-2-3-2-4 0-2 0-3 2-3 13 0 25 0 38 0 2 0 3 1 2 2 0 2 2 4-1 5-2 0-4 0-6 1-6 1-6 2-6 7 0 19 0 39 0 58 0 3 0 5 0 8 3 0 6 0 9 0 3 1 6-1 8-3 3-4 5-8 7-13 1-3 3-2 5-2 2 0 2 2 2 3 0 7 0 13 0 19 0 3-1 4-4 4-23-1-47-1-70-1-1 0-2 0-3 0l0-25c5-1 5 0 7 4z m273 49c1 0 1 1 1 1 1 2 1 4-2 4-5 1-6 2-6 7 0 6 0 12 0 18 0 2 0 3 2 3 9 0 17 0 25 0 2 0 3-1 3-3-1-7-1-13-1-20 0-3-1-4-3-5-1 0-2 0-3 0-2 0-3-1-3-2 0-1 1-2 1-3 9 0 19 0 28 0 1 0 1 0 2 1 0 2-1 4-3 4-6 1-6 2-6 7 0 15 0 29 0 43 0 7 0 8 7 9 2 0 2 2 2 3 0 2-2 2-3 2-7 0-15 0-22 0l-5 0c-1-5-1-5 3-6 5-1 5-2 5-6 0-5 0-10 0-15 1-2 0-3-2-3-8 0-17 0-25 0-2 0-2 1-2 3 0 5 0 10 0 16 0 4 0 5 5 6 4 0 4 0 3 5l-29 0c-1-4-1-5 3-6 4 0 5-2 5-5 0-16 0-32 0-48 0-3-1-4-3-5-1 0-2 0-3 0-2 0-3-1-3-2 0-1 0-2 0-3 10 0 20 0 29 0z m74-78c8 3 11 9 11 17-1 7-4 12-11 15-2 0-4 1-6 1-12 0-24 0-36 0 0 0-1 0-2-1 0-1 0-2 0-4 2 0 3 0 4 0 5-1 5-2 5-7 0-11 0-21 0-32 0-5 0-10 0-15 0-2-1-4-4-4-1 0-3-1-4-1-1-5-1-5 4-5l26 0 0 5c-2 0-3 0-5 1-4 0-5 1-5 5 0 5 0 11 0 16 0 3 2 5 5 3 1 0 2-1 3-2 6-9 12-17 18-26 1-1 2-2 3-2 5 0 11 0 16 0 1 0 2 1 2 2 0 1 0 2 0 3-4 0-8 1-11 5-6 7-12 15-18 23 2 1 4 2 5 3z m-23 25c0 2 1 3 3 3 3-1 6-1 9-1 3-1 6-3 7-7 3-8-1-19-13-19-6 0-5-1-5 5-1 2 0 5 0 8-1 4 0 7-1 11z m75 116c5 0 5-1 5-6 0-9 0-18 0-27 0-7 0-13 0-20 0-3-1-4-4-5-1 0-2 0-2 0-3 0-3-2-3-3 0-3 2-2 3-2 8 0 17 0 25 0 1 0 2 0 3 0l0 5c-2 0-4 0-6 0-2 1-4 2-4 5 0 6 0 12 0 18 0 1 1 2 1 2 2 0 5 1 6-2 5-7 11-14 16-22 3-5 6-7 12-7 4 1 8 1 12 1 0 5 0 4-4 5-2 1-5 3-7 5-6 7-11 14-17 22 0 0 0 1 1 2 0 0 1 1 2 1 11 4 15 16 9 26-3 5-9 8-15 8-12 0-24 0-36 0 0 0 0 0 0 0-1-5-1-5 3-6z m24 0c8 0 13-4 13-12 0-8-5-14-13-15-8 0-7-1-7 6 0 6 0 12 0 18 0 3 1 4 4 3 0 0 1 0 1 0z m-384 6c-1-5-1-5 4-6 5-1 6-2 6-6 0-15 0-30 0-45 0-5-1-6-6-7-5 0-5-1-4-5l3 0c18 0 35 0 52-1 3 0 3 2 3 4 1 5 1 10 1 16 0 1 0 2-1 2-1 1-3 1-4-1-1-3-3-6-4-8-2-2-4-5-6-5-6-1-12-1-18-1-3 0-4 2-4 4 0 7 0 14 0 21 0 0 1 1 2 2 2 0 4 0 7 0 3-1 5-2 6-5 1-2 1-4 1-6 1-2 3-1 4-1 2 0 2 1 2 2 0 8 0 16 0 25 0 0-1 1-1 2-3 1-4-1-5-3-1-3-1-7-5-8-3-1-7 0-11-1 0 9 0 16 0 24 0 0 1 1 2 1 5 0 9 0 14 0 2 0 4-1 5-2 2-2 4-4 5-7 2-3 2-4 6-2l0 17z m326-22c-1-7-3-8-10-8-1 0-2 0-4 0-2-1-2 0-2 2 0 7 0 13 0 20 0 2 1 3 2 2 4 0 7 0 10 0 7 1 10-2 13-7 1-1 1-2 2-4 0-2 2-1 4-1 0 0 1 2 1 3 0 4 0 8 0 12 1 3 0 3-3 3-12 0-23 0-35 0-4 0-9 0-14 0 0 0-2 0-2-1-1-2 0-4 3-4 1-1 2-1 3-1 3-1 4-2 4-5 0-16 0-32 0-48 0-3-2-4-4-4-2-1-4-1-6-1 0-5 0-5 3-5 17 0 35 0 53 0 2 0 2 0 2 2 1 6 1 12 1 17 0 1 0 2 0 2-1 1-4 0-5-1-2-4-4-8-6-11-1-1-3-2-5-3-5 0-10 0-15 0-5 0-6 1-6 6 0 4 0 9 0 14 0 7 0 7 7 7 5 0 7-2 9-7 0-1 0-2 0-3 1-3 3-2 4-2 2 0 2 1 2 3 0 7 0 15 0 23 0 2 0 3-2 3-1 0-2 0-3 0 0-2-1-2-1-3z m-243-97c8-2 9-2 9-11 1-10 1-20 1-30 0-11-6-17-18-17-9 0-15 5-15 14 0 12 0 24 0 36 0 7 0 7 7 8 2 0 2 2 2 4 0 2-2 2-3 2-8 0-16-1-24 0-3 0-3-1-3-4 0-2 1-2 3-2 5-2 6-2 6-8 0-13 0-26 0-39 0-5 2-9 6-12 8-7 17-8 27-6 11 2 19 11 18 24 0 8 0 17 0 25 0 4 1 7 1 10 0 3 2 4 4 5 2 1 4 1 6 1 0 1 0 3 0 4 0 1 0 2-2 2-8 0-17 0-25 0-2 0-2-1-2-3 0 0 0-1 0-3 1 0 1 0 2 0z m299 3c0 1-1 2-1 2-2 0-4 1-5 0-1-2-2-2-4-1-1 1-2 1-3 1-9 3-18 2-25-4-8-8-8-25 6-31 5-3 10-5 16-7 5-2 9-8 7-14 0-5-3-7-7-8-7-1-13 1-17 6-3 4-5 8-6 12-1 3-3 2-5 2 0 0-1-2-1-3 0-6 0-13 0-20 0-1 1-2 1-2 2 0 4-1 6 1 0 1 1 1 2 1 1 0 2-1 3-1 11-4 20-4 29 4 10 8 10 25-3 32-3 2-7 3-11 5-4 1-7 3-11 5-3 3-4 7-3 11 1 4 3 6 7 6 6 2 11 0 14-5 2-4 3-8 5-12 0-1 1-2 3-2 1 0 2 0 3 0 0 8 0 15 0 22z m-293 52c-2 0-4 1-7 1-2 1-3 2-2 4 1 4 2 8 4 11 0 1 1 2 2 2 6 0 12 0 18 0 2 0 3-1 3-2 1-3 2-5 3-8 2-6 4-7-5-8 0 0-1-1-1-2-1-1 0-2 0-3l29 0 0 5c-5 0-9 3-10 8-1 1-1 3-2 4-6 17-13 34-19 51-1 2-2 2-4 2-1 0-2 0-3-2-7-17-14-35-21-52-2-6-5-11-12-11l0-5 27 0z m-2 24c2 8 5 15 8 22l1 0c2-7 5-14 8-22z m71-138c-1 1-3 1-4 1-3 1-4 2-4 5 0 5 0 10 0 15 0 11 0 23 0 35 0 1 0 2 1 2 3 2 11 0 12-3 3-3 4-6 6-9 1-3 3-2 4-2 1 0 1 1 1 2 1 6 1 12 1 18-2 0-3 1-4 1-12 0-23 0-35 0-6 0-13 0-20 0-2 0-3-1-2-3 0-5 0-11 0-16 0-1 0-2 1-2 2 0 3 0 4 2 4 11 7 13 16 13 2 0 3-1 3-3 0-17 0-34 0-51 0-3-1-4-4-4-2-1-5-1-7-1 0-5 0-5 5-5l25 0c4 0 4 0 4 4 0 0 0 1 0 1z m34 127c-4-7-9-12-17-13-8 0-14 3-18 10-8 11-7 32 1 42 6 9 20 12 27-1 2-3 3-7 4-11 1-3 3-2 5-2 0 0 1 2 1 3 0 7 0 14 0 21 0 0-1 2-1 2-2 0-4 0-5-1-1-1-2-1-4 0-15 7-32 1-41-13-5-8-6-17-6-26 2-19 17-34 37-31 11 2 19 9 23 20l-5 3c-1-1-1-2-1-3z m34-39c-2 0-2-1-2-2 0 0 0-1 1-1 0 0 0-1 1-1 1 0 2 0 2 2 0 2-2 2-2 2z m34-9c-8 7-17 14-26 20-2 1-5 1-7 1-8-1-17-2-26-3l-2-1-1 0-6-1-1 0 0 0-2 0-1 0 0 0c0 0-1-1-2-1 0 0 0 0 0-1 0 0 0-1 0-2 0 0 0 0 0 0 0-2 1-4 2-5l4-4c2 0 3-1 4-2l6-5 0 0 0 0c-1-2-3-4-4-6l-2-3c0 0 0-1 0-1-1-1-1-3-1-5 0 0 0 0 0 0 0 0 0 0 0 0 0-1 0-1 1-1 1-3 2-4 4-5 1-1 2-1 2-2l0 0c1 0 1-1 2-1 2-2 4-3 6-4 4-3 8-4 13-4l0 0c3 1 5 2 7 5 1 0 1 0 1 0l0 0 1 1c0 1 1 1 1 2l1 0c0 0 0 0 0 0 0 1 0 1 1 2 0 1 1 2 2 3 1 2 2 5 2 8 0 0 0 1 0 2l-4 0c-4-1-9-1-14-2-1 0-3 1-4 1-9 7-18 15-27 22-1 1-2 2-2 3l0 0 1 1c2-1 3-3 5-4l7-5c5-4 10-8 15-12 1-1 2-1 3-2 1 0 2 0 4 0 1 0 2 0 3 0l9 1c1 0 3 1 4 1l0 0c-4 4-7 8-11 12 0 0-1 0-1 0 0 0-1 0-1 0-2 0-4 2-4 4 0 1 1 2 1 3 1 1 2 1 3 1 1 0 2-1 3-2 1-1 1-2 0-3 0-1 0-1 0-2 2 1 3-1 4-1 3-4 6-8 9-11 0 0 0-1 0-1l19 3c1 0 1 0 1 0l0 0c0-1 0-1 0-1 0 0 0 0 0 0l0-1c0 0 0 0 0-1l0 0c0 0 0-1 0-1-1 0-1 0-2 0-6-1-12-1-18-2 0-3 0-6 0-10 0-1 0-3 0-5-1-3 0-4 3-3 0 0 1 0 1 0 0 3 0 6 1 8 0 2 0 4 0 5 0 0 0 1 1 2 0 0 0 1 1 1 0 1 1 1 2 1l1 0c2 0 4 1 7 1 1 0 2 0 3 0 1 0 1 0 1 1 1 0 1 1 1 2 1 4-1 7-4 9z"/>
<glyph glyph-name="arrow" unicode="&#98;" d="M512 249l-66 66 0-52-446 0 0-14 446 0 0-52z"/>
<glyph glyph-name="private-pre-school" unicode="&#99;" d="M149 175c13 0 25 0 37 0 3 0 6-1 7-4 15-20 39-33 64-33 25 0 49 12 64 32 2 3 6 5 9 5 24 0 48 0 73 0 2 0 5 1 5-3 0-4-3-4-6-4-11 0-22 0-33 0-6 2-12-2-15-7-5-11-6-11-17-7-5 1-9 3-13-2-2-3-3-6-2-9 5-15 5-15-9-23-14-7-10-7-19 3-4 4-7 7-14 4-2-1-4-2-4-5-2-3-2-6-3-10 0-4-3-6-7-6-6 0-12 0-18 0-3 0-5 1-5 4 0 4-2 7-2 10-1 5-4 7-9 8-2 1-5 0-7-2-1-2-3-3-5-5-6-7-4-8-15-2-4 2-9 5-13 8-1 1-2 3-1 5 0 3 1 6 2 9 1 2 2 4 1 7-1 2-2 4-4 5-2 1-4 2-7 2-3-1-7-2-11-3-1-1-3-1-4-1-2 1-3 2-4 4-1 3-4 6-5 9-2 3-4 5-7 4-12 0-25 0-37 0-1 0-3 0-4 0-2 1-3 3-4 4 1 1 3 2 4 2 13 1 26 1 38 1z m233 162c7 0 15 0 22 0 2 0 3 2 5 3-2 1-3 2-5 3-1 1-2 0-3 0-11 0-21 1-32 0-6-1-13 3-15 9-6 11-5 9-16 6-1 0-3 0-4-1-5-3-8 1-11 4-3 3-2 5-1 8 4 16 4 16-11 23l0 1c-9 4-9 4-16-3-1-1-2-2-3-3-2-4-7-5-11-3-3 1-5 3-6 6-1 4-1 7-2 10 0 2-1 3-2 4-1 1-3 2-4 2l-19 0c-1 0-3 0-4-1-1-1-1-3-1-4-1-4-2-8-3-12-1-1-2-3-3-4-7-3-9-3-14 3-2 2-4 4-6 6-1 2-2 2-3 2-2 1-3 0-4 0-5-4-11-7-16-9-2-1-3-2-4-4 0-2 0-4 1-5 1-4 2-7 3-10 0-3-1-6-3-9-2-2-5-3-8-2-4 1-8 2-13 3-1 0-3 0-5-2-2-3-4-7-6-11-1-2-4-4-7-4-13 0-26 0-39 0-3 0-6 1-6-3 0-4 3-3 6-3 24 0 48 0 72 0 4 0 7 2 9 5 21 25 47 36 80 30 19-4 36-15 48-31 1-2 4-4 7-4 13 0 25 0 37 0z m-323-58c7 8 7 17 4 27-2 8-9 13-17 13-12 1-25 0-37-1-6 0-8-3-8-9 0-13 0-26 0-38 0-11 0-23 1-34 0-2 0-6 4-6 16 1 33 2 49 3 7 1 12 6 13 13 2 12-1 22-13 29 2 1 3 2 4 3z m-38-11c7-1 14-1 21-2 5 0 6-4 7-8 0-2-1-4-2-5-1-2-3-3-5-3-7-1-13-1-21-2z m1 33c5 0 11 1 17 0 5 0 7-4 7-9 0-2 0-4-1-5-2-2-4-3-6-3-5-1-10-2-17-3z m284-62c3-6 10-8 16-5 1 0 2 1 3 2 0 1 0 2 0 3-1 24-2 48-3 72-1 7-2 9-10 9-7 0-8-2-8-9 0-3 0-6 0-9 0-8 0-16 0-25 0 1-1 2-2 3-8 11-16 22-24 34-3 5-9 7-15 5-6-2-4-7-4-11 1-23 2-46 3-69 0-2 1-4 3-5 5 0 9-1 14 0 1 0 2 2 2 3 0 5 0 10 0 15 0 8 0 16 0 25 9-13 17-25 25-38z m-166 45c1 5 1 10 0 15-1 12-6 19-17 20-13 1-27 0-40-1-2 0-4-1-5-3-2-1-2-3-2-6 1-22 1-45 1-68 0-5 3-7 7-8 3 0 6 0 9 0 1 0 3 1 4 2 0 1 1 2 0 4 0 6 0 11 0 17 1 2 1 4 2 5 2 0 5-1 6-2 6-7 12-14 17-22 3-4 8-6 13-4 3 1 6 4 8 7 1 1-2 4-3 6-5 7-12 13-17 20 13 6 16 9 17 18z m-43 17c7 0 12 1 18 0 5 0 7-4 7-8 1-4-1-8-5-9-6-2-13-4-20-5z m122-65c-3-1-5-1-8-2-3 0-5 0-7 2-2 1-3 3-4 5 0 2-1 4-2 6-1 1-3 2-5 3 0 0-2 0-3 0-10 0-15-4-15-15-1-1-2-2-3-3-4 0-9 1-13 1-4 1-5 3-4 8 6 24 12 48 18 72 2 8 7 11 14 9 3-1 6-3 7-5 10-25 19-50 29-75 1-4 0-5-4-6z m-27 31c-2 7-4 14-6 20l-1 0c-2-7-3-14-5-21z m198-29c2 10 2 10 12 11l2 0c8 1 8 1 11-6 3-8 5-10 13-9 2 1 4 1 6 2 3 1 4 3 3 6-10 25-19 50-29 75-2 5-6 6-10 5-5 1-9-2-10-7-6-24-12-48-18-72-2-8 0-10 8-11 1 0 3 0 4 0 7 0 7 0 8 6z m16 29l-11-1 4 21 2 0z m55 50c0 1-3 3-4 3-4-1-7-2-10-4-4-2-5-6-2-9 6-8 10-16 15-23 2-3 2-6 0-8-5-8-9-17-14-25-4-7-3-10 3-14 2-2 5-3 7-4 3-1 5-1 7 3 3 8 7 16 12 25 5-8 10-16 16-24 5-7 6-7 13-3 2 1 3 2 5 3 1 1 2 3 2 4 0 2 0 4-1 5-8 10-15 21-22 31-2 2-2 5 0 7 4 7 7 13 11 19 4 8 4 9-4 13-2 1-4 2-6 3-3 1-5 0-6-3-3-6-6-12-9-18-5 7-8 13-12 19z m-144-142c-6 0-11 0-16 0-4 0-7-1-9-3-20-15-48-15-68-1-9 7-18 3-27 4 10-18 38-32 61-31 23 0 45 11 60 29z m-69 192c-21-2-39-13-51-30 8 0 15 0 22 0 1 1 2 1 3 2 21 16 50 17 70 1 1-2 3-2 4-3 7 0 14 0 22 0-16 23-43 34-70 30z m88-90c0-13 0-25 0-37 0-5 1-6 5-7 2 0 3 0 4 0 9-2 12 1 11 9 0 21 0 43-1 64 0 13-2 15-16 14-3 0-4-2-4-5 0-13 0-26 0-38z m-108 36c1-23 1-46 1-69 0-10 1-11 11-11 8-1 11 1 10 9-1 22-1 43-2 64 0 14-2 15-16 14l-4-1z m167-107c-1 4-2 7-4 11-1 1-3 2-5 2-1 0-3-2-3-4 0-7 0-14 0-21 0-6 1-6 7-5l0 14c2-4 4-8 5-12 1-1 4-2 6-2 0 0 2 2 2 3 0 8 0 16 0 24 0 1-2 2-3 4-1-2-3-3-3-4-1-3-1-6 0-10z m-329-4c1-3 2-7 4-11 2-1 4-2 6-2 0 0 2 2 2 4 0 7 0 15 0 23 0 3-1 4-4 3-1 0-2-1-3-3 0-3 0-6 0-10-2 4-3 7-5 10-1 2-4 3-5 4-1-2-3-3-3-5 0-7 0-14 0-21 0-6 0-6 7-5l0 13z m31 4c-1 3-3 7-4 10 0 2-1 3-2 3-1 1-2 1-4 0-1-1-2-2-2-4 0-7 0-14 0-21 0-6 1-6 7-5l0 14c2-3 3-6 4-10 1-4 4-6 9-4 0 9 0 18 0 28 0 1-2 2-3 3-1-2-3-3-3-4 0-3 0-6 0-10z m280-10c-1 5-1 10-1 14 2 6-1 9-7 9-3 0-6 0-9 0-3 0-4-1-3-3 0-8 0-16 0-24 0-2 0-4 3-4 3 0 4 2 4 5 0 2 0 5 0 8 9-1 3-9 7-13l6 0c0 4 0 6 0 8z m-8 14c0-2-3-3-5-4l0 8c4 0 6-1 5-4z m68-5c-2 4-4 7-5 11-1 4-3 4-5 3-1 0-2-2-2-4 0-7 0-15 0-22 0-5 2-6 6-4l0 14c2-3 4-6 5-10 1-4 3-6 7-4l0 30c-4 1-6 0-5-4 0-3 0-7 0-10z m-306 9c-1 5-5 6-10 6-5 0-8-2-8-7 0-5 0-11 0-17 1-6 3-8 9-9 3 0 5 1 7 3 2 1 3 3 3 6 0 3 1 5 1 8-1 3-1 7-2 10z m-12-3c0 1 2 3 3 3 1 0 3-2 3-3 0-4 0-9 0-14 0-1-2-2-3-3-1 1-3 2-3 3 0 3 0 5 0 7l0 0c0 3 0 5 0 7z m344-11c1-1 1-2 1-4 0-1-2-2-2-2-1 1-3 2-3 3-1 5-1 9 0 14 0 1 1 3 3 3 1 1 2-1 2-2 1-4 4-4 7-3 1 7-1 10-7 11-7 1-12-1-12-8-1-6 0-12 0-19 1-5 5-6 9-6 3 1 6 1 10 2l0 17-11 0c1-3 2-4 3-6z m-234-13c3 2 8 2 8 4 3 9 5 18 7 27-7 2-7 2-8-4-1-4-2-8-3-12-1 4-2 8-3 12-1 6-1 6-8 4z m-85 3c0-1 3-1 5-1 2 0 3 0 4 2 2 9 4 18 5 28-6 1-7 1-8-5 0-4-1-8-2-12-2 4-3 8-3 12 0 6-3 6-8 5 2-10 4-19 7-29z m118-2c2 0 4 0 4 4 0 3-2 3-5 3-5 0-6 1-4 7l8 0c1 9-6 4-9 7-1 5 3 4 6 4 1 0 2 2 4 3-2 1-3 3-4 3-3 1-7 1-10 0-2 0-3-1-3-3 0-9 0-18 0-28z m59 25c2 1 3 2 4 3 1 3-1 4-3 4-3 0-7 0-10 0-1 0-3-2-3-3 0-8 0-17 0-25 0-1 1-3 2-3 5-1 9 0 14 0 0 2 1 4 0 5-3 1-6 1-9 2l0 6 8 0 0 5-8 1c0 5 0 5 5 5z m-120 0c1 1 3 3 4 4-2 1-3 2-4 2-4 1-9 1-13 0-1 0-3-1-3-2 1-2 1-3 3-4 0 0 2 0 3 0 0-7 0-14 0-20 0-4 1-5 4-5 3 0 4 2 4 5 0 6 0 13 0 20 1 0 1 0 2 0z m92 3c0 2-1 4-4 4-2 0-3-1-3-4 0-8 0-16 0-24 0-1 1-3 2-3 5-1 9 0 14 0l0 6-9 0c0 7 0 14 0 21z m-76 1c0 1-3 2-4 2-2 0-3-1-3-2 0-8 0-15 0-23 0-6 0-6 7-5 0 9 0 19 0 28z m-173-25c0-2 0-4 3-4 3 0 4 2 4 5 0 7 0 14 0 21 1 6-2 6-7 5z m367-3c6-1 6-1 6 5 0 6 0 13 0 20 1 5-1 7-6 5z m-229-1c-2 1-4 2-6 3 0 0 0 2 0 2-1 1-2 2-4 3 0 0-2-2-2-3-2-5-2-5-8-4 2 10 4 19 6 29 1 1 4 1 6 1 2 0 3-1 4-2 2-8 4-16 5-24 1-2 0-3-1-5z m-6 14l-3 11-1 0-2-12z m176-13c-4 0-7-2-8 3 0 1-3 3-4 4-1-1-2-3-3-4 0-1-1-2-1-4l-7 1c2 10 4 19 7 28 1 1 2 2 4 2 1 0 4 0 5-1 2-10 5-19 7-29z m-8 13l-3 11-1 0-2-12z"/>
<glyph glyph-name="star" unicode="&#100;" d="M31 213c-6-2-12-4-18-5-6-2-10-6-13-11l0-7c6-10 10-12 21-8l18 6c4 0 7 3 9 6 2 4 2 8 1 11-2 4-4 7-8 8-3 1-7 1-10 0z m359 9c-1 5 0 9 3 12l78 76c10 9 13 22 9 35-4 12-15 21-28 23l-108 15c-4 1-8 4-10 8l-47 98c-5 12-17 20-31 20-13 0-25-8-31-20l-48-97c-1-4-5-6-9-7l-107-15c-13-1-25-11-29-24-5-13 0-27 10-36l77-75c4-2 5-6 5-9-6-32-11-64-17-95-2-8-3-16-2-25 0-11 7-21 17-26 10-6 22-6 32 0 32 17 65 34 97 51 4 2 8 2 12 0l50-30c16-8 32-16 48-25 11-5 25-4 35 4 10 7 15 20 12 32-6 38-12 74-18 110z m-11-119c-3-3-6-2-10 0l-94 50c-12 7-27 7-39 0-31-17-62-33-94-50-3-1-6-3-10-1-3 3-3 6-2 10 6 36 12 72 19 107 3 12-1 25-11 33l-77 75c0 0-2 1-2 2-1 1-2 5-1 8 1 2 3 3 6 4 15 3 31 5 46 7l64 9c12 2 23 10 28 21 15 32 31 64 47 96 1 1 1 2 2 4 1 2 4 3 6 3 2 0 5-1 6-3 1-2 1-3 2-5 16-31 31-63 47-95 5-12 17-20 30-21 36-5 72-11 107-16 4 0 7-2 7-8-1-2-2-4-3-5-26-25-52-50-77-75-10-9-15-23-12-37 6-35 12-70 18-104 0-4 0-7-3-9z m-123-48c-7 0-13-5-13-12 0-4 0-9 0-13 0-5 0-10 0-14 0-7 6-12 13-12 7 0 13 5 13 11 1 10 1 19 0 28 0 3-1 7-4 9-3 2-6 3-9 3z m247 151c-7 3-15 5-22 7-2 1-3 1-5 1-6 1-13-4-14-10-1-7 2-14 9-16 8-3 16-5 24-8 7-2 15 2 17 9 2 7-2 14-9 17z m-393 244c2-3 5-5 9-6 3 0 7 1 10 3 3 2 5 5 6 9 0 4-1 7-3 10-4 7-9 13-14 20-3 2-6 4-10 6-5 1-10-2-13-7-3-4-3-10 0-14 5-7 10-14 15-21z m293 0c5 6 9 12 14 19 1 3 2 6 3 9 0 5-4 11-9 13-6 2-12 0-15-4-5-7-10-13-15-20-3-3-4-9-2-14 2-4 6-7 11-8 5 0 10 2 13 7z"/>
<glyph glyph-name="bg-shape" unicode="&#101;" d="M5 228c16 10 33 18 52 21 36 7 65-2 84-8 31-12 58-30 84-51 34-27 63-58 94-88 18-18 36-35 55-53 13-11 26-20 42-26 18-8 32-3 44 12 8 11 14 24 17 38 10 32 12 65 11 98-1 38-6 76-16 113-20 75-57 140-113 195-12 11-24 22-36 33l3 0c17-17 35-32 51-49 35-36 60-78 79-125 18-45 29-92 33-141 4-37 3-75-6-111-4-18-9-35-20-50-13-20-31-25-52-14-11 6-22 13-32 21-27 20-49 45-73 69-25 24-50 48-76 71-26 22-55 41-87 54-31 12-63 16-96 7-15-4-29-10-42-19l0-17 0 0c32 24 68 32 107 24 29-6 55-20 80-38 31-21 58-47 85-74 24-23 47-46 71-69 15-15 31-28 50-38 11-7 24-11 38-10 16 1 27 10 37 22 12 17 19 35 24 55 8 38 10 77 7 116-4 39-11 78-24 116-20 65-54 122-102 170-9 11-20 20-30 30l4 0c3-3 5-6 8-8 45-42 81-90 106-146 20-47 33-97 39-147 0-9 1-18 2-27l0-48c-1-9-2-17-3-26-3-25-8-49-20-72-6-10-12-20-22-27-7-5-15-7-22-11l-17 0c-9 4-18 7-27 11-20 11-37 26-53 41-23 22-46 45-69 68-22 22-46 44-71 64-25 18-52 35-82 43-21 6-41 7-60 4-26-5-46-19-53-24-1-1-2-2-3-2z"/>
<glyph glyph-name="bg-shape-01" unicode="&#102;" d="M0 239c9 5 19 8 27 14 12 10 24 15 39 14 22-2 41 3 57 19 12 11 28 15 44 12 14-3 29 1 39 11 16 14 36 21 57 19 12-1 27 6 37 13 16 11 30 20 50 18 18-3 37 4 50 17 13 12 31 17 48 13 8-2 16 0 25 1l0-4c-8-1-17-5-25-3-20 4-35-2-49-15-11-11-27-17-43-15-21 2-36-5-53-18-14-10-26-13-42-13-21 1-37-4-52-18-12-10-28-15-44-11-17 3-32-4-44-15-12-11-27-17-44-16-20 3-41-5-55-19-6-5-15-7-22-10z m512 37c-10-1-21-3-31-3-19 1-34-6-49-17-12-9-26-13-41-13-16 1-31 0-42-10-18-18-38-20-61-21-13 0-27-6-37-14-16-12-31-19-50-16-18 2-33-4-47-16-6-6-14-11-23-13-12-2-26 2-37-2-20-7-37-19-56-29l3-5c9 5 18 9 25 15 12 10 26 18 41 15 18-4 35 0 47 11 16 16 34 20 56 18 15-1 30 5 41 16 12 12 29 18 45 15 21-2 36 6 52 18 11 7 25 13 38 12 18-1 34 1 46 12 17 16 36 20 58 19 7-1 15 1 22 2z m-512-17c6 3 14 5 18 10 14 13 29 18 47 16 21-2 37 7 53 19 11 8 25 12 38 11 19-1 35 3 49 15 12 12 30 18 47 15 16-2 31 2 43 13 14 14 33 21 52 18 18-1 32 4 46 16 13 12 29 19 48 14 6-1 12 1 18 2l-1 3c-24 3-48 5-68-14-11-12-27-17-43-15-20 2-40-5-55-19-11-10-26-15-41-12-16 3-32-2-44-13-14-13-30-17-49-17-14 0-31-4-41-12-18-14-36-21-58-19-16 2-30-4-42-16-5-4-11-6-17-9z m512-9c-29 2-57 0-81-23-7-7-22-8-33-7-17 1-31-1-43-12-16-14-33-20-54-18-16 2-32-4-44-16-12-12-29-18-47-15-17 2-35-4-48-17-11-10-25-17-41-14-27 6-48-10-65-31 7 4 13 11 20 14 13 5 26 13 38 12 20-2 37 2 51 15 13 12 27 17 44 15 21-2 37 6 54 18 11 8 25 13 39 13 19-1 37 5 52 17 11 7 26 14 39 13 19-1 35 2 50 14 13 12 28 19 46 17 8-1 15 0 23-1z m0-25c-23 6-45 3-63-14-12-11-26-18-42-15-20 4-36-3-51-15-11-11-27-16-42-14-19 2-37-4-50-16-11-12-27-17-43-15-20 2-39-4-53-18-11-11-25-13-40-14-12 1-25-1-37-5-8-3-15-11-22-17l3-4c17 20 39 23 64 22 10-1 23 4 31 11 17 15 34 22 56 20 17-2 31 4 44 15 12 13 30 18 47 15 15-3 31 2 42 13 14 13 30 17 49 17 14 0 32 3 41 12 20 17 42 21 66 19z m-297-224c10 13 24 16 39 14 18-3 34 1 47 13 13 13 32 19 50 17 19-2 34 6 49 17 9 7 22 10 33 14 3 1 6 2 8 2-18 5-33 0-45-12-14-13-30-16-48-16-14-1-30-3-40-11-18-15-37-20-60-19-15 1-31-2-39-19z m40 510c-10-17-25-22-42-21-20 1-39-1-55-15-13-13-29-19-48-15-3 0-6-1-9-2 22-6 42-5 59 12 11 10 24 17 39 15 27-4 49 6 67 26z m51-510c16 21 39 22 62 23-29 8-44 3-70-23z m196 322c-11-1-21-4-31-4-22 0-38-3-53-17-15-12-26-12-41-12-19-1-36-3-51-17-11-11-27-16-43-14-19 2-39-5-53-18-12-12-27-15-43-12-15 2-30-2-41-12-15-15-32-19-53-19-19 1-30-8-46-16-7-4-15-9-23-13-2-1-4-3-6-4l3-5c11 7 22 15 34 21 11 5 25 12 38 11 20-1 36 3 50 16 12 12 29 17 45 14 16-2 31 1 42 12 16 15 34 22 56 19 17-1 31 5 44 17 13 12 29 15 47 14 14-1 26 1 41 12 15 13 30 19 50 18 12-1 23 3 35 4z m-8 23c-11-2-22-5-33-3-16 2-31-1-42-11-17-16-35-20-57-20-14 0-27-5-38-13-16-12-33-20-53-17-17 1-31-4-44-16-15-13-27-16-42-15-20 4-36-3-52-15-10-7-24-14-35-14-49 3-59-22-87-36 9-2 21 8 30 14 16 10 30 18 48 16 20-2 35 6 51 18 11 8 24 12 38 12 18-2 35 2 48 14 14 13 30 18 48 16 20-2 36 5 50 17 12 12 26 14 42 14 20 0 34 3 51 17 12 10 27 15 43 13 11-1 23 3 34 4z m-465-208c9 5 19 10 28 17 13 10 28 18 46 14 15-3 31 2 43 12 15 14 32 20 52 18 16-2 32 3 43 14 13 13 31 20 49 17 20-1 34 6 50 18 10 8 26 13 38 12 20-1 37 3 51 16 12 11 25 16 40 15 7 0 25-2 32-1 6 1 5 3 7 7-13-1-25-1-37 0-17 1-34-6-46-18-11-11-25-12-41-13-18-1-34-1-46-13-16-14-33-19-53-17-18 1-33-5-46-17-11-11-27-17-43-14-18 3-36-3-49-16-12-12-27-14-43-14-13 0-26-3-38-8-14-7-26-17-38-26z m456 231c-10-2-21-5-30-3-17 3-33 0-44-11-17-17-36-21-59-19-15 1-29-5-40-16-11-12-28-18-45-15-20 2-36-6-52-18-10-7-25-13-37-12-20 2-37-2-51-15-13-12-27-16-44-16-12 0-25-1-36-6-15-7-28-17-42-27 10 2 20 4 26 10 15 15 33 20 54 18 18-1 32 5 45 17 11 11 26 16 41 14 16-2 32 2 45 11 18 14 35 21 56 19 15-2 30 4 41 14 12 13 31 19 49 17 19-2 35 5 49 18 11 10 27 15 43 12 10-2 21 2 32 3z m-99 54c-14-14-31-20-50-18-18 2-36-4-48-17-12-11-27-14-45-14-13 1-31-3-41-11-18-15-36-19-58-19-14-1-26-5-37-13-17-14-34-20-56-17-20 2-42-11-46-27 17 22 41 20 65 22 12 0 25 7 35 15 14 11 29 15 46 15 17 0 36 3 49 17 12 11 26 14 42 13 18-1 34 1 46 13 14 13 32 20 51 17 19-2 35 6 49 18 11 10 26 15 41 13 3 0 7 0 13 0-17 10-41 7-56-7z m-248-346c13 1 28 5 39 13 15 12 31 19 50 17 19-2 37 5 50 18 10 11 25 15 40 13 17-4 35 1 47 13 14 13 30 17 48 17 14 1 29 3 40 11 17 11 32 21 53 22 0 0 0 1 0 2-16 4-34-1-46-13-13-13-31-19-49-17-17 3-34-3-46-15-11-12-28-17-44-14-16 2-32-1-44-13-16-15-34-20-56-18-16 1-30-5-42-16-13-12-30-18-47-15-18 3-33-3-45-18 16 12 33 12 52 13z m237 366c-12-12-28-18-45-15-20 2-36-4-51-18-11-10-26-15-41-12-17 2-33-1-45-13-16-15-34-20-55-18-17 2-31-5-43-16-14-12-30-18-49-14-13 3-30-4-33-10 13 1 16 9 41 4 13-3 29 4 38 12 18 15 36 21 57 19 18-1 31 5 44 17 11 11 27 16 43 13 17-3 32 1 44 12 15 15 32 20 53 18 16-1 29 5 42 14 12 8 20 17 38 22-15 1-27-5-38-15z m-271-393c13 1 27 3 40 3 17-1 33 5 45 17 11 11 27 16 42 14 21-2 38 5 55 18 9 8 24 13 36 12 21-2 38 3 52 16 12 11 28 16 43 15 22-2 39 4 55 19 5 4 13 6 20 10 3 1 6 3 8 4l-2 5c-10-5-21-9-29-15-15-13-31-20-50-18-20 2-35-4-50-18-12-11-27-13-44-12-13 0-30-3-40-12-17-14-35-19-57-19-12 0-27-4-36-11-16-15-38-22-59-19-10 0-20-4-30-6z m-82 305c10 0 19-2 28-1 16 2 26 5 35 12 16 14 33 21 54 19 17-2 33 4 44 16 12 11 27 18 43 15 20-4 35 3 51 15 10 7 23 15 34 14 31-3 54 9 74 31-8-3-14-7-20-12-12-10-25-16-40-13-22 3-39-4-55-19-10-9-24-13-38-11-19 2-35-2-49-14-13-13-30-19-48-17-19 2-35-4-49-17-13-11-29-16-46-14-6 0-12 0-18-1z m451-212c-11-12-27-18-43-16-22 3-39-6-56-19-11-8-25-12-38-11-18 1-32-2-45-12-15-14-31-21-52-18-18 2-33-4-46-17-11-10-26-16-40-15-8 1-16 0-24 0l1-3c23-3 46-5 65 13 13 12 27 19 44 16 19-3 37 3 51 16 12 12 29 17 46 14 15-3 31 2 43 14 13 12 28 19 46 17 28-4 47 10 63 31-5-3-10-6-15-10z m-391 249c12 12 28 18 45 16 21-2 38 4 53 19 11 10 26 15 41 12 15-4 31 1 42 11 17 15 35 21 58 18 16-1 30 5 40 18-4 0-7-3-10-4-11-3-24-9-35-8-19 2-35-2-49-15-13-12-28-16-46-16-14 0-31-2-41-11-19-15-38-20-61-20-11 0-24-3-32-9-14-13-32-22-52-24 18-5 34 1 47 13z m-12 20c16 17 36 21 58 19 16-1 30 5 41 16 12 12 27 17 43 15 21-3 38 4 53 18 11 10 24 13 39 12 11-1 21 1 31 2l0 3c-9 0-18-1-27 1-17 2-33-2-45-13-15-14-31-20-51-18-19 2-34-5-49-17-9-8-24-15-34-13-34 5-56-16-78-35 6 3 14 5 19 10z m109-404c7 5 16 8 23 14 13 11 28 19 46 17 19-3 34 1 48 14 12 12 27 15 44 16 14 0 32 1 41 9 21 18 42 23 67 21 5 0 11 3 16 4-11 2-21 1-31 1-19 1-34-7-50-18-11-8-26-13-39-12-20 1-36-3-50-16-12-11-29-17-45-14-17 2-33-4-46-14-9-7-17-12-25-18z"/>
<glyph glyph-name="test-prep" unicode="&#103;" d="M383 512c3-1 6-2 9-4 12-5 20-17 19-30 0-31 0-62 0-92l0-6 1 0c3 6 7 12 10 17 3 6 8 13 11 19 4 9 13 16 23 20 10 3 21 2 30-4 10-5 16-14 18-25 3-10 1-21-5-29-28-48-55-96-83-143-3-6-5-12-5-18 0-60 0-120 0-180 1-10-3-20-10-27-7-8-17-11-27-10l-330 0c-10-1-20 2-28 10-7 7-10 17-9 27l0 437c-2 18 10 34 27 37 0 0 1 1 1 1z m-87-332l-136 0c-5 0-10 5-10 10 0 6 5 10 10 10l143 0c3 0 6 1 7 4 27 45 53 91 79 137 2 2 2 4 2 7 0 42 0 85 0 128 1 5-1 9-4 12-3 3-7 5-12 4l-332 0c-4 1-9-1-12-4-4-3-5-8-4-13 0-146 0-293 0-439-1-5 1-9 4-12 3-3 8-5 12-4l332 0c5-1 9 1 12 4 3 3 5 8 4 12l0 151c0 1 0 2 0 4-12-21-24-42-36-62-2-3-4-5-6-7-18-14-36-29-55-43-3-3-8-4-13-1-4 2-6 7-4 12 2 11 3 23 5 35 3 18 2 38 14 54 0 0 0 0 0 1z m141 203l-128-220 32-19 127 221z m41 0c6 8 11 16 5 25-3 7-10 10-17 10-11-1-15-10-18-17z m-174-240c-2-12-3-22-5-34l28 21z m-204 201l19 0c3 0 6-1 8-3 3-2 4-5 3-8 0-13 0-26 0-39 1-3 0-6-3-8-2-2-5-3-8-2-12 0-25 0-38 0-3 0-6 1-8 3-2 2-3 5-2 8 0 12 0 25 0 39-1 2 1 5 3 7 2 2 4 3 7 3z m10-40l0 20-19 0 0-20z m-9-64c6 0 13 0 19 0 3 0 6-1 8-3 2-2 3-4 3-7 0-13 0-26 0-40 0-3-1-5-3-7-2-2-5-3-8-3l-39 0c-3 0-5 1-7 3-2 2-3 5-3 7 0 13 0 26 0 39 0 3 1 6 3 8 2 2 5 3 8 3z m9-20l-19 0 0-20 19 0z m-10-144c-6 0-13 0-19 0-3 0-5 1-7 3-2 2-3 4-3 7 0 14 0 27 0 40-1 3 1 6 3 8 2 1 4 2 7 2 13 0 26 0 39 0 3 0 6-1 8-3 2-1 3-4 2-7 0-13 0-27 0-40 1-3 0-6-2-8-2-2-5-2-8-2-7 0-13 0-20 0z m-9 40l0-20 19 0 0 20z m136 168l-65 0c-4-1-8 1-10 5-1 3-1 7 0 10 2 4 6 5 11 5l129 0c7 0 12-4 12-10 0-6-5-10-12-10-22 0-44 0-65 0z m5 100l-8 0c-7 0-12 4-12 10 0 6 5 10 12 10l14 0c4 0 7 2 7 6 0 4-2 6-7 6-10 0-19 5-23 13-5 9-5 19 0 27 5 8 15 13 24 12 4 0 7 0 11 0 2 0 5-1 7-3 2-2 3-4 3-7 0-2-1-5-3-7-2-2-4-3-7-3-3 0-7 0-10 0-5 0-8-2-8-6 0-4 4-6 8-6 9 0 17-5 22-13 5-8 5-17 0-25-4-9-13-14-22-14z m-63 52l12 0c4 1 8-1 10-4 2-4 2-8 0-11-2-3-6-5-10-5l-11 0c0 0 0-1 0-1-2-10-1-11 9-11 2 0 5 0 8 0 5 0 9-5 9-10 0-5-4-9-9-10-6 0-12 0-18 0-10 1-18 9-19 19-1 16-1 31 0 46 1 11 10 19 21 19 5 0 10 0 16 0 2 0 5-1 7-3 2-2 3-4 3-7 0-3-1-6-3-7-2-2-5-3-8-3-4 0-7 0-11 0-4 0-6-1-6-5 1-2 0-4 0-7z m-66 12c-3 0-5 0-7 0-6 1-10 5-10 10 0 5 4 9 10 10 11 0 22 0 34 0 2 0 5-1 6-3 2-2 3-4 3-7 0-5-4-10-9-10-2 0-4 0-7 0l0-5c0-16 0-31 0-46 0-3-1-6-2-9-3-3-7-5-11-3-4 1-8 5-7 10l0 53z m192 0l-6 0c-6 0-10 5-10 10 0 3 1 5 3 7 1 2 4 3 7 3 11 0 22 0 33 0 6 0 10-5 10-10 0-5-4-10-10-10l-7 0 0-51c0-8-3-13-9-13-6 0-11 5-11 13z m-92-352l41 0c7 0 12-4 12-10 0-6-4-10-12-10l-82 0c-5 0-10 3-11 8-1 6 3 11 8 12 1 0 3 0 4 0z m121 198c0 3 1 5 3 7 2 2 4 3 7 3 5 0 10-5 10-10 0-6-5-10-10-10-3 0-5 1-7 3-2 2-3 4-3 7z"/>
<glyph glyph-name="testimonial" unicode="&#104;" d="M502 240c-9 22-31 36-55 35-23 0-45 0-68 0-14 0-25 11-26 25-1 7-1 13 0 19 2 33 24 60 56 68 12 2 25 3 38 3 5 0 11 2 15 6 4 3 6 9 6 14 0 13 0 25 0 37 0 5-2 11-6 15-3 4-9 6-14 6-14 0-27-1-40-2-29-4-56-16-78-35-35-30-56-74-55-121l0-205c0-4 0-8 0-12 5-29 29-49 58-49 38 0 76 0 114 0 25 0 48 16 56 41 1 3 2 6 2 10l0 130c0 5-2 10-3 15z m-270 1c-10 21-31 35-55 34-22 0-45 0-67 0-13 0-24 9-26 22-1 7-1 14-1 21 2 33 24 61 56 70 13 2 26 3 39 3 5-1 11 1 15 5 4 4 6 10 6 16 0 11 0 23 0 35 1 5-1 11-5 15-4 4-10 6-16 6-13 0-26 0-39-2-34-4-65-20-88-44-29-29-46-69-45-111l0-97c0-37 0-73 0-109 0-7 1-14 3-20 7-25 31-42 57-41l111 0c5 0 9 1 14 2 27 5 47 29 46 57 0 38 0 76 0 114 0 8-2 16-5 24z"/>
<glyph glyph-name="call" unicode="&#105;" d="M492 149c-22 22-43 42-64 63-12 13-30 19-48 16-12-3-24-10-33-19-11-12-21-22-32-33l-9 5c-3 2-7 4-11 7-25 16-47 35-67 56-21 21-38 45-52 71 3 2 5 4 7 7 11 10 22 21 32 32 19 20 19 51-1 71-24 27-46 49-67 69-10 11-24 18-39 18-16 0-30-6-41-17-11-10-21-22-32-31l-10-10c-16-17-24-38-24-61-1-23 3-46 11-68 31-85 84-160 153-219 34-30 73-55 114-75 24-12 51-22 79-27 4-1 9-2 14-3l31 0c17 1 32 8 45 20 16 15 32 31 47 47 11 11 17 26 16 41 0 16-8 30-19 40z m-397 320c3 2 7 4 12 4 4 0 8-1 11-4 6-6 12-11 17-17l12-11c12-12 24-25 37-38 3-2 6-7 6-12 0-5-3-9-6-12-10-14-24-27-36-39-13-9-16-26-8-39 15-29 33-55 56-78 25-28 54-52 86-72 7-5 15-8 22-12 11-6 24-4 32 5l22 21 14 15c3 2 4 4 6 5 6 6 16 6 22 0 25-25 46-46 65-65 4-3 6-8 6-13 0-5-2-10-6-14-15-15-28-29-42-43-12-11-29-15-45-12-30 4-58 13-84 27-54 26-102 63-142 107-43 44-77 96-99 153-9 21-14 43-14 65-1 16 6 30 17 40l21 22 12 12z"/>
<glyph glyph-name="current-location" unicode="&#106;" d="M284 456c44-6 83-27 112-56 31-31 51-71 57-116l59 0 0-56-60 0c-7-43-27-80-56-109-29-30-68-50-112-56l0-63-56 0 0 63c-44 6-83 26-112 56-29 29-49 66-56 109l-60 0 0 56 59 0c6 45 26 85 57 116 29 29 68 50 112 56l0 56 56 0 0-56z m-28-92c58 0 105-47 105-105 0-58-47-105-105-105-58 0-105 47-105 105 0 58 47 105 105 105z m115 10c-30 29-70 48-115 48-45 0-85-19-115-48-29-29-47-70-47-115 0-45 18-85 47-115 30-29 70-47 115-47 45 0 85 18 115 47 29 30 47 70 47 115 0 45-18 86-47 115z"/>
<glyph glyph-name="testimonial-01" unicode="&#107;" d="M207 254c-27 21-62 31-96 26-11-2-21-4-31-7 0 0 0 1 0 1 7 26 17 50 30 73 16 25 36 45 67 51 5 1 9 5 10 10 4 14 8 29 12 44 2 4 1 8-1 11-3 4-7 6-11 6-22 2-45-3-65-14-26-15-48-36-65-61-29-43-48-91-54-143-1-8-2-17-3-26l0-33c0-1 1-3 1-5 2-14 4-29 7-43 6-29 21-54 44-72 41-32 86-39 134-16 45 23 70 71 64 121-4 30-19 58-43 77z m278-17c-30 35-68 48-113 43-11-1-21-4-31-7 7 27 17 52 31 75 16 25 36 45 66 50 5 1 9 5 10 10 5 15 9 30 13 45 1 3 0 7-2 10-2 3-5 5-9 6-5 0-10 1-15 1-28-2-54-12-74-30-30-25-54-56-69-91-18-39-28-81-30-124-3-32 1-65 12-96 7-23 21-43 39-58 30-24 69-34 106-25 53 11 91 57 93 111 2 29-8 57-27 80z"/>
<glyph glyph-name="zipcode" unicode="&#108;" d="M256 384c-47 0-85-38-85-85 0-47 38-86 85-86 47 0 85 39 85 86 0 47-38 85-85 85z m0-128c-24 0-43 19-43 43 0 23 19 42 43 42 24 0 43-19 43-42 0-24-19-43-43-43z m0-256c-36 0-71 17-92 47-81 112-123 196-123 251 0 118 97 214 215 214 118 0 215-96 215-214 0-55-42-139-123-251-21-30-56-47-92-47z m0 465c-93 0-168-75-168-168 0-42 40-122 114-223 12-17 33-27 54-27 21 0 42 10 54 27 74 101 114 181 114 223 0 93-75 168-168 168z"/>
<glyph glyph-name="email" unicode="&#109;" d="M405 491l-298 0c-59 0-107-48-107-107l0-256c0-59 48-107 107-107l298 0c59 0 107 48 107 107l0 256c0 59-48 107-107 107z m-298-43l298 0c26 0 50-16 60-40l-164-164c-25-25-65-25-90 0l-164 164c10 24 34 40 60 40z m298-384l-298 0c-36 0-64 29-64 64l0 224 138-138c41-41 109-41 150 0l138 138 0-224c0-35-28-64-64-64z"/>
<glyph glyph-name="in-person" unicode="&#110;" d="M465 293c8-5 16-11 24-17 14-13 23-32 22-52 0-23 0-45 0-67 0-13-4-26-13-36l-3-4c13-4 16-8 16-22 0-4 0-7 0-11 0-4-1-9-5-12-3-3-7-5-12-5l-73 0 0-65-49 0 0 77-1 0-5-12c-4-15-9-29-14-44-3-10-10-17-19-21-10-3-20-2-28 2-13 7-19 21-15 35 11 33 22 67 34 100 6 16 21 27 38 27l9 0 0 16-181 0 0-181-49 0 0 52c-7-2-15-2-22-2-7 2-14 5-20 9-5-4-10-6-16-9-10-2-20 0-29 6-8 6-12 16-12 26 0 40 0 78 0 118l0 6c-12 0-23 5-30 13-7 7-11 15-11 24-1 22-1 43 1 65 3 33 25 62 56 73l6 2c-15 12-23 30-22 49 1 14 7 27 17 37 22 23 59 23 82 1 23-23 23-59 0-82 12-1 23 3 32 11 11 9 18 23 18 37 0 15 0 30 0 44 0 16 12 29 28 29 16 0 29-13 29-29 0-16 0-33 0-49 2-53-35-98-87-108l-3-1 0-75 73 0 0 89c0 7 2 14 8 19 5 5 12 8 19 8l56 0 0-33 16 0 0-58c25-2 44 12 65 19-13 10-22 25-23 42-2 17 5 34 17 46 15 15 37 20 57 13 20-6 35-23 39-44 4-21-3-42-20-55z m-357-53l0-153c0-1 0-3 0-5 0-9 7-16 16-16 9 0 16 7 16 16 0 2 0 4 0 6l0 240c0 10 0 10 10 11l5 1c40 6 70 38 75 78 2 22 1 44 1 65 0 5-3 9-7 11-4 1-9 1-12-1-4-3-6-7-5-11 0-15 0-30 0-45 0-17-7-34-20-47-12-12-29-19-47-19-17 0-34 0-51 0-36 0-67-28-71-64-1-21-2-41-1-62 1-12 12-22 25-22l0 99 16 0 0-235c0-1 0-3 0-5 1-7 6-13 14-15 7-1 14 2 17 8 1 4 2 7 2 11 0 49 0 98 0 148l0 6z m325 1c-2-1-3-2-5-3-5-2-7-5-7-10 0-35 0-70 0-105l0-7c11 0 22 0 32 0 11 0 22 4 30 12 8 8 12 18 12 30 0 21 0 43 0 64 0 16-6 31-18 42-11 11-26 17-42 16-19 0-37-4-54-12-16-9-35-13-53-12-11 0-22 0-33 0-5 0-10-2-12-6-3-4-2-9 0-13 2-4 7-6 12-6 19 0 38 0 57 0 17 0 34 4 50 12 7 4 15 8 24 12z m-29-16c0 0-1 0-1 0l-2-1c-14-6-29-9-45-9l-99 0c-9-1-18 5-23 13-1 2-3 4-6 4l-70 0 0-33 246 0z m-305 246c-22 0-41-19-41-41 0-23 19-41 41-42 23 0 41 18 41 41 1 23-18 41-41 42z m371-132c0 23-18 41-41 41-23 0-41-19-41-41 0-23 18-41 41-41 23 0 41 18 41 41z m-99-190c-20 1-27-4-34-23l-6-18c-8-24-16-48-24-72-2-4-2-8 0-12 2-3 5-6 9-7 4-1 9-1 13 2 3 2 6 6 7 10 8 24 16 49 25 74 2 4 5 8 8 11 1 1 2 2 2 4 0 10 0 20 0 31z m-104 83c0 1 0 1 0 2-4 9-2 19 3 27 6 8 15 12 25 11l19 0 0 42-66 0 0-5c0-20 0-40 0-60 0-18 3-18 17-17z m-94-214l0 163-15 0 0-163z m231 0l0 163-15 0 0-163z m-107 329c-14 0-28 0-41 0-2 0-4-1-6-2-1-2-2-4-2-6 0-2 1-4 2-6 2-1 4-2 6-2 13 0 27 0 41 0z m74 66c0-2 0-3 0-5 1-8-4-15-12-18-7-4-16-2-21 4-6 5-11 10-17 16-2 1-4 2-6 3-5 0-10 0-15 1-11 2-19 11-19 23 0 17 0 33 0 50 0 7 2 13 7 18 4 4 11 7 17 7l132 0c7 0 13-3 18-7 5-5 7-11 7-18 0-16 0-33 0-49 0-7-2-13-7-18-5-4-11-7-18-7-20 0-40 0-60 0z m-16 17l80 0c7 0 10 2 10 10 0 15 0 30 0 45 0 7-3 10-9 10-43 0-86 0-130 0-2 1-5 0-6-2-2-2-3-5-3-7 0-16 0-32 0-48 0-2 1-5 3-6 1-2 4-3 6-3 5 0 10 0 15 0 3 0 5-1 7-3 7-6 13-12 19-18 2-2 4-3 5-2 1 0 2 3 2 4 1 6 1 13 1 20z m-25 41l17 0 0-16-17 0z m33-17l0 17 16 0 0-17z m33 0l0 16 17 0 0-16z"/>
<glyph glyph-name="mail" unicode="&#111;" d="M451 461l-388 0c-36-1-64-31-63-66l0-278c-1-36 27-65 63-66l386 0c36 1 64 30 63 66l0 278c1 35-26 64-61 66z m0-380l-388 0c-20 1-35 17-34 36l0 278c-1 19 14 35 34 36l386 0c20-1 35-17 34-36l0-278c1-19-14-34-32-36z m-127 178l125 118c6 6 6 15 1 21-2 3-6 5-10 5-4 0-8-1-10-4l-173-164-34 33c-1 1-2 2-3 3l-137 128c-3 3-7 5-11 4-3 0-7-2-10-5-4-6-4-15 2-20l127-120-126-124c-6-6-6-14 0-20 2-3 6-5 10-5 3 0 7 1 9 4l128 126 35-33c2-2 6-4 9-4 4 0 7 2 10 4l36 34 127-127c3-3 6-4 10-4 4 0 8 1 10 4 5 6 5 15 0 21z"/>
<glyph glyph-name="name" unicode="&#112;" d="M256 256c71 0 128 57 128 128 0 71-57 128-128 128-71 0-128-57-128-128 0-71 57-128 128-128z m0 213c47 0 85-38 85-85 0-47-38-85-85-85-47 0-85 38-85 85 0 47 38 85 85 85z m0-256c-106 0-192-86-192-192 0-11 10-21 21-21 12 0 22 10 22 21 0 83 67 150 149 150 82 0 149-67 149-150 0-11 10-21 22-21 11 0 21 10 21 21 0 106-86 192-192 192z"/>
<glyph glyph-name="online" unicode="&#113;" d="M228 405c18 0 32 15 32 33 0 18-14 33-32 33-19 0-33-15-33-33 0-18 15-33 33-33z m0 52c7 0 14-5 17-12 3-7 2-15-4-21-5-5-14-7-21-4-7 3-11 10-11 18 0 10 8 19 19 19z m166-38l-55 0c-3-1-6-3-6-7 0-2 1-4 2-5 2-2 4-2 6-2l53 0c4 0 7 3 7 7 0 4-3 7-7 7z m-54 7c8 0 17 0 26 0 2 0 4 1 5 3 1 1 2 3 2 5 0 1-1 3-3 4-1 2-3 2-4 2-5 0-9 0-13 0-4 0-8 0-13 0-1 0-3 0-4-2-2-1-3-3-3-4 0-2 1-4 2-5 1-2 3-3 5-3z m-126-359c0 18-8 36-21 50-13 13-31 21-50 21-24 0-48 0-72 0-19 0-37-8-50-21-14-13-21-31-21-50 0 0 0-26 0-37 0-11 2-13 13-13l188 0c11 0 13 2 13 12 0 12 0 25 0 38z m-15-35l-32 0c0 13 0 24 0 36 0 6-1 10-7 10-7 0-8-5-8-10l0-36-91 0c0 13 0 25 0 36 0 4-2 8-5 10-5 3-9-2-9-9 0-12 0-24 0-37l-32 0c1 20-4 41 6 60 8 19 28 31 49 31 24 1 49 0 73 0 31 0 55-25 55-55 1-12 1-24 1-36z m313 200c0 6-4 12-11 13-2 1-4 1-6 1-1 0-2 0-1 1 0 1 0 2 0 3 0 75 0 149 0 224 0 6-3 11-7 15-4 4-9 6-15 6l-319 0c-2 0-4 0-6 0-10-3-17-12-16-22l0-207c-11 5-24 6-36 4-26-5-46-27-49-53-2-26 13-51 37-61 9-3 18-5 28-4 16 1 31 9 42 21 5 7 9 15 11 23l319 0c12 0 22 7 27 18 2 6 2 12 2 18z m-406-66c-25 0-45 21-44 46 0 25 21 45 46 45 25-1 45-21 44-46 0-12-5-24-13-32-9-9-21-13-33-13z m45 86c-2 2-4 4-6 5l0 216c0 2 0 5 2 6 2 2 4 3 7 2l317 0c3 1 5 0 7-1 1-2 2-4 2-7l0-225c0-1 0-1 0-3l-3 0c-70 0-139 0-209 0-2 0-3 1-3 3 0 18 0 35 0 52l0 3 47 0c10-1 19 6 21 16 1 1 1 2 2 3l29 28c1 1 2 2 4 2 25 0 50 0 75 0 5-1 9 1 12 4 3 3 5 7 4 11 0 27 0 53 0 79 1 5-1 9-4 12-3 3-7 4-11 4l-118 0c-4 0-8-1-11-4-3-3-4-7-4-11l0-80c0-4 1-8 4-11 3-3 7-5 11-4l19 0c-3-3-5-5-7-8-3-2-5-5-8-7l-1 0c0 0 0 1-1 1-4 5-9 7-15 7l-24 0c0 4 0 7 0 10 0 5 0 9-1 13-6 19-22 31-41 31l-38 0c-24 0-43-19-43-43 0-22 0-44 0-66 0-14 8-25 21-29 1-1 2-1 2-2 1 0 1-1 1-2 0-3 0-7 0-10 0-1 0-2-2-2l-31 0c-2 3-4 5-6 7z m101 52l0-16-48 0 0 3c0 18 0 36 0 55 0 2-1 4-2 5-2 2-4 3-6 3-3 0-6-3-6-7 0-1 0-2 0-2l0-70c-1 0-2 1-3 1-4 3-7 9-7 14 0 22 0 45 0 67 0 16 13 29 29 29l37 0c17 0 30-13 30-30l0-25 11 0c9 0 18 0 26 0 4 0 7-3 7-6 0-4-2-7-6-8l-2 0c-14 0-29 0-44 0-2 0-2 1-2 3 0 9 0 17 0 26 0 3-1 5-3 6-1 1-3 2-5 2-4-1-7-4-6-8-1-14 0-28 0-42z m0-58l-16 0c0 0-1 1-1 1 0 9 0 17 0 25 0 1 0 1 1 1l14 0c1 0 1 0 2-1-1-9-1-17-1-27z m-31 2c0-2 0-2-2-2-5 0-10 0-15 0l0 27 12 0c5 0 5 0 5-5 0-6 0-14 0-20z m225 121c0-1 0-2 0-3l-66 0 9 9c4 4 5 8 2 11-3 3-8 3-12-1l-18-17c0-1-1-2-2-2l-34 0 0 82 118 0c2 0 2 0 2-3 0-25 0-51 0-76z m51-150c-2-6-7-9-13-9l-318 0c0 7-1 15-3 22l116 0 0-5c-1-2 0-4 2-6 1-1 3-2 5-2l52 0c2 0 5 1 6 2 2 2 2 4 2 6 0 5 0 5 5 5l147 0c1-5 0-9-1-13z"/>
<glyph glyph-name="phone-number" unicode="&#114;" d="M277 491c0 11 10 21 22 21 117 0 213-96 213-213 0-12-10-22-21-22-12 0-22 10-22 22 0 94-76 170-170 170-12 0-22 10-22 22z m22-107c47 0 85-38 85-85 0-12 10-22 21-22 12 0 22 10 22 22 0 70-58 128-128 128-12 0-22-10-22-22 0-11 10-21 22-21z m194-229c25-26 25-68 0-93l-20-23c-174-167-600 258-435 433l25 22c25 25 67 24 92-1 1-1 40-52 40-52 24-26 24-66 0-92l-25-31c28-67 81-120 148-148l31 25c26 24 66 24 92 0 0 0 51-39 52-40z m-30-31c0 0-51 39-51 40-10 9-24 9-33 0-1-1-44-35-44-35-6-5-14-6-21-3-87 32-156 101-188 188-3 7-2 15 3 21 0 0 34 43 35 44 9 9 9 23 0 33-1 0-40 51-40 51-9 9-24 8-32-1l-25-21c-120-145 248-493 375-373l19 23c10 8 11 23 2 33z"/>
<glyph glyph-name="play-icon" unicode="&#115;" d="M51 257c0-75 0-149 0-224 0-12 1-23 13-30 12-7 23-2 34 5l345 222c24 16 24 36 0 52l-346 222c-9 8-22 10-32 5-13-7-14-18-14-30 0-74 0-148 0-222z"/>
<glyph glyph-name="search" unicode="&#116;" d="M218 479c-27-3-49-10-71-21-61-30-104-89-113-157-2-14-2-43 0-58 13-93 87-166 181-178 12-2 40-1 54 0 21 3 54 13 60 19 8 8 6 21-4 27-6 3-10 2-22-2-11-5-28-9-39-11-12-2-38-1-49 0-27 5-50 14-74 29-15 10-36 31-46 47-13 19-22 41-27 64-3 15-3 52 0 68 14 63 57 112 117 132 51 17 107 10 153-21 16-10 37-31 47-47 13-20 22-41 27-64 2-9 2-13 3-34 0-21-1-25-3-35-7-32-21-60-43-84-10-10-12-15-9-23 1-3 92-94 96-97 2 0 5-1 8-1 7 0 11 3 14 8 3 4 3 11 1 15-1 1-19 20-41 42l-39 40 5 6c22 26 37 63 43 100 1 12 2 42 0 54-6 46-27 90-60 122-31 32-73 53-118 59-10 2-43 2-51 1z"/>
<glyph glyph-name="grid" unicode="&#117;" d="M79 490c-9-1-14-3-22-6-12-6-23-17-29-29-7-14-6-14-6-71 0-57-1-57 6-71 6-12 17-23 29-29 14-7 14-7 71-7 57 0 57 0 71 7 12 6 23 17 29 29 7 14 7 14 7 71 0 57 0 57-7 71-6 11-17 23-28 28-14 7-13 7-68 8-28 0-52 0-53-1z m256 0c-9-1-14-3-22-6-12-6-23-17-29-29-7-14-6-14-6-71 0-57-1-57 6-71 6-12 17-23 29-29 14-7 14-7 71-7 57 0 57 0 71 7 12 6 23 17 29 29 7 14 7 14 7 71 0 57 0 57-7 71-6 11-17 23-28 28-14 7-13 7-68 8-28 0-52 0-53-1z m-256-256c-9-1-14-3-22-6-12-6-23-17-29-29-7-14-6-14-6-71 0-57-1-57 6-71 6-12 17-23 29-29 14-7 14-7 71-7 57 0 57 0 71 7 12 6 23 17 29 29 7 14 7 14 7 71 0 57 0 57-7 71-6 11-17 23-28 28-14 7-13 7-68 8-28 0-52 0-53-1z m256 0c-9-1-14-3-22-6-12-6-23-17-29-29-7-14-6-14-6-71 0-57-1-57 6-71 6-12 17-23 29-29 14-7 14-7 71-7 57 0 57 0 71 7 12 6 23 17 29 29 7 14 7 14 7 71 0 57 0 57-7 71-6 11-17 23-28 28-14 7-13 7-68 8-28 0-52 0-53-1z"/>
<glyph glyph-name="location" unicode="&#118;" d="M242 493c-57-7-102-48-113-104-10-48 10-119 54-195l7-12-56 0c-47 0-55-1-56-2-2-2-60-153-60-156 0 0 1-2 3-4l2-2 466 0 3 2c1 2 2 4 2 4 0 3-58 154-60 156-1 1-9 2-56 2l-56 0 9 15c10 18 26 50 33 67 19 49 26 92 19 126-10 51-50 91-101 101-11 2-30 3-40 2z m27-14c26-3 50-14 69-33 35-35 42-80 25-143-12-40-36-89-70-140-12-18-36-50-37-50-1 0-24 32-35 47-64 96-91 178-77 233 9 33 34 63 65 77 20 8 39 11 60 9z m-109-364c23-29 41-53 41-54 0 0-19-6-42-14l-41-15-41 0c-24 0-41 0-41 1 0 0 11 29 24 63 13 34 24 64 25 67l2 5 16 0 17 0z m48 39c9-14 35-48 41-55 5-6 9-6 14 0 6 7 32 41 41 55l9 14 112 0 2-5c1-3 3-9 4-12l3-7-2-1c-1 0-50-17-108-38-58-20-106-38-107-38-2 0-9 8-34 41-17 22-34 45-38 50l-8 10 62 0z m250-72c10-26 18-49 18-49 0-1-12-1-31-1l-31 0-27 35c-15 19-27 35-27 35 1 1 77 29 78 29 1-1 9-22 20-49z m-97-5c9-11 20-25 25-32l10-13-117 0c-75 0-117 0-115 1 3 2 181 65 181 65 1 0 8-10 16-21z m-120 344c-10-3-18-8-27-16-28-28-20-75 15-93 23-12 50-8 68 10 8 8 12 15 16 25 2 8 2 26 0 34-5 15-16 28-29 35-13 7-29 9-43 5z m25-13c29-7 43-39 30-65-3-6-11-15-17-18-30-17-68 4-68 39 0 20 15 39 35 44 5 1 15 1 20 0z"/>
</font>
</defs>
</svg>
