<svg width="1302" height="481" viewBox="0 0 1302 481" fill="none" xmlns="http://www.w3.org/2000/svg">
<path d="M1346.12 290.894C1340.38 303.388 1334.63 315.881 1328.28 328.208C1326.47 326.741 1325.49 325.226 1324.03 324.172C1294.74 302.997 1272.61 276.577 1247.48 252.349C1227.41 233.007 1211.79 210.293 1185.1 195.854C1174.05 189.872 1164.05 182.552 1153.38 175.52C1152.71 174.985 1152.21 174.769 1151.57 174.218C1150.94 173.641 1150.46 173.399 1149.93 172.965C1149.76 172.812 1149.63 172.85 1149.51 172.889C1149.7 172.955 1149.88 173.021 1150.22 173.412C1150.71 174.152 1151.17 174.417 1151.87 174.869C1152.3 175.634 1152.74 175.916 1153.4 176.537C1166.57 190.653 1179.62 204.302 1192.73 217.913C1207.88 233.633 1221.92 249.625 1226.61 270.255C1229.77 284.106 1235.12 297.63 1239.9 311.202C1245.64 327.533 1258.04 338.609 1277.99 343.623C1290.14 346.676 1302.13 350.161 1314.19 353.452C1302.4 370.681 1290.61 387.909 1277.83 405.346C1267.96 396.41 1259.22 387.163 1250.15 378.148C1240.57 368.624 1232.22 357.622 1220.58 350.282C1197.59 335.78 1172.77 323.258 1148.54 310.121C1137.89 304.347 1126.86 299.069 1115.88 293.366C1115.58 293.119 1115.4 293.072 1115.21 293.025C1115.4 293.264 1115.59 293.503 1115.85 294.23C1136.28 313.933 1156.87 332.987 1176.85 352.48C1181.61 357.127 1185.06 362.994 1187.75 368.741C1190.89 375.454 1191.2 383.219 1195.1 389.516C1202.53 401.504 1205.32 414.258 1208.31 427.225C1211.47 440.976 1216.11 454.494 1220.1 468.114C1185.53 501.331 1145.74 529.675 1102.18 554.365C1034.61 592.67 960.757 619.222 880.921 633.878C806.768 647.49 731.941 650.254 656.552 641.817C544.729 629.303 443.941 594.616 353.56 537.462C360.857 522.039 367.317 507.07 376.159 493.147C386.663 476.607 401.088 463.239 424.193 457.343C450.219 450.701 475.524 442.133 501.386 435.017C530.754 426.936 560.288 419.233 590.001 412.088C596.157 410.607 598.091 408.729 597.235 404.084C595.348 393.846 593.021 383.652 591.634 373.37C591.323 371.068 593.45 367.814 595.702 366.198C598.086 364.486 601.886 363.934 605.189 363.341C639.408 357.196 674.034 354.076 709.04 354.687C714.711 354.786 721.485 355.819 725.773 358.557C748.676 373.186 771.145 388.3 793.362 403.647C804.586 411.4 814.96 420.002 826.819 429.06C827.101 426.337 827.568 424.991 827.321 423.743C823.773 405.852 820.532 387.909 816.37 370.115C813.418 357.49 816.917 346.79 827.135 337.41C830.185 334.61 833.287 331.834 836.582 329.235C846.169 321.672 852.325 312.426 854.815 301.781C857.136 291.864 859.203 281.803 859.82 271.739C860.723 256.988 866.501 245.295 883.122 238.23C888.897 235.775 893.879 232.067 899.464 229.264C927.983 214.957 945.761 194.512 952.745 167.267C956.077 154.268 962.663 142.173 972.939 131.709C978.14 126.412 983.134 120.969 988.515 115.803C1000.18 104.603 1012.04 93.5391 1023.79 82.3979C1023.77 82.376 1023.72 82.341 1023.81 82.9589C1023.03 88.2141 1022.91 93.0598 1021.16 97.4532C1013.03 117.827 1004.47 138.084 996.001 158.363C993.056 165.413 989.911 172.405 986.858 179.423C987.652 179.686 988.447 179.95 989.242 180.213C1008.08 147.502 1026.92 114.79 1045.76 82.0784C1046.44 82.2832 1047.12 82.4879 1047.8 82.6927C1046.06 91.0273 1044.31 99.362 1042.57 107.697C1043.15 107.844 1043.73 107.991 1044.31 108.138C1059.35 82.5237 1074.4 56.9091 1090.49 29.5144C1097.66 38.4245 1105.27 44.8401 1108.46 52.5229C1113.61 64.9147 1117.02 78.0139 1119.07 91.0421C1123.3 117.855 1126.05 144.826 1129.57 171.718C1131.28 184.815 1133.35 197.881 1135.26 210.96C1136.56 209.033 1136.56 207.181 1136.56 205.329C1136.57 183.835 1135.48 162.288 1136.98 140.867C1137.96 126.925 1137.94 113.741 1130.83 100.807C1129.25 97.934 1130.6 93.9495 1130.6 90.477C1131.5 90.1662 1132.4 89.8555 1133.31 89.5448C1144.98 97.2479 1158.31 103.761 1167.93 112.948C1180.69 125.124 1190.34 139.523 1201.77 152.7C1207.18 158.941 1212.75 165.464 1219.82 170.245C1229.67 176.893 1240.75 182.358 1251.74 187.715C1263.73 193.56 1277.1 198.078 1284.82 208.214C1295.11 221.727 1304.89 235.554 1313.85 249.705C1323.09 264.316 1331.49 279.25 1346.12 290.894ZM506.264 509.139C507.592 508.211 508.921 507.284 511.351 506.434C512.482 505.931 513.613 505.428 514.744 504.925C514.422 504.546 514.099 504.167 513.777 503.788C512.597 504.641 511.418 505.494 509.161 506.45C507.833 507.373 506.505 508.295 504.73 509.334C504.849 509.27 504.967 509.206 506.264 509.139ZM524.541 500.126C523.088 500.277 521.634 500.428 519.211 500.767C518.853 501.454 518.495 502.142 518.137 502.829C520.076 502.116 522.015 501.403 524.541 500.126ZM513.439 574.991C513.439 574.991 502.435 568.748 501.496 569.319C499.396 571.328 496.477 577.477 494.377 579.487C493.799 575.88 477.223 565.934 477.611 562.938C477.937 560.415 496.124 551.614 496.124 549.061C495.12 549.079 494.115 549.097 493.11 549.115C491.768 557.121 490.425 565.127 489.083 573.132C490.117 573.502 491.151 573.872 492.185 574.241C495.893 570.387 499.6 566.533 504.866 562.665C504.532 567.973 504.199 573.281 503.865 578.589C504.747 578.888 505.628 579.187 506.51 579.487C512.744 573.207 518.979 566.928 525.213 560.649C524.407 560.041 509.826 581.105 521.969 566.483C519.41 570.737 507.702 583.021 502.349 587.752C502.602 582.977 504.319 565.126 504.908 561.52C504.51 559.901 501.496 560.102 506.614 558.684C504.345 560.396 515.33 572.947 513.439 574.991ZM435.098 534.574C435.445 534.841 435.793 535.109 435.787 536.385C434.412 540.43 433.037 544.475 431.662 548.52C432.645 548.992 433.629 549.464 434.613 549.936C441.868 544.344 449.124 538.752 456.38 533.16C455.751 532.507 455.122 531.854 454.494 531.202C488 536.385 446.419 553.683 441.769 556.712C441.431 552.667 399.27 542.781 399.983 539.621C400.335 538.065 433.399 526.286 433.252 524.652C431.611 525.295 438.291 526.185 436.883 527.081C433.41 529.292 430.134 531.716 426.779 534.054C426.358 533.601 425.937 533.147 425.516 532.694C427.058 528.131 428.6 523.569 430.143 519.006C428.977 518.753 435.778 550.19 434.613 549.936C431.796 557.714 421.013 533.801 418.196 541.579C419.122 542.028 420.048 542.478 420.973 542.927C425.351 539.862 429.728 536.796 435.098 534.574ZM813.473 531.858C856.489 518.329 899.583 504.968 942.481 491.186C958.873 485.919 975.561 480.601 987.447 469.008C1012.25 444.812 1030.78 417.149 1043.22 387.533C1055.34 358.694 1062.53 328.412 1071.54 298.693C1075.47 285.767 1078.54 272.664 1082 259.642C1078.6 261.026 1076.76 262.998 1075.07 265.053C1063.37 279.273 1051.64 293.477 1040.04 307.748C1014.59 339.033 989.099 370.29 963.851 401.685C947.416 422.122 931.085 442.794 907.982 458.421C892.64 468.8 875.472 477.384 858.691 486.205C837.333 497.431 822.169 512.757 811.818 532.01C811.949 531.961 812.079 531.911 813.473 531.858ZM982.528 251.419C966.32 257.781 952.045 265.806 943.448 279.646C936.416 290.966 928.441 301.88 920.907 312.984C912.059 326.026 903.236 339.079 894.403 352.127C894.931 352.549 895.458 352.97 895.986 353.392C897.829 352.105 899.975 351.023 901.47 349.5C921.016 329.579 940.177 309.391 960.057 289.704C971.875 278.001 986.929 270.319 1005.63 268.142C1013.19 267.262 1020.62 265.582 1028.13 264.388C1042.95 262.033 1051.22 256.769 1054.62 242.459C1059.46 222.111 1070.26 202.751 1078.37 182.928C1083.35 170.746 1088.06 158.487 1092.89 146.262C1090.08 146.315 1088.99 146.995 1088.36 147.897C1070.91 173.012 1053.53 198.167 1036.05 223.268C1032.22 228.768 1028.4 234.331 1023.8 239.376C1021.81 241.554 1018.06 243.036 1014.76 243.888C1004.52 246.529 994.107 248.716 982.528 251.419ZM592.859 458.041C570.912 470.624 548.964 483.207 527.017 495.79C527.52 496.473 528.024 497.156 528.528 497.839C536.804 494.134 545.183 490.578 553.339 486.699C585.612 471.351 618.003 456.164 649.954 440.364C663.074 433.876 676.156 433.528 690.782 435.255C715.225 438.143 737.225 445.127 757.064 457.23C761.685 460.048 766.901 462.192 771.844 464.646C772.463 464.209 773.083 463.772 773.702 463.336C771.683 459.863 770.336 455.949 767.526 452.997C756.64 441.558 745.149 430.518 734.174 419.136C729.332 414.115 723.048 412.024 715.783 411.604C703.625 410.902 691.448 410.164 679.272 410.075C674.975 410.044 669.876 410.963 666.476 412.992C642.055 427.565 617.977 442.535 592.859 458.041ZM454.056 552.151C454.056 554.421 454.056 556.691 454.056 560.925C460.167 556.015 464.519 552.518 468.872 549.021C469.351 549.335 469.829 549.65 470.308 549.964C469.166 554.77 468.025 559.575 466.884 564.38C467.828 564.832 465.939 560.636 466.884 561.088C473.734 555.077 483.418 553.715 490.269 547.704C489.513 547.034 513.867 566.717 487.847 548.758C483.438 552.212 473.282 573.542 468.872 576.996C468.39 576.657 473.807 555.376 473.325 555.037C474.427 550.279 466.272 560.605 467.374 555.848C466.486 555.467 457.173 555.52 456.285 555.139C452.051 558.756 465.501 546.855 461.267 550.472C584.242 532.451 437.435 568.916 436.883 568.61C437.852 563.756 461.551 539.847 462.52 534.993C461.548 534.848 460.575 534.704 459.603 534.559C457.869 540.061 456.135 545.563 454.056 552.151ZM582.857 587.752C580.754 597.029 585.265 602.737 595.77 603.903C607.025 605.152 599.809 600.041 603.009 595.551C599.173 594.887 603.862 600.514 597.479 591.255C620.07 604.059 597.417 602.606 598.377 606.478C588.881 605.141 575.568 594.428 576.564 587.752C578.278 576.27 595.77 575.907 597.038 582.08C586.767 575.324 589.912 578.4 582.857 587.752ZM558.653 573.199C557.141 578.194 554.915 583.13 554.309 588.199C553.649 593.722 560.372 597.637 566.886 596.308C574.127 594.832 581.013 580.982 576.779 573.779C574.656 579.241 580.126 569.056 577.418 573.199C575.939 575.46 589.36 582.789 585.948 583.72C584.726 580.984 563.532 608.832 563.769 606.186C564.116 602.306 545.468 585.227 546.708 581.371C546.748 581.247 560.435 572.691 558.653 573.199ZM542.37 583.72C537.924 584.216 533.479 584.712 529.553 585.15C533.032 589.184 525.479 588.237 529.553 584.945C534.762 580.736 532.046 583.187 527.941 579.487C526.286 577.996 533.183 567.783 532.206 565.774C534.982 565.704 542.226 559.393 545.002 559.393C545.987 559.393 549.869 570.111 552.166 570.459C548.018 564.835 542.754 564.273 538.032 566.717C532.81 569.42 534.221 573.426 537.822 576.996C539.577 578.736 540.954 580.738 542.37 583.72Z" fill="#A7DBD3"/>
<path d="M1344.26 290.571C1326.14 279.225 1316.09 264.293 1305.03 249.683C1294.33 235.533 1282.62 221.707 1270.32 208.195C1261.09 198.06 1245.11 193.543 1230.77 187.698C1217.63 182.342 1204.37 176.877 1192.6 170.23C1184.13 165.45 1177.48 158.927 1171 152.686C1157.33 139.511 1145.8 125.113 1130.54 112.938C1119.03 103.751 1103.1 97.2393 1089.14 89.5369C1088.06 89.8476 1086.98 90.1583 1085.89 90.469C1085.89 93.9413 1084.28 97.9253 1086.17 100.798C1094.68 113.731 1094.7 126.914 1093.53 140.854C1091.74 162.274 1093.04 183.819 1093.03 205.31C1093.03 207.162 1093.03 209.014 1091.47 210.942C1089.19 197.863 1086.72 184.799 1084.67 171.703C1080.46 144.813 1077.16 117.845 1072.12 91.034C1069.66 78.007 1065.58 64.9091 1059.43 52.5184C1055.61 44.8363 1046.51 38.4212 1037.93 29.512C1018.69 56.9041 1000.7 82.5164 982.706 108.129C982.011 107.981 981.317 107.834 980.622 107.687C982.709 99.3532 984.796 91.0193 986.883 82.6854C986.067 82.4807 985.252 82.2759 984.436 82.0712C961.909 114.78 939.381 147.488 916.854 180.197C915.904 179.933 914.954 179.67 914.003 179.407C917.655 172.389 921.415 165.398 924.937 158.349C935.069 138.072 945.3 117.817 955.023 97.4446C957.12 93.0516 957.255 88.2064 958.417 82.9065C958.54 82.2435 958.614 81.8675 958.614 81.8675L958.197 82.4124C944.112 93.5309 929.936 104.594 915.985 115.792C909.55 120.958 903.578 126.401 897.359 131.697C885.07 142.161 877.194 154.254 873.209 167.252C864.858 194.494 843.597 214.938 809.493 229.244C802.814 232.046 796.856 235.754 789.951 238.208C770.074 245.273 763.164 256.965 762.084 271.715C761.347 281.777 758.874 291.838 756.1 301.754C753.121 312.398 745.76 321.644 734.295 329.205C730.355 331.804 726.645 334.58 722.998 337.38C710.779 346.758 706.594 357.457 710.125 370.082C715.101 387.874 718.977 405.815 723.22 423.705C723.516 424.953 722.957 426.298 722.62 429.022C708.439 419.964 696.032 411.363 682.611 403.611C656.042 388.265 629.172 373.152 601.783 358.525C596.656 355.787 588.554 354.754 581.773 354.655C539.911 354.044 498.503 357.164 457.582 363.308C453.633 363.901 449.088 364.453 446.237 366.165C443.544 367.781 441.001 371.035 441.372 373.336C443.031 383.618 445.814 393.81 448.07 404.047C449.094 408.692 446.782 410.57 439.419 412.051C403.887 419.196 368.569 426.898 333.449 434.977C302.521 442.093 272.261 450.661 241.138 457.301C213.507 463.197 196.256 476.564 183.695 493.102C173.121 507.025 165.396 521.992 156.268 537.024C101.981 509.85 55.364 476.839 13.9685 440.154C8.95234 435.708 4.1747 431.133 0 426.098C10.715 424.444 20.6864 422.51 30.7237 422.328C57.7896 421.836 84.8843 421.989 111.966 422.082C134.121 422.158 157.001 427.917 178.184 420.826C194.211 415.462 208.921 407.98 223.422 400.678C249.037 387.78 275.152 375.602 304.622 367.276C344.729 355.945 387.228 351.033 429.159 344.508C444.564 342.11 459.478 338.189 474.616 334.963C485.826 332.767 497.036 330.57 509.512 327.961C519.351 324.317 529.227 322.085 536.251 317.665C556.472 304.941 575.54 291.333 595.626 277.826C599.182 274.892 602.173 272.205 605.762 269.288C611.446 264.113 616.532 259.167 621.617 254.221C633.757 243.797 646.027 233.445 658.011 222.936C687.234 197.309 722.553 178.405 769.196 169.954C807.847 162.951 837.627 145.898 864.094 125.479C881.488 112.059 901.324 100.183 919.192 87.0404C935.466 75.0705 950.996 62.5749 966.058 49.856C982.424 36.0363 997.184 21.2819 1013.94 7.70934C1026.69 -2.61235 1031.83 -2.52663 1045.15 7.70787C1080.86 35.1364 1116.33 62.7333 1151.06 90.7593C1183.14 116.644 1214.37 143.045 1245.47 169.508C1253.09 175.996 1260.44 179.687 1273.56 180.852C1304.67 183.614 1325.48 197.488 1337.72 217.049C1345.67 229.75 1351.61 243.056 1359 256.409C1354.66 267.91 1349.77 279.092 1344.26 290.571Z" fill="#A7DBD3"/>
<path d="M1115.99 293.567C1126.86 299.07 1137.9 304.347 1148.54 310.122C1172.77 323.259 1197.59 335.78 1220.58 350.282C1232.22 357.622 1240.57 368.625 1250.15 378.148C1259.22 387.164 1267.96 396.41 1277.4 405.678C1259.03 426.455 1240.09 447.108 1220.63 467.938C1216.11 454.495 1211.47 440.977 1208.31 427.225C1205.32 414.258 1202.53 401.504 1195.1 389.516C1191.2 383.219 1190.89 375.455 1187.75 368.742C1185.06 362.994 1181.61 357.128 1176.85 352.481C1156.87 332.988 1136.28 313.933 1115.9 294.188C1115.89 293.658 1115.99 293.567 1115.99 293.567Z" fill="#A7DBD3"/>
<path d="M1153.57 175.84C1164.05 182.551 1174.05 189.872 1185.1 195.854C1211.79 210.293 1227.41 233.007 1247.48 252.349C1272.61 276.576 1294.74 302.997 1324.03 324.172C1325.49 325.226 1326.47 326.741 1327.81 328.605C1323.69 337.073 1319.42 344.978 1314.67 353.168C1302.13 350.161 1290.14 346.676 1277.99 343.623C1258.04 338.609 1245.64 327.532 1239.9 311.201C1235.12 297.629 1229.77 284.106 1226.61 270.255C1221.92 249.625 1207.88 233.633 1192.73 217.912C1179.62 204.302 1166.57 190.653 1153.47 176.486C1153.45 175.95 1153.57 175.84 1153.57 175.84Z" fill="#A7DBD3"/>
<path d="M812.235 531.883C822.169 512.758 837.333 497.432 858.691 486.205C875.472 477.384 892.64 468.8 907.982 458.422C931.085 442.795 947.416 422.122 963.851 401.686C989.099 370.291 1014.59 339.034 1040.04 307.748C1051.65 293.477 1063.37 279.273 1075.07 265.054C1076.76 262.998 1078.6 261.026 1082 259.643C1078.54 272.665 1075.47 285.768 1071.54 298.693C1062.53 328.413 1055.34 358.695 1043.22 387.534C1030.78 417.15 1012.25 444.813 987.447 469.009C975.561 480.602 958.873 485.92 942.481 491.187C899.583 504.969 856.489 518.329 812.847 531.867C812.221 531.875 812.235 531.883 812.235 531.883Z" fill="#A7DBD4"/>
<path d="M983.145 251.249C994.107 248.716 1004.52 246.529 1014.76 243.887C1018.06 243.036 1021.81 241.553 1023.8 239.376C1028.4 234.331 1032.22 228.768 1036.05 223.268C1053.53 198.167 1070.91 173.012 1088.36 147.897C1088.99 146.995 1090.08 146.315 1092.89 146.262C1088.06 158.487 1083.35 170.746 1078.37 182.928C1070.26 202.751 1059.46 222.111 1054.62 242.459C1051.22 256.769 1042.95 262.033 1028.13 264.388C1020.62 265.582 1013.19 267.262 1005.63 268.142C986.929 270.319 971.875 278.001 960.057 289.704C940.177 309.391 921.016 329.578 901.47 349.5C899.975 351.023 897.829 352.105 895.986 353.392C895.458 352.97 894.931 352.548 894.403 352.126C903.236 339.078 912.059 326.025 920.907 312.984C928.441 301.879 936.416 290.965 943.448 279.646C952.045 265.806 966.32 257.781 983.145 251.249Z" fill="white"/>
<path d="M593.325 457.71C617.977 442.536 642.055 427.565 666.476 412.992C669.876 410.964 674.975 410.044 679.272 410.076C691.448 410.165 703.625 410.902 715.783 411.605C723.048 412.025 729.332 414.115 734.174 419.137C745.149 430.519 756.64 441.558 767.526 452.997C770.336 455.95 771.683 459.864 773.702 463.336C773.083 463.773 772.463 464.209 771.844 464.646C766.901 462.192 761.685 460.049 757.064 457.23C737.225 445.127 715.225 438.143 690.782 435.256C676.156 433.528 663.074 433.876 649.954 440.364C618.003 456.165 585.612 471.351 553.339 486.699C545.183 490.578 536.804 494.134 528.528 497.839C528.024 497.156 527.52 496.473 527.017 495.79C548.964 483.207 570.912 470.624 593.325 457.71Z" fill="white"/>
</svg>
