<svg width="32" height="32" viewBox="0 0 32 32" fill="none" xmlns="http://www.w3.org/2000/svg">
<g clip-path="url(#clip0_1_3515)">
<path fill-rule="evenodd" clip-rule="evenodd" d="M15.8889 0.458984C7.24872 0.458984 0.244446 7.46326 0.244446 16.1034C0.244446 24.7436 7.24872 31.7479 15.8889 31.7479C24.5291 31.7479 31.5333 24.7436 31.5333 16.1034C31.5333 7.46326 24.5291 0.458984 15.8889 0.458984ZM22.4084 10.7252C23.1265 10.9222 23.6919 11.5028 23.8839 12.24C24.2326 13.5762 24.2326 16.3642 24.2326 16.3642C24.2326 16.3642 24.2326 19.152 23.8839 20.4883C23.6919 21.2255 23.1265 21.8061 22.4084 22.0032C21.1072 22.3612 15.8889 22.3612 15.8889 22.3612C15.8889 22.3612 10.6706 22.3612 9.36926 22.0032C8.65118 21.8061 8.0857 21.2255 7.8938 20.4883C7.54519 19.152 7.54519 16.3642 7.54519 16.3642C7.54519 16.3642 7.54519 13.5762 7.8938 12.24C8.0857 11.5028 8.65118 10.9222 9.36926 10.7252C10.6706 10.3671 15.8889 10.3671 15.8889 10.3671C15.8889 10.3671 21.1072 10.3671 22.4084 10.7252Z" fill="#0E0E0E"/>
<path d="M14.3226 19.2363V14.0215L18.4944 16.629L14.3226 19.2363Z" fill="#0E0E0E"/>
</g>
<defs>
<clipPath id="clip0_1_3515">
<rect width="31.2889" height="31.2889" fill="white" transform="translate(0.244446 0.458984)"/>
</clipPath>
</defs>
</svg>
