<svg width="750" height="417" viewBox="0 0 750 417" fill="none" xmlns="http://www.w3.org/2000/svg">
<path d="M726.804 315.737C706.686 321.404 686.868 327.186 666.398 330.722C610.681 340.345 554.207 347.587 500.913 364.296C461.753 376.572 427.052 394.53 393.015 413.55C373.746 424.317 355.403 397.59 334.107 405.5C305.959 415.955 253.943 413.662 224.504 413.55C188.517 413.412 229.561 412.825 193.596 413.55C213.345 358.001 107.325 411.809 92.9021 413.55C55.9177 377.521 29.8881 375.04 3.56806 333.736C6.66859 332.881 9.82497 332.826 12.9536 332.57C13.6403 332.514 14.2281 331.74 15.9405 330.541C12.3196 328.093 7.86439 326.18 5.56401 323.259C2.36151 319.192 -2.53339 313.075 -0.64558 310.207C1.56382 306.85 10.1474 305.717 16.2113 304.204C26.1059 301.736 36.8375 300.746 46.0346 297.273C55.8049 293.582 51.8255 288.839 43.9239 286.347C36.8683 284.122 28.9056 283.469 22.1368 280.886C16.8201 278.857 11.8077 275.432 8.39746 271.686C6.21782 269.292 7.2021 265.185 6.76794 261.846C10.5261 261.659 14.2891 261.517 18.0413 261.276C27.8919 260.642 37.7379 259.965 47.6227 257.839C34.5608 244.437 17.3478 241.763 -3.55125 243.456C-0.182903 241.184 1.60974 239.975 4.54795 237.994C-4.93572 235.604 -13.4679 233.454 -22 231.304C1.5489 230.926 25.2479 234.337 46.1442 219.505C22.7319 219.839 0.0544357 223.751 -18.1748 211.901C-4.31685 208.745 9.8044 205.529 23.9257 202.314C23.8641 201.226 23.8025 200.139 23.7409 199.052C15.0704 194.896 6.3999 190.74 -5.7452 184.919C17.7343 181.418 36.8644 178.566 55.9945 175.713C56.0923 174.31 56.1901 172.907 56.2878 171.503C40.5946 166.257 24.9014 161.012 9.99175 156.028C24.6721 151.584 44.0181 153.642 59.0669 139.471C47.9438 137.871 39.3867 136.639 30.3593 135.341C32.1762 134.016 34.2224 132.524 36.7121 130.709C34.3449 129.29 32.3914 128.12 30.2324 126.826C46.6327 124.956 52.3897 119.401 49.1582 108.012C49.0318 107.254 49.0444 107.241 49.0444 107.241C51.6864 105.849 56.1482 104.783 56.6791 103.015C60.4976 90.2949 63.5186 77.4327 68.0296 64.4079C68.0296 73.9793 69.8579 83.8193 67.5768 93.0557C64.5799 105.19 76.2727 110.348 83.4052 117.655C98.6472 133.269 97.6125 135.804 71.9444 139.98C75.1715 149.406 82.1599 153.198 94.6788 150.276C97.6551 149.581 101.132 148.715 103.904 149.289C107.94 150.126 113.301 151.544 114.798 153.94C116.063 155.964 113.159 159.96 111.164 162.674C108.241 166.653 104.482 170.266 99.2588 176.052C97.2275 176.2 91.2596 176.633 83.1392 177.222C90.4315 188.768 100.549 194.524 114.298 197.126C118.681 197.956 122.877 199.372 127.159 200.52C125.099 204.24 123.505 208.178 120.815 211.604C119.03 213.878 115.676 215.419 111.275 218.522C117.756 220.484 123.163 222.12 129.882 224.153C110.068 232.081 94.6919 218.239 76.032 218.684C78.3095 228.757 90.2712 228.476 95.3307 233.297C100.032 237.778 101.103 244.524 103.934 250.62C106.891 249.271 110.51 247.62 115.701 245.251C115.701 253.616 115.701 260.641 115.701 268.222C117.662 267.928 120.321 267.53 122.822 267.155C123.295 267.875 123.759 268.277 123.644 268.449C116.237 279.474 108.782 290.481 101.332 301.49C101.842 302.616 102.352 303.743 102.862 304.87C118.601 302.715 134.34 300.561 150.205 298.389C150.205 293.346 150.205 290.072 150.205 286.978C165.148 286.045 179.609 285.141 193.596 284.267C194.201 282.632 194.906 281.801 194.616 281.355C185.12 266.758 185.734 267.188 199.597 254.989C204.459 250.71 206.417 243.93 207.894 238.023C210.269 228.524 211.143 218.802 212.652 209.174C214.135 209.206 215.618 209.237 217.101 209.269C217.101 216.916 216.136 224.659 217.403 232.179C218.434 238.306 222.815 244.054 224.504 250.169C227.52 261.091 230.861 270.13 250.162 268.513C254.393 268.159 259.842 276.451 266.451 282.28C268.092 281.877 272.61 280.353 277.327 279.737C281.613 279.176 286.912 278.413 290.386 279.797C306.771 286.328 311.494 285.911 329.369 272.502C317.996 273.186 309.636 273.689 305.084 273.963C300.414 268.975 297.237 265.881 294.502 262.57C292.06 259.615 290.106 256.421 287.936 253.333C291.583 252.02 295.075 250.109 298.909 249.515C307.637 248.162 316.533 247.455 328.421 246.149C322.262 243.178 317.754 241.349 313.788 238.982C310.518 237.03 307.89 234.439 304.978 232.132C308.249 229.911 311.084 226.662 314.889 225.704C321.04 224.154 327.829 224.112 336.222 223.238C324.399 216.629 314.02 210.827 303.641 205.026C304.265 204.193 304.889 203.36 305.513 202.526C308.503 203.161 311.493 203.795 314.484 204.429C314.268 203.706 314.053 202.983 313.838 202.26C320.292 200.701 326.747 199.142 334.107 197.365C332.564 191.67 324.916 183.433 336.324 182.112C339.147 175.089 341.12 170.62 342.73 166.075C345.271 158.897 347.953 151.726 349.805 144.436C350.735 140.772 349.967 136.852 352.385 132.844C353.392 138.056 355.017 143.25 355.272 148.484C355.742 158.109 352.494 168.603 370.323 172.769C365.227 177.33 361.874 180.331 356.764 184.904C364.143 186.044 369.813 186.921 378.913 188.327C373.391 193.277 369.161 197.068 363.392 202.24C373.659 203.935 382.891 205.458 392.727 207.081C391.124 219.944 371.03 215.773 364.531 226.903C382.867 225.701 399.419 224.616 415.723 223.547C412.249 243.79 392.193 249.785 370.618 254.461C376.557 259.756 376.557 259.756 398.515 258.895C396.287 273.717 375.928 275.341 367.724 285.102C385.104 299.082 408.496 294.357 429.813 295.759C423.577 312.096 412.699 321.599 390.125 318.523C388.039 318.239 385.64 318.818 383.526 319.334C381.963 319.715 380.625 320.645 379.03 321.404C395.194 332.287 399.891 333.141 417.408 325.694C427.166 321.546 436.7 316.606 444.822 310.77C454.782 303.615 452.402 293.066 440.948 287.172C438.701 286.015 436.484 284.614 433.975 284.005C415.497 279.526 412.724 266.968 407.478 254.486C422.792 253.469 437.321 266.366 451.61 253.888C444.767 249.183 437.697 244.321 429.381 238.604C434.989 236.438 438.92 235.334 442.252 233.56C456.433 226.008 456.714 225.71 445.665 215.649C435.689 206.564 444.071 199.157 448.04 189.9C449.865 192.576 450.965 194.189 452.065 195.802C453.367 196.087 454.67 196.371 455.972 196.656C458.591 189.16 462.348 181.771 463.555 174.141C465.263 163.349 461.086 151.834 472.234 140.531C475.07 152.452 478.841 162.888 479.79 173.475C481.527 192.843 488.458 209.941 511.662 224.039C502.146 226.444 494.916 228.271 487.939 230.035C503.708 238.719 521.19 238.892 537.026 231.607C543.151 228.789 550.804 227.048 557.942 226.625C573.539 225.702 587.445 218.825 595.106 205.919C572.1 209.012 549.641 217.034 524.702 207.03C541.053 199.921 554.838 193.927 571.256 186.788C548.998 181.99 526.423 183.049 513.257 169.064C513.732 168.027 514.207 166.99 514.682 165.953C524.977 167.236 535.272 168.518 545.568 169.801C545.985 169.125 546.403 168.448 546.821 167.772C540.419 164.344 534.017 160.916 527.375 157.36C543.358 157.36 557.896 157.601 572.403 157.194C576.154 157.089 580.23 155.414 583.433 153.669C596.396 146.61 596.826 141.775 584.077 134.501C574.303 128.923 566.534 120.956 551.948 120.685C545.53 120.566 539.273 115.317 533.946 110.167C538.866 109.603 543.787 109.038 550.547 108.262C545.715 105.166 542.269 102.958 539.679 101.298C551.049 100.264 562.423 99.698 573.527 98.0466C580.377 97.0278 583.546 93.7784 581.713 87.2397C580.066 81.3666 581.404 74.8839 582.218 68.7327C585.046 47.3813 588.203 26.0559 591.292 4.72551C591.519 3.16238 592.21 1.63931 595.503 0C599.347 22.5544 603.191 45.1089 607.209 68.6829C611.175 66.8042 613.795 65.5629 616.415 64.3216C617.104 64.7349 617.793 65.1481 618.482 65.5615C614.714 71.2291 611.109 76.9655 607.142 82.5494C600.088 92.4803 601.071 93.926 615.925 94.7273C617.648 94.8202 619.358 95.0523 622.493 95.3584C619.674 98.4392 617.47 100.847 612.782 105.969C622.682 105.969 630.818 107.348 637.573 105.583C644.371 103.806 649.795 98.902 655.77 95.3988C670.889 105.341 667.783 114.02 645.089 129.568C648.643 128.47 652.089 126.911 655.78 126.399C659.742 125.85 663.934 126.286 668.026 126.291C667.014 129.749 667.513 134.841 664.723 136.374C654.076 142.225 642.37 146.929 630.923 152.124C640.103 164.918 674.83 168.334 709.518 157.535C710.534 157.431 710.544 157.436 710.544 157.436C708.311 164.366 708.267 172.456 703.354 177.963C695.136 187.174 681.67 190.692 665.843 192.027C673.38 194.108 680.918 196.188 688.455 198.269C688.468 198.897 688.482 199.525 688.495 200.153C673.98 200.153 659.461 200.019 644.95 200.227C639.989 200.297 635.048 201.224 630.097 201.76C632.909 204.867 634.953 209.831 638.672 210.746C651.648 213.938 665.086 217.041 678.564 217.752C699.925 218.88 721.459 218.053 741.96 218.053C735.083 224.741 729.925 232.271 721.943 236.911C710.774 243.405 697.499 247.745 683.176 253.836C695.92 255.837 708.479 257.836 721.054 259.769C725.393 260.435 729.775 260.935 734.138 261.512C732.201 265.108 730.727 268.915 728.169 272.225C726.427 274.478 723.169 276.034 718.377 279.503C729.609 281.241 738.797 282.662 750 284.396C723.178 291.081 697.953 293.004 671.63 287.46C676.271 296.786 693.401 304.009 710.256 303.685C720.836 303.482 728.456 304.758 726.804 315.737ZM127.838 357.085C128.095 358.753 127.853 361.708 128.682 361.899C143.161 365.236 146.538 372.278 141.561 382.766C140.676 384.63 141.693 387.031 141.833 389.185C143.344 389.432 144.855 389.678 146.366 389.925C150.041 380.335 155.437 370.878 156.708 361.102C157.403 355.758 151.12 349.874 147.984 344.234C142.637 347.421 137.273 350.591 131.959 353.81C130.906 354.448 130.047 355.278 127.838 357.085ZM293.546 316.825C287.097 315.549 279.968 315.212 274.348 312.792C264.28 308.457 258.043 311.469 250.886 317.372C258.407 319.345 264.573 321.841 271.022 322.407C277.321 322.959 283.917 321.055 290.371 321.104C299.707 321.174 299.136 325.737 295.917 330.423C292.758 335.019 288.961 339.354 284.173 345.411C305.871 339.476 308.748 336.336 310.019 319.296C305.3 318.659 300.502 318.011 293.546 316.825ZM530.214 264.072C538.335 260 546.456 255.928 554.884 251.703C539.951 243.479 531.338 260.462 518.398 253.81C508.385 260.807 498.371 267.804 486.858 275.849C504.073 277.107 515.77 269.832 530.214 264.072ZM535.638 290.737C541.41 287.012 547.182 283.288 552.955 279.563C552.147 278.683 551.339 277.804 550.531 276.924C546.699 277.507 542.87 278.101 539.034 278.667C538.149 278.797 537.159 278.68 536.356 278.936C530.036 280.947 528.669 288.178 535.638 290.737ZM91.5726 254.687C91.3396 255.758 91.1066 256.828 90.8736 257.899C91.5807 257.85 92.8893 257.847 92.9021 257.746C93.0334 256.712 92.954 255.663 91.5726 254.687Z" fill="#E2E2E4"/>
</svg>
